<ttFont>
    <TTGlyph name=".ttfautohint" xMin="0" yMin="0" xMax="0" yMax="0">
      <contour>
        <pt x="0" y="0" on="1"/>
      </contour>
    </TTGlyph>
    <TTGlyph name="A" xMin="-10" yMin="0" xMax="560" yMax="700">
      <contour>
        <pt x="403" y="160" on="1"/>
        <pt x="203" y="160" on="1"/>
        <pt x="130" y="0" on="1"/>
        <pt x="-10" y="0" on="1"/>
        <pt x="318" y="700" on="1"/>
        <pt x="478" y="700" on="1"/>
        <pt x="560" y="0" on="1"/>
        <pt x="420" y="0" on="1"/>
      </contour>
      <contour>
        <pt x="244" y="250" on="1"/>
        <pt x="394" y="250" on="1"/>
        <pt x="371" y="460" on="1"/>
        <pt x="369" y="472" on="0"/>
        <pt x="368" y="498" on="0"/>
        <pt x="369" y="509" on="1"/>
        <pt x="369" y="522" on="0"/>
        <pt x="371" y="535" on="1"/>
        <pt x="367" y="535" on="1"/>
        <pt x="363" y="522" on="0"/>
        <pt x="359" y="509" on="1"/>
        <pt x="351" y="485" on="0"/>
        <pt x="341" y="460" on="1"/>
      </contour>
    </TTGlyph>
    <TTGlyph name="AE" xMin="-50" yMin="0" xMax="918" yMax="700">
      <contour>
        <pt x="375" y="0" on="1"/>
        <pt x="408" y="190" on="1"/>
        <pt x="203" y="190" on="1"/>
        <pt x="90" y="0" on="1"/>
        <pt x="-50" y="0" on="1"/>
        <pt x="368" y="700" on="1"/>
        <pt x="918" y="700" on="1"/>
        <pt x="902" y="610" on="1"/>
        <pt x="622" y="610" on="1"/>
        <pt x="587" y="410" on="1"/>
        <pt x="807" y="410" on="1"/>
        <pt x="791" y="320" on="1"/>
        <pt x="571" y="320" on="1"/>
        <pt x="530" y="90" on="1"/>
        <pt x="810" y="90" on="1"/>
        <pt x="795" y="0" on="1"/>
      </contour>
      <contour>
        <pt x="259" y="280" on="1"/>
        <pt x="424" y="280" on="1"/>
        <pt x="482" y="610" on="1"/>
        <pt x="452" y="610" on="1"/>
      </contour>
    </TTGlyph>
    <TTGlyph name="Aacute" xMin="-10" yMin="0" xMax="560" yMax="900">
      <component glyphName=".ttfautohint" x="0" y="0" flags="0x1000"/>
      <component glyphName="A" x="0" y="0" flags="0x1204"/>
      <component glyphName="acute" x="262" y="200" flags="0x1004"/>
    </TTGlyph>
    <TTGlyph name="Abreve" xMin="-10" yMin="0" xMax="593" yMax="900">
      <component glyphName=".ttfautohint" x="0" y="0" flags="0x1000"/>
      <component glyphName="A" x="0" y="0" flags="0x1204"/>
      <component glyphName="breve" x="165" y="200" flags="0x1004"/>
    </TTGlyph>
    <TTGlyph name="Acircumflex" xMin="-10" yMin="0" xMax="566" yMax="884">
      <component glyphName=".ttfautohint" x="0" y="0" flags="0x1000"/>
      <component glyphName="A" x="0" y="0" flags="0x1204"/>
      <component glyphName="circumflex" x="163" y="190" flags="0x1004"/>
    </TTGlyph>
    <TTGlyph name="Adieresis" xMin="-10" yMin="0" xMax="585" yMax="900">
      <component glyphName=".ttfautohint" x="0" y="0" flags="0x1000"/>
      <component glyphName="A" x="0" y="0" flags="0x1204"/>
      <component glyphName="dieresis" x="153" y="190" flags="0x1004"/>
    </TTGlyph>
    <TTGlyph name="Agrave" xMin="-10" yMin="0" xMax="560" yMax="900">
      <component glyphName=".ttfautohint" x="0" y="0" flags="0x1000"/>
      <component glyphName="A" x="0" y="0" flags="0x1204"/>
      <component glyphName="grave" x="197" y="200" flags="0x1004"/>
    </TTGlyph>
    <TTGlyph name="Amacron" xMin="-10" yMin="0" xMax="569" yMax="850">
      <component glyphName=".ttfautohint" x="0" y="0" flags="0x1000"/>
      <component glyphName="A" x="0" y="0" flags="0x1204"/>
      <component glyphName="macron" x="178" y="190" flags="0x1004"/>
    </TTGlyph>
    <TTGlyph name="Aogonek" xMin="-10" yMin="-185" xMax="578" yMax="700">
      <component glyphName=".ttfautohint" x="0" y="0" flags="0x1000"/>
      <component glyphName="A" x="0" y="0" flags="0x1204"/>
      <component glyphName="ogonek" x="420" y="0" flags="0x1004"/>
    </TTGlyph>
    <TTGlyph name="Aring" xMin="-10" yMin="0" xMax="560" yMax="955">
      <component glyphName=".ttfautohint" x="0" y="0" flags="0x1000"/>
      <component glyphName="A" x="0" y="0" flags="0x1204"/>
      <component glyphName="ring" x="215" y="200" flags="0x1004"/>
    </TTGlyph>
    <TTGlyph name="Atilde" xMin="-10" yMin="0" xMax="574" yMax="890">
      <component glyphName=".ttfautohint" x="0" y="0" flags="0x1000"/>
      <component glyphName="A" x="0" y="0" flags="0x1204"/>
      <component glyphName="tilde" x="159" y="170" flags="0x1004"/>
    </TTGlyph>
    <TTGlyph name="B" xMin="60" yMin="0" xMax="601" yMax="700">
      <contour>
        <pt x="450" y="370" on="1"/>
        <pt x="491" y="362" on="0"/>
        <pt x="520" y="341" on="1"/>
        <pt x="532" y="332" on="0"/>
        <pt x="554" y="306" on="0"/>
        <pt x="569" y="270" on="0"/>
        <pt x="574" y="224" on="0"/>
        <pt x="569" y="195" on="1"/>
        <pt x="561" y="150" on="0"/>
        <pt x="519" y="78" on="0"/>
        <pt x="447" y="27" on="0"/>
        <pt x="341" y="0" on="0"/>
        <pt x="270" y="0" on="1"/>
        <pt x="60" y="0" on="1"/>
        <pt x="183" y="700" on="1"/>
        <pt x="393" y="700" on="1"/>
        <pt x="455" y="700" on="0"/>
        <pt x="541" y="673" on="0"/>
        <pt x="591" y="625" on="0"/>
        <pt x="608" y="559" on="0"/>
        <pt x="601" y="520" on="1"/>
        <pt x="592" y="471" on="0"/>
        <pt x="543" y="412" on="0"/>
        <pt x="517" y="396" on="1"/>
        <pt x="486" y="378" on="0"/>
      </contour>
      <contour>
        <pt x="272" y="410" on="1"/>
        <pt x="342" y="410" on="1"/>
        <pt x="387" y="410" on="0"/>
        <pt x="451" y="465" on="0"/>
        <pt x="459" y="510" on="1"/>
        <pt x="467" y="555" on="0"/>
        <pt x="422" y="610" on="0"/>
        <pt x="377" y="610" on="1"/>
        <pt x="307" y="610" on="1"/>
      </contour>
      <contour>
        <pt x="256" y="320" on="1"/>
        <pt x="215" y="90" on="1"/>
        <pt x="285" y="90" on="1"/>
        <pt x="410" y="90" on="0"/>
        <pt x="431" y="205" on="1"/>
        <pt x="451" y="320" on="0"/>
        <pt x="326" y="320" on="1"/>
      </contour>
    </TTGlyph>
    <TTGlyph name="C" xMin="76" yMin="-10" xMax="595" yMax="710">
      <contour>
        <pt x="86" y="350" on="1"/>
        <pt x="103" y="446" on="0"/>
        <pt x="165" y="582" on="0"/>
        <pt x="251" y="669" on="0"/>
        <pt x="358" y="710" on="0"/>
        <pt x="420" y="710" on="1"/>
        <pt x="463" y="710" on="0"/>
        <pt x="529" y="693" on="0"/>
        <pt x="551" y="682" on="1"/>
        <pt x="577" y="670" on="0"/>
        <pt x="595" y="655" on="1"/>
        <pt x="536" y="575" on="1"/>
        <pt x="526" y="575" on="1"/>
        <pt x="515" y="587" on="0"/>
        <pt x="498" y="597" on="1"/>
        <pt x="484" y="605" on="0"/>
        <pt x="442" y="620" on="0"/>
        <pt x="414" y="620" on="1"/>
        <pt x="384" y="620" on="0"/>
        <pt x="328" y="595" on="0"/>
        <pt x="280" y="533" on="0"/>
        <pt x="240" y="429" on="0"/>
        <pt x="226" y="350" on="1"/>
        <pt x="212" y="271" on="0"/>
        <pt x="216" y="167" on="0"/>
        <pt x="244" y="105" on="0"/>
        <pt x="295" y="80" on="0"/>
        <pt x="329" y="80" on="1"/>
        <pt x="357" y="80" on="0"/>
        <pt x="404" y="94" on="0"/>
        <pt x="421" y="102" on="1"/>
        <pt x="441" y="112" on="0"/>
        <pt x="457" y="125" on="1"/>
        <pt x="467" y="125" on="1"/>
        <pt x="497" y="45" on="1"/>
        <pt x="473" y="29" on="0"/>
        <pt x="443" y="17" on="1"/>
        <pt x="417" y="6" on="0"/>
        <pt x="346" y="-10" on="0"/>
        <pt x="303" y="-10" on="1"/>
        <pt x="237" y="-10" on="0"/>
        <pt x="140" y="31" on="0"/>
        <pt x="83" y="118" on="0"/>
        <pt x="69" y="254" on="0"/>
      </contour>
    </TTGlyph>
    <TTGlyph name="Cacute" xMin="69" yMin="-10" xMax="595" yMax="900">
      <component glyphName=".ttfautohint" x="69" y="0" flags="0x1000"/>
      <component glyphName="C" x="0" y="0" flags="0x1204"/>
      <component glyphName="acute" x="295" y="200" flags="0x1004"/>
    </TTGlyph>
    <TTGlyph name="Ccaron" xMin="69" yMin="-10" xMax="595" yMax="900">
      <component glyphName=".ttfautohint" x="69" y="0" flags="0x1000"/>
      <component glyphName="C" x="0" y="0" flags="0x1204"/>
      <component glyphName="caron" x="167" y="200" flags="0x1004"/>
    </TTGlyph>
    <TTGlyph name="Ccedilla" xMin="69" yMin="-195" xMax="595" yMax="710">
      <component glyphName=".ttfautohint" x="69" y="0" flags="0x1000"/>
      <component glyphName="C" x="0" y="0" flags="0x1204"/>
      <component glyphName="cedilla" x="225" y="0" flags="0x1004"/>
    </TTGlyph>
    <TTGlyph name="D" xMin="60" yMin="0" xMax="601" yMax="700">
      <contour>
        <pt x="60" y="0" on="1"/>
        <pt x="183" y="700" on="1"/>
        <pt x="353" y="700" on="1"/>
        <pt x="503" y="700" on="0"/>
        <pt x="633" y="530" on="0"/>
        <pt x="601" y="350" on="1"/>
        <pt x="569" y="170" on="0"/>
        <pt x="380" y="0" on="0"/>
        <pt x="230" y="0" on="1"/>
      </contour>
      <contour>
        <pt x="245" y="90" on="1"/>
        <pt x="286" y="90" on="0"/>
        <pt x="354" y="115" on="0"/>
        <pt x="408" y="175" on="0"/>
        <pt x="448" y="275" on="0"/>
        <pt x="461" y="350" on="1"/>
        <pt x="474" y="425" on="0"/>
        <pt x="470" y="525" on="0"/>
        <pt x="437" y="585" on="0"/>
        <pt x="378" y="610" on="0"/>
        <pt x="337" y="610" on="1"/>
        <pt x="307" y="610" on="1"/>
        <pt x="215" y="90" on="1"/>
      </contour>
    </TTGlyph>
    <TTGlyph name="Dcaron" xMin="60" yMin="0" xMax="601" yMax="900">
      <component glyphName=".ttfautohint" x="60" y="0" flags="0x1000"/>
      <component glyphName="D" x="0" y="0" flags="0x1204"/>
      <component glyphName="caron" x="147" y="200" flags="0x1004"/>
    </TTGlyph>
    <TTGlyph name="Dcroat" xMin="64" yMin="0" xMax="606" yMax="700">
      <contour>
        <pt x="82" y="410" on="1"/>
        <pt x="137" y="410" on="1"/>
        <pt x="188" y="700" on="1"/>
        <pt x="358" y="700" on="1"/>
        <pt x="508" y="700" on="0"/>
        <pt x="638" y="530" on="0"/>
        <pt x="606" y="350" on="1"/>
        <pt x="574" y="170" on="0"/>
        <pt x="385" y="0" on="0"/>
        <pt x="235" y="0" on="1"/>
        <pt x="65" y="0" on="1"/>
        <pt x="119" y="310" on="1"/>
        <pt x="64" y="310" on="1"/>
      </contour>
      <contour>
        <pt x="250" y="90" on="1"/>
        <pt x="291" y="90" on="0"/>
        <pt x="359" y="115" on="0"/>
        <pt x="413" y="175" on="0"/>
        <pt x="453" y="275" on="0"/>
        <pt x="466" y="350" on="1"/>
        <pt x="479" y="425" on="0"/>
        <pt x="475" y="525" on="0"/>
        <pt x="442" y="585" on="0"/>
        <pt x="383" y="610" on="0"/>
        <pt x="342" y="610" on="1"/>
        <pt x="312" y="610" on="1"/>
        <pt x="277" y="410" on="1"/>
        <pt x="372" y="410" on="1"/>
        <pt x="354" y="310" on="1"/>
        <pt x="259" y="310" on="1"/>
        <pt x="220" y="90" on="1"/>
      </contour>
    </TTGlyph>
    <TTGlyph name="E" xMin="60" yMin="0" xMax="603" yMax="700">
      <contour>
        <pt x="60" y="0" on="1"/>
        <pt x="183" y="700" on="1"/>
        <pt x="603" y="700" on="1"/>
        <pt x="587" y="610" on="1"/>
        <pt x="307" y="610" on="1"/>
        <pt x="272" y="410" on="1"/>
        <pt x="492" y="410" on="1"/>
        <pt x="476" y="320" on="1"/>
        <pt x="256" y="320" on="1"/>
        <pt x="215" y="90" on="1"/>
        <pt x="495" y="90" on="1"/>
        <pt x="480" y="0" on="1"/>
      </contour>
    </TTGlyph>
    <TTGlyph name="Eacute" xMin="60" yMin="0" xMax="603" yMax="900">
      <component glyphName=".ttfautohint" x="60" y="0" flags="0x1000"/>
      <component glyphName="E" x="0" y="0" flags="0x1204"/>
      <component glyphName="acute" x="255" y="200" flags="0x1004"/>
    </TTGlyph>
    <TTGlyph name="Ecaron" xMin="60" yMin="0" xMax="605" yMax="900">
      <component glyphName=".ttfautohint" x="60" y="0" flags="0x1000"/>
      <component glyphName="E" x="0" y="0" flags="0x1204"/>
      <component glyphName="caron" x="177" y="200" flags="0x1004"/>
    </TTGlyph>
    <TTGlyph name="Ecircumflex" xMin="60" yMin="0" xMax="603" yMax="894">
      <component glyphName=".ttfautohint" x="60" y="0" flags="0x1000"/>
      <component glyphName="E" x="0" y="0" flags="0x1204"/>
      <component glyphName="circumflex" x="167" y="200" flags="0x1004"/>
    </TTGlyph>
    <TTGlyph name="Edieresis" xMin="60" yMin="0" xMax="603" yMax="910">
      <component glyphName=".ttfautohint" x="60" y="0" flags="0x1000"/>
      <component glyphName="E" x="0" y="0" flags="0x1204"/>
      <component glyphName="dieresis" x="157" y="200" flags="0x1004"/>
    </TTGlyph>
    <TTGlyph name="Edotaccent" xMin="51" yMin="0" xMax="594" yMax="910">
      <component glyphName=".ttfautohint" x="51" y="0" flags="0x1000"/>
      <component glyphName="E" x="-9" y="0" flags="0x1004"/>
      <component glyphName="dotaccent" x="252" y="200" flags="0x1004"/>
    </TTGlyph>
    <TTGlyph name="Egrave" xMin="60" yMin="0" xMax="603" yMax="900">
      <component glyphName=".ttfautohint" x="60" y="0" flags="0x1000"/>
      <component glyphName="E" x="0" y="0" flags="0x1204"/>
      <component glyphName="grave" x="210" y="200" flags="0x1004"/>
    </TTGlyph>
    <TTGlyph name="Emacron" xMin="51" yMin="0" xMax="594" yMax="860">
      <component glyphName=".ttfautohint" x="51" y="0" flags="0x1000"/>
      <component glyphName="E" x="-9" y="0" flags="0x1004"/>
      <component glyphName="macron" x="172" y="200" flags="0x1004"/>
    </TTGlyph>
    <TTGlyph name="Eogonek" xMin="60" yMin="-185" xMax="603" yMax="700">
      <component glyphName=".ttfautohint" x="60" y="0" flags="0x1000"/>
      <component glyphName="E" x="0" y="0" flags="0x1204"/>
      <component glyphName="ogonek" x="205" y="0" flags="0x1004"/>
    </TTGlyph>
    <TTGlyph name="Eth" xMin="64" yMin="0" xMax="606" yMax="700">
      <contour>
        <pt x="82" y="410" on="1"/>
        <pt x="137" y="410" on="1"/>
        <pt x="188" y="700" on="1"/>
        <pt x="358" y="700" on="1"/>
        <pt x="508" y="700" on="0"/>
        <pt x="638" y="530" on="0"/>
        <pt x="606" y="350" on="1"/>
        <pt x="574" y="170" on="0"/>
        <pt x="385" y="0" on="0"/>
        <pt x="235" y="0" on="1"/>
        <pt x="65" y="0" on="1"/>
        <pt x="119" y="310" on="1"/>
        <pt x="64" y="310" on="1"/>
      </contour>
      <contour>
        <pt x="250" y="90" on="1"/>
        <pt x="291" y="90" on="0"/>
        <pt x="359" y="115" on="0"/>
        <pt x="413" y="175" on="0"/>
        <pt x="453" y="275" on="0"/>
        <pt x="466" y="350" on="1"/>
        <pt x="479" y="425" on="0"/>
        <pt x="475" y="525" on="0"/>
        <pt x="442" y="585" on="0"/>
        <pt x="383" y="610" on="0"/>
        <pt x="342" y="610" on="1"/>
        <pt x="312" y="610" on="1"/>
        <pt x="277" y="410" on="1"/>
        <pt x="372" y="410" on="1"/>
        <pt x="354" y="310" on="1"/>
        <pt x="259" y="310" on="1"/>
        <pt x="220" y="90" on="1"/>
      </contour>
    </TTGlyph>
    <TTGlyph name="Euro" xMin="29" yMin="-10" xMax="625" yMax="710">
      <contour>
        <pt x="57" y="325" on="1"/>
        <pt x="112" y="325" on="1"/>
        <pt x="121" y="375" on="1"/>
        <pt x="56" y="375" on="1"/>
        <pt x="84" y="450" on="1"/>
        <pt x="139" y="450" on="1"/>
        <pt x="160" y="519" on="0"/>
        <pt x="224" y="618" on="0"/>
        <pt x="303" y="681" on="0"/>
        <pt x="397" y="710" on="0"/>
        <pt x="450" y="710" on="1"/>
        <pt x="493" y="710" on="0"/>
        <pt x="559" y="693" on="0"/>
        <pt x="581" y="682" on="1"/>
        <pt x="607" y="670" on="0"/>
        <pt x="625" y="655" on="1"/>
        <pt x="566" y="575" on="1"/>
        <pt x="556" y="575" on="1"/>
        <pt x="545" y="587" on="0"/>
        <pt x="528" y="597" on="1"/>
        <pt x="514" y="605" on="0"/>
        <pt x="472" y="620" on="0"/>
        <pt x="444" y="620" on="1"/>
        <pt x="420" y="620" on="0"/>
        <pt x="373" y="603" on="0"/>
        <pt x="330" y="564" on="0"/>
        <pt x="293" y="499" on="0"/>
        <pt x="279" y="450" on="1"/>
        <pt x="489" y="450" on="1"/>
        <pt x="461" y="375" on="1"/>
        <pt x="261" y="375" on="1"/>
        <pt x="252" y="325" on="1"/>
        <pt x="452" y="325" on="1"/>
        <pt x="424" y="250" on="1"/>
        <pt x="244" y="250" on="1"/>
        <pt x="241" y="201" on="0"/>
        <pt x="255" y="136" on="0"/>
        <pt x="286" y="97" on="0"/>
        <pt x="331" y="80" on="0"/>
        <pt x="359" y="80" on="1"/>
        <pt x="387" y="80" on="0"/>
        <pt x="434" y="94" on="0"/>
        <pt x="451" y="102" on="1"/>
        <pt x="471" y="112" on="0"/>
        <pt x="487" y="125" on="1"/>
        <pt x="497" y="125" on="1"/>
        <pt x="527" y="45" on="1"/>
        <pt x="503" y="29" on="0"/>
        <pt x="473" y="17" on="1"/>
        <pt x="447" y="6" on="0"/>
        <pt x="376" y="-10" on="0"/>
        <pt x="333" y="-10" on="1"/>
        <pt x="277" y="-10" on="0"/>
        <pt x="189" y="19" on="0"/>
        <pt x="130" y="82" on="0"/>
        <pt x="101" y="181" on="0"/>
        <pt x="104" y="250" on="1"/>
        <pt x="29" y="250" on="1"/>
      </contour>
    </TTGlyph>
    <TTGlyph name="F" xMin="60" yMin="0" xMax="603" yMax="700">
      <contour>
        <pt x="60" y="0" on="1"/>
        <pt x="183" y="700" on="1"/>
        <pt x="603" y="700" on="1"/>
        <pt x="587" y="610" on="1"/>
        <pt x="307" y="610" on="1"/>
        <pt x="270" y="400" on="1"/>
        <pt x="490" y="400" on="1"/>
        <pt x="474" y="310" on="1"/>
        <pt x="254" y="310" on="1"/>
        <pt x="200" y="0" on="1"/>
      </contour>
    </TTGlyph>
    <TTGlyph name="G" xMin="76" yMin="-10" xMax="595" yMax="710">
      <contour>
        <pt x="86" y="350" on="1"/>
        <pt x="103" y="446" on="0"/>
        <pt x="165" y="582" on="0"/>
        <pt x="251" y="669" on="0"/>
        <pt x="358" y="710" on="0"/>
        <pt x="420" y="710" on="1"/>
        <pt x="463" y="710" on="0"/>
        <pt x="529" y="693" on="0"/>
        <pt x="551" y="682" on="1"/>
        <pt x="577" y="670" on="0"/>
        <pt x="595" y="655" on="1"/>
        <pt x="536" y="575" on="1"/>
        <pt x="526" y="575" on="1"/>
        <pt x="515" y="587" on="0"/>
        <pt x="498" y="597" on="1"/>
        <pt x="484" y="605" on="0"/>
        <pt x="442" y="620" on="0"/>
        <pt x="414" y="620" on="1"/>
        <pt x="384" y="620" on="0"/>
        <pt x="328" y="595" on="0"/>
        <pt x="280" y="533" on="0"/>
        <pt x="240" y="429" on="0"/>
        <pt x="226" y="350" on="1"/>
        <pt x="212" y="271" on="0"/>
        <pt x="216" y="167" on="0"/>
        <pt x="244" y="105" on="0"/>
        <pt x="295" y="80" on="0"/>
        <pt x="329" y="80" on="1"/>
        <pt x="347" y="80" on="0"/>
        <pt x="364" y="85" on="1"/>
        <pt x="373" y="87" on="0"/>
        <pt x="380" y="90" on="1"/>
        <pt x="417" y="300" on="1"/>
        <pt x="312" y="300" on="1"/>
        <pt x="328" y="390" on="1"/>
        <pt x="533" y="390" on="1"/>
        <pt x="566" y="350" on="1"/>
        <pt x="512" y="45" on="1"/>
        <pt x="488" y="29" on="0"/>
        <pt x="456" y="17" on="1"/>
        <pt x="429" y="6" on="0"/>
        <pt x="352" y="-10" on="0"/>
        <pt x="303" y="-10" on="1"/>
        <pt x="237" y="-10" on="0"/>
        <pt x="140" y="31" on="0"/>
        <pt x="83" y="118" on="0"/>
        <pt x="69" y="254" on="0"/>
      </contour>
    </TTGlyph>
    <TTGlyph name="Gbreve" xMin="69" yMin="-10" xMax="603" yMax="890">
      <component glyphName=".ttfautohint" x="69" y="0" flags="0x1000"/>
      <component glyphName="G" x="0" y="0" flags="0x1204"/>
      <component glyphName="breve" x="175" y="190" flags="0x1004"/>
    </TTGlyph>
    <TTGlyph name="Gcommaaccent" xMin="69" yMin="-289" xMax="595" yMax="710">
      <component glyphName=".ttfautohint" x="69" y="0" flags="0x1000"/>
      <component glyphName="G" x="0" y="0" flags="0x1204"/>
      <component glyphName="commaaccent" x="249" y="-39" flags="0x1004"/>
    </TTGlyph>
    <TTGlyph name="H" xMin="60" yMin="0" xMax="673" yMax="700">
      <contour>
        <pt x="673" y="700" on="1"/>
        <pt x="550" y="0" on="1"/>
        <pt x="410" y="0" on="1"/>
        <pt x="464" y="310" on="1"/>
        <pt x="254" y="310" on="1"/>
        <pt x="200" y="0" on="1"/>
        <pt x="60" y="0" on="1"/>
        <pt x="183" y="700" on="1"/>
        <pt x="323" y="700" on="1"/>
        <pt x="270" y="400" on="1"/>
        <pt x="480" y="400" on="1"/>
        <pt x="533" y="700" on="1"/>
      </contour>
    </TTGlyph>
    <TTGlyph name="I" xMin="60" yMin="0" xMax="323" yMax="700">
      <contour>
        <pt x="183" y="700" on="1"/>
        <pt x="323" y="700" on="1"/>
        <pt x="200" y="0" on="1"/>
        <pt x="60" y="0" on="1"/>
      </contour>
    </TTGlyph>
    <TTGlyph name="Iacute" xMin="51" yMin="0" xMax="405" yMax="900">
      <component glyphName=".ttfautohint" x="51" y="0" flags="0x1000"/>
      <component glyphName="I" x="-9" y="0" flags="0x1004"/>
      <component glyphName="acute" x="117" y="200" flags="0x1004"/>
    </TTGlyph>
    <TTGlyph name="Icircumflex" xMin="51" yMin="0" xMax="413" yMax="894">
      <component glyphName=".ttfautohint" x="51" y="0" flags="0x1000"/>
      <component glyphName="I" x="-9" y="0" flags="0x1004"/>
      <component glyphName="circumflex" x="10" y="200" flags="0x1004"/>
    </TTGlyph>
    <TTGlyph name="Idieresis" xMin="60" yMin="0" xMax="442" yMax="910">
      <component glyphName=".ttfautohint" x="60" y="0" flags="0x1000"/>
      <component glyphName="I" x="0" y="0" flags="0x1204"/>
      <component glyphName="dieresis" x="10" y="200" flags="0x1004"/>
    </TTGlyph>
    <TTGlyph name="Idotaccent" xMin="56" yMin="0" xMax="346" yMax="910">
      <component glyphName=".ttfautohint" x="56" y="0" flags="0x1000"/>
      <component glyphName="I" x="-4" y="0" flags="0x1004"/>
      <component glyphName="dotaccent" x="100" y="200" flags="0x1004"/>
    </TTGlyph>
    <TTGlyph name="Igrave" xMin="49" yMin="0" xMax="312" yMax="900">
      <component glyphName=".ttfautohint" x="49" y="0" flags="0x1000"/>
      <component glyphName="I" x="-11" y="0" flags="0x1004"/>
      <component glyphName="grave" x="40" y="200" flags="0x1004"/>
    </TTGlyph>
    <TTGlyph name="Imacron" xMin="56" yMin="0" xMax="419" yMax="850">
      <component glyphName=".ttfautohint" x="56" y="0" flags="0x1000"/>
      <component glyphName="I" x="-4" y="0" flags="0x1004"/>
      <component glyphName="macron" x="28" y="190" flags="0x1004"/>
    </TTGlyph>
    <TTGlyph name="Iogonek" xMin="21" yMin="-185" xMax="328" yMax="700">
      <component glyphName=".ttfautohint" x="21" y="0" flags="0x1000"/>
      <component glyphName="I" x="5" y="0" flags="0x1004"/>
      <component glyphName="ogonek" x="60" y="0" flags="0x1004"/>
    </TTGlyph>
    <TTGlyph name="Itilde" xMin="60" yMin="0" xMax="435" yMax="920">
      <component glyphName=".ttfautohint" x="60" y="0" flags="0x1000"/>
      <component glyphName="I" x="0" y="0" flags="0x1004"/>
      <component glyphName="tilde" x="20" y="200" flags="0x1004"/>
    </TTGlyph>
    <TTGlyph name="J" xMin="-19" yMin="-10" xMax="473" yMax="700">
      <contour>
        <pt x="129" y="80" on="1"/>
        <pt x="174" y="80" on="0"/>
        <pt x="233" y="133" on="0"/>
        <pt x="243" y="190" on="1"/>
        <pt x="333" y="700" on="1"/>
        <pt x="473" y="700" on="1"/>
        <pt x="383" y="190" on="1"/>
        <pt x="367" y="100" on="0"/>
        <pt x="232" y="-10" on="0"/>
        <pt x="123" y="-10" on="1"/>
        <pt x="93" y="-10" on="0"/>
        <pt x="41" y="4" on="0"/>
        <pt x="22" y="12" on="1"/>
        <pt x="-1" y="22" on="0"/>
        <pt x="-19" y="35" on="1"/>
        <pt x="36" y="120" on="1"/>
        <pt x="46" y="120" on="1"/>
        <pt x="58" y="109" on="0"/>
        <pt x="71" y="100" on="1"/>
        <pt x="82" y="92" on="0"/>
        <pt x="112" y="80" on="0"/>
      </contour>
    </TTGlyph>
    <TTGlyph name="Jcircumflex" xMin="-19" yMin="-10" xMax="564" yMax="874">
      <component glyphName=".ttfautohint" x="0" y="0" flags="0x1000"/>
      <component glyphName="J" x="0" y="0" flags="0x1204"/>
      <component glyphName="circumflex" x="161" y="180" flags="0x1004"/>
    </TTGlyph>
    <TTGlyph name="K" xMin="60" yMin="0" xMax="663" yMax="700">
      <contour>
        <pt x="555" y="0" on="1"/>
        <pt x="395" y="0" on="1"/>
        <pt x="258" y="330" on="1"/>
        <pt x="200" y="0" on="1"/>
        <pt x="60" y="0" on="1"/>
        <pt x="183" y="700" on="1"/>
        <pt x="323" y="700" on="1"/>
        <pt x="268" y="390" on="1"/>
        <pt x="508" y="700" on="1"/>
        <pt x="663" y="700" on="1"/>
        <pt x="394" y="365" on="1"/>
      </contour>
    </TTGlyph>
    <TTGlyph name="Kcommaaccent" xMin="60" yMin="-240" xMax="663" yMax="700">
      <component glyphName=".ttfautohint" x="60" y="0" flags="0x1000"/>
      <component glyphName="K" x="0" y="0" flags="0x1204"/>
      <component glyphName="commaaccent" x="243" y="10" flags="0x1004"/>
    </TTGlyph>
    <TTGlyph name="L" xMin="60" yMin="0" xMax="485" yMax="700">
      <contour>
        <pt x="323" y="700" on="1"/>
        <pt x="215" y="90" on="1"/>
        <pt x="485" y="90" on="1"/>
        <pt x="470" y="0" on="1"/>
        <pt x="60" y="0" on="1"/>
        <pt x="183" y="700" on="1"/>
      </contour>
    </TTGlyph>
    <TTGlyph name="Lacute" xMin="60" yMin="0" xMax="485" yMax="900">
      <component glyphName=".ttfautohint" x="60" y="0" flags="0x1000"/>
      <component glyphName="L" x="0" y="0" flags="0x1204"/>
      <component glyphName="acute" x="145" y="200" flags="0x1004"/>
    </TTGlyph>
    <TTGlyph name="Lcaron" xMin="60" yMin="0" xMax="495" yMax="700">
      <contour>
        <pt x="366" y="635" on="1"/>
        <pt x="371" y="663" on="0"/>
        <pt x="414" y="700" on="0"/>
        <pt x="438" y="700" on="1"/>
        <pt x="470" y="700" on="0"/>
        <pt x="501" y="660" on="0"/>
        <pt x="495" y="625" on="1"/>
        <pt x="487" y="581" on="0"/>
        <pt x="450" y="519" on="0"/>
        <pt x="430" y="499" on="1"/>
        <pt x="407" y="475" on="0"/>
        <pt x="381" y="460" on="1"/>
        <pt x="357" y="494" on="1"/>
        <pt x="374" y="505" on="0"/>
        <pt x="388" y="518" on="1"/>
        <pt x="400" y="529" on="0"/>
        <pt x="423" y="558" on="0"/>
        <pt x="426" y="575" on="1"/>
        <pt x="394" y="575" on="0"/>
        <pt x="362" y="611" on="0"/>
      </contour>
      <contour>
        <pt x="323" y="700" on="1"/>
        <pt x="215" y="90" on="1"/>
        <pt x="485" y="90" on="1"/>
        <pt x="470" y="0" on="1"/>
        <pt x="60" y="0" on="1"/>
        <pt x="183" y="700" on="1"/>
      </contour>
    </TTGlyph>
    <TTGlyph name="Lcommaaccent" xMin="60" yMin="-289" xMax="485" yMax="700">
      <component glyphName=".ttfautohint" x="60" y="0" flags="0x1000"/>
      <component glyphName="L" x="0" y="0" flags="0x1204"/>
      <component glyphName="commaaccent" x="219" y="-39" flags="0x1004"/>
    </TTGlyph>
    <TTGlyph name="Lslash" xMin="47" yMin="0" xMax="490" yMax="700">
      <contour>
        <pt x="69" y="340" on="1"/>
        <pt x="132" y="380" on="1"/>
        <pt x="188" y="700" on="1"/>
        <pt x="328" y="700" on="1"/>
        <pt x="290" y="483" on="1"/>
        <pt x="391" y="550" on="1"/>
        <pt x="369" y="420" on="1"/>
        <pt x="267" y="353" on="1"/>
        <pt x="220" y="90" on="1"/>
        <pt x="490" y="90" on="1"/>
        <pt x="475" y="0" on="1"/>
        <pt x="65" y="0" on="1"/>
        <pt x="109" y="250" on="1"/>
        <pt x="47" y="210" on="1"/>
      </contour>
    </TTGlyph>
    <TTGlyph name="M" xMin="60" yMin="0" xMax="883" yMax="700">
      <contour>
        <pt x="370" y="115" on="1"/>
        <pt x="289" y="365" on="1"/>
        <pt x="281" y="389" on="0"/>
        <pt x="278" y="409" on="1"/>
        <pt x="275" y="420" on="0"/>
        <pt x="274" y="431" on="1"/>
        <pt x="270" y="431" on="1"/>
        <pt x="270" y="420" on="0"/>
        <pt x="269" y="409" on="1"/>
        <pt x="268" y="399" on="0"/>
        <pt x="266" y="376" on="0"/>
        <pt x="264" y="365" on="1"/>
        <pt x="200" y="0" on="1"/>
        <pt x="60" y="0" on="1"/>
        <pt x="183" y="700" on="1"/>
        <pt x="318" y="700" on="1"/>
        <pt x="443" y="305" on="1"/>
        <pt x="445" y="297" on="0"/>
        <pt x="449" y="280" on="0"/>
        <pt x="450" y="272" on="1"/>
        <pt x="451" y="263" on="0"/>
        <pt x="452" y="255" on="1"/>
        <pt x="456" y="255" on="1"/>
        <pt x="461" y="263" on="0"/>
        <pt x="465" y="272" on="1"/>
        <pt x="469" y="280" on="0"/>
        <pt x="478" y="297" on="0"/>
        <pt x="483" y="305" on="1"/>
        <pt x="748" y="700" on="1"/>
        <pt x="883" y="700" on="1"/>
        <pt x="760" y="0" on="1"/>
        <pt x="620" y="0" on="1"/>
        <pt x="684" y="365" on="1"/>
        <pt x="686" y="376" on="0"/>
        <pt x="692" y="399" on="0"/>
        <pt x="694" y="409" on="1"/>
        <pt x="697" y="420" on="0"/>
        <pt x="700" y="431" on="1"/>
        <pt x="696" y="431" on="1"/>
        <pt x="691" y="420" on="0"/>
        <pt x="685" y="409" on="1"/>
        <pt x="680" y="399" on="0"/>
        <pt x="667" y="376" on="0"/>
        <pt x="659" y="365" on="1"/>
        <pt x="490" y="115" on="1"/>
      </contour>
    </TTGlyph>
    <TTGlyph name="N" xMin="60" yMin="0" xMax="673" yMax="700">
      <contour>
        <pt x="439" y="310" on="1"/>
        <pt x="442" y="299" on="0"/>
        <pt x="448" y="275" on="0"/>
        <pt x="450" y="266" on="1"/>
        <pt x="453" y="255" on="0"/>
        <pt x="454" y="245" on="1"/>
        <pt x="458" y="245" on="1"/>
        <pt x="458" y="255" on="0"/>
        <pt x="459" y="266" on="1"/>
        <pt x="460" y="275" on="0"/>
        <pt x="462" y="299" on="0"/>
        <pt x="464" y="310" on="1"/>
        <pt x="533" y="700" on="1"/>
        <pt x="673" y="700" on="1"/>
        <pt x="550" y="0" on="1"/>
        <pt x="400" y="0" on="1"/>
        <pt x="293" y="390" on="1"/>
        <pt x="290" y="401" on="0"/>
        <pt x="285" y="424" on="0"/>
        <pt x="283" y="434" on="1"/>
        <pt x="280" y="445" on="0"/>
        <pt x="279" y="455" on="1"/>
        <pt x="275" y="455" on="1"/>
        <pt x="275" y="445" on="0"/>
        <pt x="274" y="434" on="1"/>
        <pt x="273" y="424" on="0"/>
        <pt x="270" y="401" on="0"/>
        <pt x="268" y="390" on="1"/>
        <pt x="200" y="0" on="1"/>
        <pt x="60" y="0" on="1"/>
        <pt x="183" y="700" on="1"/>
        <pt x="333" y="700" on="1"/>
      </contour>
    </TTGlyph>
    <TTGlyph name="Nacute" xMin="60" yMin="0" xMax="673" yMax="890">
      <component glyphName=".ttfautohint" x="60" y="0" flags="0x1000"/>
      <component glyphName="N" x="0" y="0" flags="0x1204"/>
      <component glyphName="acute" x="290" y="190" flags="0x1004"/>
    </TTGlyph>
    <TTGlyph name="Ncaron" xMin="60" yMin="0" xMax="673" yMax="890">
      <component glyphName=".ttfautohint" x="60" y="0" flags="0x1000"/>
      <component glyphName="N" x="0" y="0" flags="0x1204"/>
      <component glyphName="caron" x="193" y="190" flags="0x1004"/>
    </TTGlyph>
    <TTGlyph name="Ncommaaccent" xMin="60" yMin="-240" xMax="673" yMax="700">
      <component glyphName=".ttfautohint" x="60" y="0" flags="0x1000"/>
      <component glyphName="N" x="0" y="0" flags="0x1204"/>
      <component glyphName="commaaccent" x="256" y="10" flags="0x1004"/>
    </TTGlyph>
    <TTGlyph name="Ntilde" xMin="51" yMin="0" xMax="664" yMax="890">
      <component glyphName=".ttfautohint" x="51" y="0" flags="0x1000"/>
      <component glyphName="N" x="-9" y="0" flags="0x1004"/>
      <component glyphName="tilde" x="179" y="170" flags="0x1004"/>
    </TTGlyph>
    <TTGlyph name="O" xMin="76" yMin="-10" xMax="626" yMax="710">
      <contour>
        <pt x="476" y="350" on="1"/>
        <pt x="490" y="429" on="0"/>
        <pt x="488" y="533" on="0"/>
        <pt x="464" y="595" on="0"/>
        <pt x="423" y="620" on="0"/>
        <pt x="399" y="620" on="1"/>
        <pt x="375" y="620" on="0"/>
        <pt x="325" y="595" on="0"/>
        <pt x="279" y="533" on="0"/>
        <pt x="240" y="429" on="0"/>
        <pt x="226" y="350" on="1"/>
        <pt x="212" y="271" on="0"/>
        <pt x="215" y="167" on="0"/>
        <pt x="239" y="105" on="0"/>
        <pt x="280" y="80" on="0"/>
        <pt x="304" y="80" on="1"/>
        <pt x="328" y="80" on="0"/>
        <pt x="378" y="105" on="0"/>
        <pt x="423" y="167" on="0"/>
        <pt x="462" y="271" on="0"/>
      </contour>
      <contour>
        <pt x="616" y="350" on="1"/>
        <pt x="599" y="254" on="0"/>
        <pt x="537" y="118" on="0"/>
        <pt x="453" y="31" on="0"/>
        <pt x="348" y="-10" on="0"/>
        <pt x="288" y="-10" on="1"/>
        <pt x="228" y="-10" on="0"/>
        <pt x="137" y="31" on="0"/>
        <pt x="83" y="118" on="0"/>
        <pt x="69" y="254" on="0"/>
        <pt x="86" y="350" on="1"/>
        <pt x="103" y="446" on="0"/>
        <pt x="165" y="582" on="0"/>
        <pt x="250" y="669" on="0"/>
        <pt x="355" y="710" on="0"/>
        <pt x="415" y="710" on="1"/>
        <pt x="475" y="710" on="0"/>
        <pt x="565" y="669" on="0"/>
        <pt x="619" y="582" on="0"/>
        <pt x="633" y="446" on="0"/>
      </contour>
    </TTGlyph>
    <TTGlyph name="OE" xMin="86" yMin="0" xMax="908" yMax="700">
      <contour>
        <pt x="452" y="610" on="1"/>
        <pt x="407" y="610" on="0"/>
        <pt x="335" y="585" on="0"/>
        <pt x="279" y="525" on="0"/>
        <pt x="239" y="425" on="0"/>
        <pt x="226" y="350" on="1"/>
        <pt x="213" y="275" on="0"/>
        <pt x="218" y="175" on="0"/>
        <pt x="252" y="115" on="0"/>
        <pt x="315" y="90" on="0"/>
        <pt x="360" y="90" on="1"/>
        <pt x="390" y="90" on="1"/>
        <pt x="482" y="610" on="1"/>
      </contour>
      <contour>
        <pt x="908" y="700" on="1"/>
        <pt x="892" y="610" on="1"/>
        <pt x="622" y="610" on="1"/>
        <pt x="587" y="410" on="1"/>
        <pt x="797" y="410" on="1"/>
        <pt x="781" y="320" on="1"/>
        <pt x="571" y="320" on="1"/>
        <pt x="530" y="90" on="1"/>
        <pt x="800" y="90" on="1"/>
        <pt x="785" y="0" on="1"/>
        <pt x="345" y="0" on="1"/>
        <pt x="187" y="0" on="0"/>
        <pt x="54" y="170" on="0"/>
        <pt x="86" y="350" on="1"/>
        <pt x="118" y="530" on="0"/>
        <pt x="310" y="700" on="0"/>
        <pt x="468" y="700" on="1"/>
      </contour>
    </TTGlyph>
    <TTGlyph name="Oacute" xMin="69" yMin="-10" xMax="626" yMax="900">
      <component glyphName=".ttfautohint" x="69" y="0" flags="0x1000"/>
      <component glyphName="O" x="0" y="0" flags="0x1204"/>
      <component glyphName="acute" x="277" y="200" flags="0x1004"/>
    </TTGlyph>
    <TTGlyph name="Ocircumflex" xMin="69" yMin="-10" xMax="626" yMax="894">
      <component glyphName=".ttfautohint" x="69" y="0" flags="0x1000"/>
      <component glyphName="O" x="0" y="0" flags="0x1204"/>
      <component glyphName="circumflex" x="180" y="200" flags="0x1004"/>
    </TTGlyph>
    <TTGlyph name="Odieresis" xMin="69" yMin="-10" xMax="626" yMax="910">
      <component glyphName=".ttfautohint" x="69" y="0" flags="0x1000"/>
      <component glyphName="O" x="0" y="0" flags="0x1204"/>
      <component glyphName="dieresis" x="170" y="200" flags="0x1004"/>
    </TTGlyph>
    <TTGlyph name="Ograve" xMin="69" yMin="-10" xMax="626" yMax="900">
      <component glyphName=".ttfautohint" x="69" y="0" flags="0x1000"/>
      <component glyphName="O" x="0" y="0" flags="0x1204"/>
      <component glyphName="grave" x="222" y="200" flags="0x1004"/>
    </TTGlyph>
    <TTGlyph name="Ohungarumlaut" xMin="69" yMin="-10" xMax="645" yMax="900">
      <component glyphName=".ttfautohint" x="69" y="0" flags="0x1000"/>
      <component glyphName="O" x="0" y="0" flags="0x1204"/>
      <component glyphName="hungarumlaut" x="227" y="200" flags="0x1004"/>
    </TTGlyph>
    <TTGlyph name="Omacron" xMin="69" yMin="-10" xMax="626" yMax="860">
      <component glyphName=".ttfautohint" x="69" y="0" flags="0x1000"/>
      <component glyphName="O" x="0" y="0" flags="0x1204"/>
      <component glyphName="macron" x="195" y="200" flags="0x1004"/>
    </TTGlyph>
    <TTGlyph name="Oslash" xMin="25" yMin="-10" xMax="678" yMax="710">
      <contour>
        <pt x="98" y="96" on="1"/>
        <pt x="78" y="140" on="0"/>
        <pt x="71" y="265" on="0"/>
        <pt x="86" y="350" on="1"/>
        <pt x="103" y="446" on="0"/>
        <pt x="165" y="582" on="0"/>
        <pt x="250" y="669" on="0"/>
        <pt x="355" y="710" on="0"/>
        <pt x="415" y="710" on="1"/>
        <pt x="494" y="710" on="0"/>
        <pt x="544" y="676" on="1"/>
        <pt x="563" y="700" on="1"/>
        <pt x="678" y="700" on="1"/>
        <pt x="604" y="604" on="1"/>
        <pt x="624" y="560" on="0"/>
        <pt x="631" y="435" on="0"/>
        <pt x="616" y="350" on="1"/>
        <pt x="599" y="254" on="0"/>
        <pt x="537" y="118" on="0"/>
        <pt x="453" y="31" on="0"/>
        <pt x="348" y="-10" on="0"/>
        <pt x="288" y="-10" on="1"/>
        <pt x="210" y="-10" on="0"/>
        <pt x="158" y="24" on="1"/>
        <pt x="140" y="0" on="1"/>
        <pt x="25" y="0" on="1"/>
      </contour>
      <contour>
        <pt x="226" y="350" on="1"/>
        <pt x="216" y="290" on="0"/>
        <pt x="214" y="246" on="1"/>
        <pt x="468" y="578" on="1"/>
        <pt x="456" y="601" on="0"/>
        <pt x="420" y="620" on="0"/>
        <pt x="399" y="620" on="1"/>
        <pt x="375" y="620" on="0"/>
        <pt x="325" y="595" on="0"/>
        <pt x="279" y="533" on="0"/>
        <pt x="240" y="429" on="0"/>
      </contour>
      <contour>
        <pt x="476" y="350" on="1"/>
        <pt x="486" y="408" on="0"/>
        <pt x="488" y="453" on="1"/>
        <pt x="233" y="122" on="1"/>
        <pt x="246" y="99" on="0"/>
        <pt x="282" y="80" on="0"/>
        <pt x="304" y="80" on="1"/>
        <pt x="328" y="80" on="0"/>
        <pt x="378" y="105" on="0"/>
        <pt x="423" y="167" on="0"/>
        <pt x="462" y="271" on="0"/>
      </contour>
    </TTGlyph>
    <TTGlyph name="Otilde" xMin="69" yMin="-10" xMax="626" yMax="900">
      <component glyphName=".ttfautohint" x="69" y="0" flags="0x1000"/>
      <component glyphName="O" x="0" y="0" flags="0x1204"/>
      <component glyphName="tilde" x="176" y="180" flags="0x1004"/>
    </TTGlyph>
    <TTGlyph name="P" xMin="60" yMin="0" xMax="611" yMax="700">
      <contour>
        <pt x="316" y="320" on="1"/>
        <pt x="384" y="320" on="0"/>
        <pt x="457" y="386" on="0"/>
        <pt x="471" y="465" on="1"/>
        <pt x="485" y="544" on="0"/>
        <pt x="435" y="610" on="0"/>
        <pt x="367" y="610" on="1"/>
        <pt x="307" y="610" on="1"/>
        <pt x="256" y="320" on="1"/>
      </contour>
      <contour>
        <pt x="240" y="230" on="1"/>
        <pt x="200" y="0" on="1"/>
        <pt x="60" y="0" on="1"/>
        <pt x="183" y="700" on="1"/>
        <pt x="383" y="700" on="1"/>
        <pt x="526" y="700" on="0"/>
        <pt x="632" y="582" on="0"/>
        <pt x="611" y="465" on="1"/>
        <pt x="591" y="348" on="0"/>
        <pt x="443" y="230" on="0"/>
        <pt x="300" y="230" on="1"/>
      </contour>
    </TTGlyph>
    <TTGlyph name="Q" xMin="75" yMin="-165" xMax="626" yMax="710">
      <contour>
        <pt x="616" y="350" on="1"/>
        <pt x="587" y="189" on="0"/>
        <pt x="454" y="22" on="0"/>
        <pt x="360" y="0" on="1"/>
        <pt x="353" y="-38" on="0"/>
        <pt x="377" y="-75" on="0"/>
        <pt x="396" y="-75" on="1"/>
        <pt x="413" y="-75" on="0"/>
        <pt x="423" y="-70" on="1"/>
        <pt x="428" y="-68" on="0"/>
        <pt x="432" y="-65" on="1"/>
        <pt x="442" y="-65" on="1"/>
        <pt x="454" y="-145" on="1"/>
        <pt x="444" y="-151" on="0"/>
        <pt x="431" y="-155" on="1"/>
        <pt x="420" y="-159" on="0"/>
        <pt x="389" y="-165" on="0"/>
        <pt x="370" y="-165" on="1"/>
        <pt x="329" y="-165" on="0"/>
        <pt x="267" y="-140" on="0"/>
        <pt x="228" y="-96" on="0"/>
        <pt x="214" y="-36" on="0"/>
        <pt x="220" y="0" on="1"/>
        <pt x="177" y="11" on="0"/>
        <pt x="114" y="63" on="0"/>
        <pt x="78" y="148" on="0"/>
        <pt x="72" y="269" on="0"/>
        <pt x="86" y="350" on="1"/>
        <pt x="103" y="446" on="0"/>
        <pt x="165" y="582" on="0"/>
        <pt x="250" y="669" on="0"/>
        <pt x="355" y="710" on="0"/>
        <pt x="415" y="710" on="1"/>
        <pt x="475" y="710" on="0"/>
        <pt x="565" y="669" on="0"/>
        <pt x="619" y="582" on="0"/>
        <pt x="633" y="446" on="0"/>
      </contour>
      <contour>
        <pt x="476" y="350" on="1"/>
        <pt x="490" y="429" on="0"/>
        <pt x="488" y="533" on="0"/>
        <pt x="464" y="595" on="0"/>
        <pt x="423" y="620" on="0"/>
        <pt x="399" y="620" on="1"/>
        <pt x="375" y="620" on="0"/>
        <pt x="325" y="595" on="0"/>
        <pt x="279" y="533" on="0"/>
        <pt x="240" y="429" on="0"/>
        <pt x="226" y="350" on="1"/>
        <pt x="212" y="271" on="0"/>
        <pt x="215" y="167" on="0"/>
        <pt x="239" y="105" on="0"/>
        <pt x="280" y="80" on="0"/>
        <pt x="304" y="80" on="1"/>
        <pt x="328" y="80" on="0"/>
        <pt x="378" y="105" on="0"/>
        <pt x="423" y="167" on="0"/>
        <pt x="462" y="271" on="0"/>
      </contour>
    </TTGlyph>
    <TTGlyph name="R" xMin="60" yMin="0" xMax="605" yMax="700">
      <contour>
        <pt x="244" y="250" on="1"/>
        <pt x="200" y="0" on="1"/>
        <pt x="60" y="0" on="1"/>
        <pt x="183" y="700" on="1"/>
        <pt x="373" y="700" on="1"/>
        <pt x="444" y="700" on="0"/>
        <pt x="541" y="670" on="0"/>
        <pt x="597" y="613" on="0"/>
        <pt x="613" y="529" on="0"/>
        <pt x="603" y="475" on="1"/>
        <pt x="592" y="413" on="0"/>
        <pt x="538" y="335" on="0"/>
        <pt x="510" y="313" on="1"/>
        <pt x="477" y="287" on="0"/>
        <pt x="438" y="275" on="1"/>
        <pt x="560" y="0" on="1"/>
        <pt x="400" y="0" on="1"/>
        <pt x="299" y="250" on="1"/>
      </contour>
      <contour>
        <pt x="309" y="340" on="1"/>
        <pt x="377" y="340" on="0"/>
        <pt x="451" y="403" on="0"/>
        <pt x="463" y="475" on="1"/>
        <pt x="476" y="547" on="0"/>
        <pt x="425" y="610" on="0"/>
        <pt x="357" y="610" on="1"/>
        <pt x="307" y="610" on="1"/>
        <pt x="259" y="340" on="1"/>
      </contour>
    </TTGlyph>
    <TTGlyph name="Racute" xMin="60" yMin="0" xMax="605" yMax="900">
      <component glyphName=".ttfautohint" x="60" y="0" flags="0x1000"/>
      <component glyphName="R" x="0" y="0" flags="0x1204"/>
      <component glyphName="acute" x="260" y="200" flags="0x1004"/>
    </TTGlyph>
    <TTGlyph name="Rcaron" xMin="60" yMin="0" xMax="605" yMax="900">
      <component glyphName=".ttfautohint" x="60" y="0" flags="0x1000"/>
      <component glyphName="R" x="0" y="0" flags="0x1204"/>
      <component glyphName="caron" x="152" y="200" flags="0x1004"/>
    </TTGlyph>
    <TTGlyph name="Rcommaaccent" xMin="51" yMin="-240" xMax="596" yMax="700">
      <component glyphName=".ttfautohint" x="51" y="0" flags="0x1000"/>
      <component glyphName="R" x="-9" y="0" flags="0x1004"/>
      <component glyphName="commaaccent" x="223" y="10" flags="0x1004"/>
    </TTGlyph>
    <TTGlyph name="S" xMin="17" yMin="-10" xMax="570" yMax="710">
      <contour>
        <pt x="375" y="710" on="1"/>
        <pt x="426" y="710" on="0"/>
        <pt x="499" y="693" on="0"/>
        <pt x="523" y="682" on="1"/>
        <pt x="551" y="670" on="0"/>
        <pt x="570" y="655" on="1"/>
        <pt x="511" y="575" on="1"/>
        <pt x="501" y="575" on="1"/>
        <pt x="489" y="587" on="0"/>
        <pt x="471" y="597" on="1"/>
        <pt x="455" y="605" on="0"/>
        <pt x="404" y="620" on="0"/>
        <pt x="369" y="620" on="1"/>
        <pt x="346" y="620" on="0"/>
        <pt x="305" y="605" on="0"/>
        <pt x="273" y="579" on="0"/>
        <pt x="251" y="547" on="0"/>
        <pt x="248" y="530" on="1"/>
        <pt x="242" y="495" on="0"/>
        <pt x="281" y="449" on="0"/>
        <pt x="345" y="411" on="0"/>
        <pt x="422" y="373" on="0"/>
        <pt x="484" y="321" on="0"/>
        <pt x="518" y="246" on="0"/>
        <pt x="508" y="190" on="1"/>
        <pt x="500" y="147" on="0"/>
        <pt x="456" y="74" on="0"/>
        <pt x="384" y="20" on="0"/>
        <pt x="285" y="-10" on="0"/>
        <pt x="223" y="-10" on="1"/>
        <pt x="168" y="-10" on="0"/>
        <pt x="91" y="6" on="0"/>
        <pt x="66" y="17" on="1"/>
        <pt x="37" y="29" on="0"/>
        <pt x="17" y="45" on="1"/>
        <pt x="77" y="125" on="1"/>
        <pt x="87" y="125" on="1"/>
        <pt x="100" y="112" on="0"/>
        <pt x="119" y="102" on="1"/>
        <pt x="136" y="94" on="0"/>
        <pt x="189" y="80" on="0"/>
        <pt x="229" y="80" on="1"/>
        <pt x="289" y="80" on="0"/>
        <pt x="358" y="135" on="0"/>
        <pt x="366" y="180" on="1"/>
        <pt x="372" y="215" on="0"/>
        <pt x="333" y="261" on="0"/>
        <pt x="269" y="299" on="0"/>
        <pt x="193" y="337" on="0"/>
        <pt x="131" y="389" on="0"/>
        <pt x="96" y="464" on="0"/>
        <pt x="106" y="520" on="1"/>
        <pt x="113" y="559" on="0"/>
        <pt x="157" y="629" on="0"/>
        <pt x="226" y="680" on="0"/>
        <pt x="319" y="710" on="0"/>
      </contour>
    </TTGlyph>
    <TTGlyph name="Sacute" xMin="17" yMin="-10" xMax="570" yMax="900">
      <component glyphName=".ttfautohint" x="17" y="0" flags="0x1000"/>
      <component glyphName="S" x="0" y="0" flags="0x1204"/>
      <component glyphName="acute" x="240" y="200" flags="0x1004"/>
    </TTGlyph>
    <TTGlyph name="Scaron" xMin="17" yMin="-10" xMax="570" yMax="900">
      <component glyphName=".ttfautohint" x="17" y="0" flags="0x1000"/>
      <component glyphName="S" x="0" y="0" flags="0x1204"/>
      <component glyphName="caron" x="132" y="200" flags="0x1004"/>
    </TTGlyph>
    <TTGlyph name="Scedilla" xMin="17" yMin="-195" xMax="570" yMax="710">
      <component glyphName=".ttfautohint" x="17" y="0" flags="0x1000"/>
      <component glyphName="S" x="0" y="0" flags="0x1204"/>
      <component glyphName="cedilla" x="180" y="0" flags="0x1004"/>
    </TTGlyph>
    <TTGlyph name="Scommaaccent" xMin="17" yMin="-284" xMax="570" yMax="710">
      <component glyphName=".ttfautohint" x="17" y="0" flags="0x1000"/>
      <component glyphName="S" x="0" y="0" flags="0x1204"/>
      <component glyphName="commaaccent" x="203" y="-34" flags="0x1004"/>
    </TTGlyph>
    <TTGlyph name="T" xMin="92" yMin="0" xMax="598" yMax="700">
      <contour>
        <pt x="160" y="0" on="1"/>
        <pt x="267" y="610" on="1"/>
        <pt x="92" y="610" on="1"/>
        <pt x="108" y="700" on="1"/>
        <pt x="598" y="700" on="1"/>
        <pt x="582" y="610" on="1"/>
        <pt x="407" y="610" on="1"/>
        <pt x="300" y="0" on="1"/>
      </contour>
    </TTGlyph>
    <TTGlyph name="Tcaron" xMin="92" yMin="0" xMax="598" yMax="900">
      <component glyphName=".ttfautohint" x="92" y="0" flags="0x1000"/>
      <component glyphName="T" x="0" y="0" flags="0x1204"/>
      <component glyphName="caron" x="120" y="200" flags="0x1004"/>
    </TTGlyph>
    <TTGlyph name="Tcommaaccent" xMin="92" yMin="-289" xMax="598" yMax="700">
      <component glyphName=".ttfautohint" x="92" y="0" flags="0x1000"/>
      <component glyphName="T" x="0" y="0" flags="0x1204"/>
      <component glyphName="commaaccent" x="172" y="-39" flags="0x1004"/>
    </TTGlyph>
    <TTGlyph name="Thorn" xMin="56" yMin="-20" xMax="642" yMax="720">
      <contour>
        <pt x="384" y="650" on="1"/>
        <pt x="457" y="650" on="0"/>
        <pt x="565" y="608" on="0"/>
        <pt x="631" y="530" on="0"/>
        <pt x="653" y="419" on="0"/>
        <pt x="641" y="350" on="1"/>
        <pt x="629" y="281" on="0"/>
        <pt x="567" y="170" on="0"/>
        <pt x="474" y="92" on="0"/>
        <pt x="351" y="50" on="0"/>
        <pt x="278" y="50" on="1"/>
        <pt x="208" y="50" on="1"/>
        <pt x="196" y="-20" on="1"/>
        <pt x="56" y="-20" on="1"/>
        <pt x="186" y="720" on="1"/>
        <pt x="326" y="720" on="1"/>
        <pt x="314" y="650" on="1"/>
      </contour>
      <contour>
        <pt x="298" y="560" on="1"/>
        <pt x="224" y="140" on="1"/>
        <pt x="294" y="140" on="1"/>
        <pt x="369" y="140" on="0"/>
        <pt x="483" y="245" on="0"/>
        <pt x="501" y="350" on="1"/>
        <pt x="510" y="402" on="0"/>
        <pt x="499" y="481" on="0"/>
        <pt x="463" y="534" on="0"/>
        <pt x="405" y="560" on="0"/>
        <pt x="368" y="560" on="1"/>
      </contour>
    </TTGlyph>
    <TTGlyph name="U" xMin="90" yMin="-10" xMax="663" yMax="700">
      <contour>
        <pt x="523" y="700" on="1"/>
        <pt x="663" y="700" on="1"/>
        <pt x="580" y="230" on="1"/>
        <pt x="560" y="117" on="0"/>
        <pt x="410" y="-10" on="0"/>
        <pt x="293" y="-10" on="1"/>
        <pt x="176" y="-10" on="0"/>
        <pt x="70" y="117" on="0"/>
        <pt x="90" y="230" on="1"/>
        <pt x="173" y="700" on="1"/>
        <pt x="313" y="700" on="1"/>
        <pt x="230" y="230" on="1"/>
        <pt x="223" y="191" on="0"/>
        <pt x="229" y="134" on="0"/>
        <pt x="251" y="97" on="0"/>
        <pt x="286" y="80" on="0"/>
        <pt x="309" y="80" on="1"/>
        <pt x="354" y="80" on="0"/>
        <pt x="426" y="151" on="0"/>
        <pt x="440" y="230" on="1"/>
      </contour>
    </TTGlyph>
    <TTGlyph name="Uacute" xMin="70" yMin="-10" xMax="663" yMax="880">
      <component glyphName=".ttfautohint" x="70" y="0" flags="0x1000"/>
      <component glyphName="U" x="0" y="0" flags="0x1204"/>
      <component glyphName="acute" x="288" y="180" flags="0x1004"/>
    </TTGlyph>
    <TTGlyph name="Ucircumflex" xMin="70" yMin="-10" xMax="663" yMax="894">
      <component glyphName=".ttfautohint" x="70" y="0" flags="0x1000"/>
      <component glyphName="U" x="0" y="0" flags="0x1204"/>
      <component glyphName="circumflex" x="185" y="200" flags="0x1004"/>
    </TTGlyph>
    <TTGlyph name="Udieresis" xMin="70" yMin="-10" xMax="663" yMax="910">
      <component glyphName=".ttfautohint" x="70" y="0" flags="0x1000"/>
      <component glyphName="U" x="0" y="0" flags="0x1204"/>
      <component glyphName="dieresis" x="175" y="200" flags="0x1004"/>
    </TTGlyph>
    <TTGlyph name="Ugrave" xMin="70" yMin="-10" xMax="663" yMax="880">
      <component glyphName=".ttfautohint" x="70" y="0" flags="0x1000"/>
      <component glyphName="U" x="0" y="0" flags="0x1204"/>
      <component glyphName="grave" x="223" y="180" flags="0x1004"/>
    </TTGlyph>
    <TTGlyph name="Uhungarumlaut" xMin="70" yMin="-10" xMax="663" yMax="890">
      <component glyphName=".ttfautohint" x="70" y="0" flags="0x1000"/>
      <component glyphName="U" x="0" y="0" flags="0x1204"/>
      <component glyphName="hungarumlaut" x="220" y="190" flags="0x1004"/>
    </TTGlyph>
    <TTGlyph name="Umacron" xMin="70" yMin="-10" xMax="663" yMax="850">
      <component glyphName=".ttfautohint" x="70" y="0" flags="0x1000"/>
      <component glyphName="U" x="0" y="0" flags="0x1204"/>
      <component glyphName="macron" x="198" y="190" flags="0x1004"/>
    </TTGlyph>
    <TTGlyph name="Uogonek" xMin="70" yMin="-185" xMax="663" yMax="700">
      <component glyphName=".ttfautohint" x="70" y="0" flags="0x1000"/>
      <component glyphName="U" x="0" y="0" flags="0x1204"/>
      <component glyphName="ogonek" x="215" y="0" flags="0x1004"/>
    </TTGlyph>
    <TTGlyph name="Uring" xMin="70" yMin="-10" xMax="663" yMax="945">
      <component glyphName=".ttfautohint" x="70" y="0" flags="0x1000"/>
      <component glyphName="U" x="0" y="0" flags="0x1204"/>
      <component glyphName="ring" x="233" y="190" flags="0x1004"/>
    </TTGlyph>
    <TTGlyph name="V" xMin="113" yMin="0" xMax="673" yMax="700">
      <contour>
        <pt x="297" y="240" on="1"/>
        <pt x="298" y="228" on="0"/>
        <pt x="298" y="202" on="0"/>
        <pt x="298" y="191" on="1"/>
        <pt x="298" y="178" on="0"/>
        <pt x="297" y="165" on="1"/>
        <pt x="301" y="165" on="1"/>
        <pt x="304" y="177" on="0"/>
        <pt x="308" y="190" on="1"/>
        <pt x="312" y="201" on="0"/>
        <pt x="321" y="228" on="0"/>
        <pt x="327" y="240" on="1"/>
        <pt x="533" y="700" on="1"/>
        <pt x="673" y="700" on="1"/>
        <pt x="350" y="0" on="1"/>
        <pt x="190" y="0" on="1"/>
        <pt x="113" y="700" on="1"/>
        <pt x="253" y="700" on="1"/>
      </contour>
    </TTGlyph>
    <TTGlyph name="W" xMin="113" yMin="0" xMax="983" yMax="700">
      <contour>
        <pt x="645" y="260" on="1"/>
        <pt x="647" y="240" on="0"/>
        <pt x="645" y="221" on="1"/>
        <pt x="644" y="210" on="0"/>
        <pt x="643" y="200" on="1"/>
        <pt x="647" y="200" on="1"/>
        <pt x="649" y="210" on="0"/>
        <pt x="652" y="221" on="1"/>
        <pt x="654" y="230" on="0"/>
        <pt x="661" y="250" on="0"/>
        <pt x="665" y="260" on="1"/>
        <pt x="843" y="700" on="1"/>
        <pt x="983" y="700" on="1"/>
        <pt x="690" y="0" on="1"/>
        <pt x="540" y="0" on="1"/>
        <pt x="511" y="435" on="1"/>
        <pt x="510" y="444" on="0"/>
        <pt x="512" y="467" on="0"/>
        <pt x="513" y="477" on="1"/>
        <pt x="514" y="488" on="0"/>
        <pt x="515" y="500" on="1"/>
        <pt x="511" y="500" on="1"/>
        <pt x="509" y="488" on="0"/>
        <pt x="505" y="477" on="1"/>
        <pt x="502" y="467" on="0"/>
        <pt x="495" y="444" on="0"/>
        <pt x="491" y="435" on="1"/>
        <pt x="310" y="0" on="1"/>
        <pt x="160" y="0" on="1"/>
        <pt x="113" y="700" on="1"/>
        <pt x="253" y="700" on="1"/>
        <pt x="275" y="260" on="1"/>
        <pt x="277" y="240" on="0"/>
        <pt x="275" y="221" on="1"/>
        <pt x="274" y="210" on="0"/>
        <pt x="273" y="200" on="1"/>
        <pt x="277" y="200" on="1"/>
        <pt x="279" y="210" on="0"/>
        <pt x="282" y="221" on="1"/>
        <pt x="284" y="230" on="0"/>
        <pt x="291" y="250" on="0"/>
        <pt x="295" y="260" on="1"/>
        <pt x="474" y="700" on="1"/>
        <pt x="622" y="700" on="1"/>
      </contour>
    </TTGlyph>
    <TTGlyph name="X" xMin="-15" yMin="0" xMax="643" yMax="700">
      <contour>
        <pt x="493" y="700" on="1"/>
        <pt x="643" y="700" on="1"/>
        <pt x="412" y="355" on="1"/>
        <pt x="525" y="0" on="1"/>
        <pt x="375" y="0" on="1"/>
        <pt x="309" y="225" on="1"/>
        <pt x="307" y="233" on="0"/>
        <pt x="306" y="248" on="0"/>
        <pt x="305" y="255" on="1"/>
        <pt x="304" y="263" on="0"/>
        <pt x="304" y="270" on="1"/>
        <pt x="300" y="270" on="1"/>
        <pt x="298" y="263" on="0"/>
        <pt x="294" y="255" on="1"/>
        <pt x="291" y="248" on="0"/>
        <pt x="284" y="233" on="0"/>
        <pt x="279" y="225" on="1"/>
        <pt x="135" y="0" on="1"/>
        <pt x="-15" y="0" on="1"/>
        <pt x="222" y="355" on="1"/>
        <pt x="113" y="700" on="1"/>
        <pt x="263" y="700" on="1"/>
        <pt x="325" y="485" on="1"/>
        <pt x="327" y="477" on="0"/>
        <pt x="328" y="462" on="0"/>
        <pt x="329" y="455" on="1"/>
        <pt x="330" y="447" on="0"/>
        <pt x="330" y="440" on="1"/>
        <pt x="334" y="440" on="1"/>
        <pt x="336" y="447" on="0"/>
        <pt x="340" y="455" on="1"/>
        <pt x="343" y="462" on="0"/>
        <pt x="350" y="477" on="0"/>
        <pt x="355" y="485" on="1"/>
      </contour>
    </TTGlyph>
    <TTGlyph name="Y" xMin="98" yMin="0" xMax="668" yMax="700">
      <contour>
        <pt x="523" y="700" on="1"/>
        <pt x="668" y="700" on="1"/>
        <pt x="370" y="230" on="1"/>
        <pt x="330" y="0" on="1"/>
        <pt x="190" y="0" on="1"/>
        <pt x="230" y="230" on="1"/>
        <pt x="98" y="700" on="1"/>
        <pt x="243" y="700" on="1"/>
        <pt x="316" y="405" on="1"/>
        <pt x="318" y="397" on="0"/>
        <pt x="319" y="382" on="0"/>
        <pt x="320" y="375" on="1"/>
        <pt x="321" y="367" on="0"/>
        <pt x="321" y="360" on="1"/>
        <pt x="325" y="360" on="1"/>
        <pt x="327" y="367" on="0"/>
        <pt x="331" y="375" on="1"/>
        <pt x="334" y="382" on="0"/>
        <pt x="341" y="397" on="0"/>
        <pt x="346" y="405" on="1"/>
      </contour>
    </TTGlyph>
    <TTGlyph name="Yacute" xMin="98" yMin="0" xMax="668" yMax="880">
      <component glyphName=".ttfautohint" x="98" y="0" flags="0x1000"/>
      <component glyphName="Y" x="0" y="0" flags="0x1204"/>
      <component glyphName="acute" x="253" y="180" flags="0x1004"/>
    </TTGlyph>
    <TTGlyph name="Ydieresis" xMin="98" yMin="0" xMax="668" yMax="910">
      <component glyphName=".ttfautohint" x="98" y="0" flags="0x1000"/>
      <component glyphName="Y" x="0" y="0" flags="0x1204"/>
      <component glyphName="dieresis" x="140" y="200" flags="0x1004"/>
    </TTGlyph>
    <TTGlyph name="Z" xMin="10" yMin="0" xMax="583" yMax="700">
      <contour>
        <pt x="10" y="0" on="1"/>
        <pt x="26" y="95" on="1"/>
        <pt x="407" y="610" on="1"/>
        <pt x="117" y="610" on="1"/>
        <pt x="133" y="700" on="1"/>
        <pt x="583" y="700" on="1"/>
        <pt x="566" y="605" on="1"/>
        <pt x="185" y="90" on="1"/>
        <pt x="480" y="90" on="1"/>
        <pt x="465" y="0" on="1"/>
      </contour>
    </TTGlyph>
    <TTGlyph name="Zacute" xMin="10" yMin="0" xMax="583" yMax="900">
      <component glyphName=".ttfautohint" x="10" y="0" flags="0x1000"/>
      <component glyphName="Z" x="0" y="0" flags="0x1204"/>
      <component glyphName="acute" x="225" y="200" flags="0x1004"/>
    </TTGlyph>
    <TTGlyph name="Zcaron" xMin="10" yMin="0" xMax="583" yMax="900">
      <component glyphName=".ttfautohint" x="10" y="0" flags="0x1000"/>
      <component glyphName="Z" x="0" y="0" flags="0x1204"/>
      <component glyphName="caron" x="127" y="200" flags="0x1004"/>
    </TTGlyph>
    <TTGlyph name="Zdotaccent" xMin="10" yMin="0" xMax="583" yMax="910">
      <component glyphName=".ttfautohint" x="10" y="0" flags="0x1000"/>
      <component glyphName="Z" x="0" y="0" flags="0x1204"/>
      <component glyphName="dotaccent" x="212" y="200" flags="0x1004"/>
    </TTGlyph>
    <TTGlyph name="a" xMin="40" yMin="-10" xMax="506" yMax="510">
      <contour>
        <pt x="366" y="320" on="1"/>
        <pt x="375" y="373" on="0"/>
        <pt x="338" y="420" on="0"/>
        <pt x="289" y="420" on="1"/>
        <pt x="264" y="420" on="0"/>
        <pt x="224" y="408" on="0"/>
        <pt x="209" y="400" on="1"/>
        <pt x="191" y="391" on="0"/>
        <pt x="177" y="380" on="1"/>
        <pt x="167" y="380" on="1"/>
        <pt x="136" y="460" on="1"/>
        <pt x="159" y="474" on="0"/>
        <pt x="187" y="485" on="1"/>
        <pt x="211" y="494" on="0"/>
        <pt x="276" y="510" on="0"/>
        <pt x="314" y="510" on="1"/>
        <pt x="368" y="510" on="0"/>
        <pt x="447" y="482" on="0"/>
        <pt x="496" y="431" on="0"/>
        <pt x="513" y="361" on="0"/>
        <pt x="506" y="320" on="1"/>
        <pt x="450" y="0" on="1"/>
        <pt x="350" y="0" on="1"/>
        <pt x="350" y="60" on="1"/>
        <pt x="345" y="60" on="1"/>
        <pt x="327" y="40" on="0"/>
        <pt x="305" y="25" on="1"/>
        <pt x="285" y="11" on="0"/>
        <pt x="232" y="-10" on="0"/>
        <pt x="198" y="-10" on="1"/>
        <pt x="108" y="-10" on="0"/>
        <pt x="28" y="77" on="0"/>
        <pt x="40" y="145" on="1"/>
        <pt x="46" y="181" on="0"/>
        <pt x="82" y="240" on="0"/>
        <pt x="144" y="282" on="0"/>
        <pt x="233" y="305" on="0"/>
        <pt x="293" y="305" on="1"/>
        <pt x="363" y="305" on="1"/>
      </contour>
      <contour>
        <pt x="347" y="215" on="1"/>
        <pt x="277" y="215" on="1"/>
        <pt x="232" y="215" on="0"/>
        <pt x="186" y="179" on="0"/>
        <pt x="180" y="145" on="1"/>
        <pt x="175" y="119" on="0"/>
        <pt x="205" y="85" on="0"/>
        <pt x="239" y="85" on="1"/>
        <pt x="258" y="85" on="0"/>
        <pt x="292" y="104" on="0"/>
        <pt x="306" y="115" on="1"/>
        <pt x="322" y="128" on="0"/>
        <pt x="335" y="145" on="1"/>
      </contour>
    </TTGlyph>
    <TTGlyph name="aacute" xMin="28" yMin="-10" xMax="506" yMax="700">
      <component glyphName=".ttfautohint" x="28" y="0" flags="0x1000"/>
      <component glyphName="a" x="0" y="0" flags="0x1204"/>
      <component glyphName="acute" x="197" y="0" flags="0x1004"/>
    </TTGlyph>
    <TTGlyph name="abreve" xMin="28" yMin="-10" xMax="526" yMax="691">
      <component glyphName=".ttfautohint" x="28" y="0" flags="0x1000"/>
      <component glyphName="a" x="0" y="0" flags="0x1204"/>
      <component glyphName="breve" x="98" y="-9" flags="0x1004"/>
    </TTGlyph>
    <TTGlyph name="acircumflex" xMin="28" yMin="-10" xMax="506" yMax="694">
      <component glyphName=".ttfautohint" x="28" y="0" flags="0x1000"/>
      <component glyphName="a" x="0" y="0" flags="0x1204"/>
      <component glyphName="circumflex" x="100" y="0" flags="0x1004"/>
    </TTGlyph>
    <TTGlyph name="acute" xMin="81" yMin="550" xMax="288" yMax="700">
      <contour>
        <pt x="288" y="700" on="1"/>
        <pt x="161" y="550" on="1"/>
        <pt x="81" y="550" on="1"/>
        <pt x="153" y="700" on="1"/>
      </contour>
    </TTGlyph>
    <TTGlyph name="adieresis" xMin="28" yMin="-10" xMax="522" yMax="710">
      <component glyphName=".ttfautohint" x="28" y="0" flags="0x1000"/>
      <component glyphName="a" x="0" y="0" flags="0x1204"/>
      <component glyphName="dieresis" x="90" y="0" flags="0x1004"/>
    </TTGlyph>
    <TTGlyph name="ae" xMin="40" yMin="-10" xMax="795" yMax="510">
      <contour>
        <pt x="558" y="-10" on="1"/>
        <pt x="522" y="-10" on="0"/>
        <pt x="466" y="3" on="0"/>
        <pt x="424" y="24" on="0"/>
        <pt x="394" y="50" on="0"/>
        <pt x="385" y="62" on="1"/>
        <pt x="372" y="50" on="0"/>
        <pt x="335" y="24" on="0"/>
        <pt x="289" y="3" on="0"/>
        <pt x="232" y="-10" on="0"/>
        <pt x="198" y="-10" on="1"/>
        <pt x="108" y="-10" on="0"/>
        <pt x="28" y="77" on="0"/>
        <pt x="40" y="145" on="1"/>
        <pt x="46" y="181" on="0"/>
        <pt x="82" y="240" on="0"/>
        <pt x="144" y="282" on="0"/>
        <pt x="233" y="305" on="0"/>
        <pt x="293" y="305" on="1"/>
        <pt x="363" y="305" on="1"/>
        <pt x="366" y="320" on="1"/>
        <pt x="375" y="373" on="0"/>
        <pt x="338" y="420" on="0"/>
        <pt x="289" y="420" on="1"/>
        <pt x="264" y="420" on="0"/>
        <pt x="224" y="408" on="0"/>
        <pt x="209" y="400" on="1"/>
        <pt x="191" y="391" on="0"/>
        <pt x="177" y="380" on="1"/>
        <pt x="167" y="380" on="1"/>
        <pt x="136" y="460" on="1"/>
        <pt x="159" y="474" on="0"/>
        <pt x="187" y="485" on="1"/>
        <pt x="211" y="494" on="0"/>
        <pt x="276" y="510" on="0"/>
        <pt x="314" y="510" on="1"/>
        <pt x="346" y="510" on="0"/>
        <pt x="394" y="500" on="0"/>
        <pt x="429" y="483" on="0"/>
        <pt x="455" y="461" on="0"/>
        <pt x="464" y="450" on="1"/>
        <pt x="490" y="473" on="0"/>
        <pt x="566" y="510" on="0"/>
        <pt x="619" y="510" on="1"/>
        <pt x="720" y="510" on="0"/>
        <pt x="817" y="384" on="0"/>
        <pt x="795" y="260" on="1"/>
        <pt x="791" y="235" on="1"/>
        <pt x="756" y="205" on="1"/>
        <pt x="486" y="205" on="1"/>
        <pt x="464" y="80" on="0"/>
        <pt x="584" y="80" on="1"/>
        <pt x="608" y="80" on="0"/>
        <pt x="649" y="92" on="0"/>
        <pt x="664" y="100" on="1"/>
        <pt x="682" y="109" on="0"/>
        <pt x="696" y="120" on="1"/>
        <pt x="706" y="120" on="1"/>
        <pt x="737" y="40" on="1"/>
        <pt x="713" y="26" on="0"/>
        <pt x="685" y="15" on="1"/>
        <pt x="661" y="5" on="0"/>
        <pt x="596" y="-10" on="0"/>
      </contour>
      <contour>
        <pt x="347" y="215" on="1"/>
        <pt x="277" y="215" on="1"/>
        <pt x="232" y="215" on="0"/>
        <pt x="186" y="179" on="0"/>
        <pt x="180" y="145" on="1"/>
        <pt x="175" y="119" on="0"/>
        <pt x="205" y="85" on="0"/>
        <pt x="239" y="85" on="1"/>
        <pt x="258" y="85" on="0"/>
        <pt x="292" y="104" on="0"/>
        <pt x="306" y="115" on="1"/>
        <pt x="322" y="128" on="0"/>
        <pt x="335" y="145" on="1"/>
      </contour>
      <contour>
        <pt x="604" y="420" on="1"/>
        <pt x="589" y="420" on="0"/>
        <pt x="558" y="405" on="0"/>
        <pt x="530" y="374" on="0"/>
        <pt x="508" y="327" on="0"/>
        <pt x="502" y="295" on="1"/>
        <pt x="662" y="295" on="1"/>
        <pt x="673" y="359" on="0"/>
        <pt x="634" y="420" on="0"/>
      </contour>
    </TTGlyph>
    <TTGlyph name="afii10017" xMin="-10" yMin="0" xMax="560" yMax="700">
      <contour>
        <pt x="403" y="160" on="1"/>
        <pt x="203" y="160" on="1"/>
        <pt x="130" y="0" on="1"/>
        <pt x="-10" y="0" on="1"/>
        <pt x="318" y="700" on="1"/>
        <pt x="478" y="700" on="1"/>
        <pt x="560" y="0" on="1"/>
        <pt x="420" y="0" on="1"/>
      </contour>
      <contour>
        <pt x="244" y="250" on="1"/>
        <pt x="394" y="250" on="1"/>
        <pt x="371" y="460" on="1"/>
        <pt x="369" y="472" on="0"/>
        <pt x="368" y="498" on="0"/>
        <pt x="369" y="509" on="1"/>
        <pt x="369" y="522" on="0"/>
        <pt x="371" y="535" on="1"/>
        <pt x="367" y="535" on="1"/>
        <pt x="363" y="522" on="0"/>
        <pt x="359" y="509" on="1"/>
        <pt x="351" y="485" on="0"/>
        <pt x="341" y="460" on="1"/>
      </contour>
    </TTGlyph>
    <TTGlyph name="afii10018" xMin="60" yMin="0" xMax="603" yMax="700">
      <contour>
        <pt x="340" y="430" on="1"/>
        <pt x="411" y="430" on="0"/>
        <pt x="508" y="398" on="0"/>
        <pt x="563" y="341" on="0"/>
        <pt x="580" y="262" on="0"/>
        <pt x="572" y="215" on="1"/>
        <pt x="555" y="114" on="0"/>
        <pt x="407" y="0" on="0"/>
        <pt x="265" y="0" on="1"/>
        <pt x="60" y="0" on="1"/>
        <pt x="183" y="700" on="1"/>
        <pt x="603" y="700" on="1"/>
        <pt x="587" y="610" on="1"/>
        <pt x="307" y="610" on="1"/>
        <pt x="275" y="430" on="1"/>
      </contour>
      <contour>
        <pt x="259" y="340" on="1"/>
        <pt x="215" y="90" on="1"/>
        <pt x="280" y="90" on="1"/>
        <pt x="348" y="90" on="0"/>
        <pt x="421" y="151" on="0"/>
        <pt x="432" y="215" on="1"/>
        <pt x="443" y="279" on="0"/>
        <pt x="392" y="340" on="0"/>
        <pt x="324" y="340" on="1"/>
      </contour>
    </TTGlyph>
    <TTGlyph name="afii10019" xMin="60" yMin="0" xMax="601" yMax="700">
      <contour>
        <pt x="450" y="370" on="1"/>
        <pt x="491" y="362" on="0"/>
        <pt x="520" y="341" on="1"/>
        <pt x="532" y="332" on="0"/>
        <pt x="554" y="306" on="0"/>
        <pt x="569" y="270" on="0"/>
        <pt x="574" y="224" on="0"/>
        <pt x="569" y="195" on="1"/>
        <pt x="561" y="150" on="0"/>
        <pt x="519" y="78" on="0"/>
        <pt x="447" y="27" on="0"/>
        <pt x="341" y="0" on="0"/>
        <pt x="270" y="0" on="1"/>
        <pt x="60" y="0" on="1"/>
        <pt x="183" y="700" on="1"/>
        <pt x="393" y="700" on="1"/>
        <pt x="455" y="700" on="0"/>
        <pt x="541" y="673" on="0"/>
        <pt x="591" y="625" on="0"/>
        <pt x="608" y="559" on="0"/>
        <pt x="601" y="520" on="1"/>
        <pt x="592" y="471" on="0"/>
        <pt x="543" y="412" on="0"/>
        <pt x="517" y="396" on="1"/>
        <pt x="486" y="378" on="0"/>
      </contour>
      <contour>
        <pt x="272" y="410" on="1"/>
        <pt x="342" y="410" on="1"/>
        <pt x="387" y="410" on="0"/>
        <pt x="451" y="465" on="0"/>
        <pt x="459" y="510" on="1"/>
        <pt x="467" y="555" on="0"/>
        <pt x="422" y="610" on="0"/>
        <pt x="377" y="610" on="1"/>
        <pt x="307" y="610" on="1"/>
      </contour>
      <contour>
        <pt x="256" y="320" on="1"/>
        <pt x="215" y="90" on="1"/>
        <pt x="285" y="90" on="1"/>
        <pt x="410" y="90" on="0"/>
        <pt x="431" y="205" on="1"/>
        <pt x="451" y="320" on="0"/>
        <pt x="326" y="320" on="1"/>
      </contour>
    </TTGlyph>
    <TTGlyph name="afii10020" xMin="60" yMin="0" xMax="603" yMax="700">
      <contour>
        <pt x="60" y="0" on="1"/>
        <pt x="183" y="700" on="1"/>
        <pt x="603" y="700" on="1"/>
        <pt x="587" y="610" on="1"/>
        <pt x="307" y="610" on="1"/>
        <pt x="200" y="0" on="1"/>
      </contour>
    </TTGlyph>
    <TTGlyph name="afii10021" xMin="-46" yMin="-150" xMax="648" yMax="700">
      <contour>
        <pt x="648" y="700" on="1"/>
        <pt x="540" y="90" on="1"/>
        <pt x="605" y="90" on="1"/>
        <pt x="563" y="-150" on="1"/>
        <pt x="458" y="-150" on="1"/>
        <pt x="465" y="0" on="1"/>
        <pt x="110" y="0" on="1"/>
        <pt x="63" y="-150" on="1"/>
        <pt x="-46" y="-150" on="1"/>
        <pt x="-5" y="90" on="1"/>
        <pt x="45" y="90" on="1"/>
        <pt x="61" y="103" on="0"/>
        <pt x="76" y="124" on="1"/>
        <pt x="89" y="142" on="0"/>
        <pt x="117" y="198" on="0"/>
        <pt x="127" y="240" on="1"/>
        <pt x="233" y="700" on="1"/>
      </contour>
      <contour>
        <pt x="400" y="90" on="1"/>
        <pt x="492" y="610" on="1"/>
        <pt x="347" y="610" on="1"/>
        <pt x="262" y="240" on="1"/>
        <pt x="252" y="198" on="0"/>
        <pt x="224" y="142" on="0"/>
        <pt x="211" y="124" on="1"/>
        <pt x="196" y="103" on="0"/>
        <pt x="180" y="90" on="1"/>
      </contour>
    </TTGlyph>
    <TTGlyph name="afii10022" xMin="60" yMin="0" xMax="603" yMax="700">
      <contour>
        <pt x="60" y="0" on="1"/>
        <pt x="183" y="700" on="1"/>
        <pt x="603" y="700" on="1"/>
        <pt x="587" y="610" on="1"/>
        <pt x="307" y="610" on="1"/>
        <pt x="272" y="410" on="1"/>
        <pt x="492" y="410" on="1"/>
        <pt x="476" y="320" on="1"/>
        <pt x="256" y="320" on="1"/>
        <pt x="215" y="90" on="1"/>
        <pt x="495" y="90" on="1"/>
        <pt x="480" y="0" on="1"/>
      </contour>
    </TTGlyph>
    <TTGlyph name="afii10023" xMin="60" yMin="0" xMax="603" yMax="905">
      <contour>
        <pt x="60" y="0" on="1"/>
        <pt x="183" y="700" on="1"/>
        <pt x="603" y="700" on="1"/>
        <pt x="587" y="610" on="1"/>
        <pt x="307" y="610" on="1"/>
        <pt x="272" y="410" on="1"/>
        <pt x="492" y="410" on="1"/>
        <pt x="476" y="320" on="1"/>
        <pt x="256" y="320" on="1"/>
        <pt x="215" y="90" on="1"/>
        <pt x="495" y="90" on="1"/>
        <pt x="480" y="0" on="1"/>
      </contour>
      <contour>
        <pt x="334" y="905" on="1"/>
        <pt x="362" y="905" on="0"/>
        <pt x="397" y="863" on="0"/>
        <pt x="392" y="835" on="1"/>
        <pt x="389" y="821" on="0"/>
        <pt x="373" y="796" on="0"/>
        <pt x="350" y="776" on="0"/>
        <pt x="323" y="765" on="0"/>
        <pt x="309" y="765" on="1"/>
        <pt x="281" y="765" on="0"/>
        <pt x="247" y="807" on="0"/>
        <pt x="252" y="835" on="1"/>
        <pt x="254" y="849" on="0"/>
        <pt x="270" y="874" on="0"/>
        <pt x="293" y="894" on="0"/>
        <pt x="320" y="905" on="0"/>
      </contour>
      <contour>
        <pt x="529" y="905" on="1"/>
        <pt x="557" y="905" on="0"/>
        <pt x="592" y="863" on="0"/>
        <pt x="587" y="835" on="1"/>
        <pt x="584" y="821" on="0"/>
        <pt x="568" y="796" on="0"/>
        <pt x="545" y="776" on="0"/>
        <pt x="518" y="765" on="0"/>
        <pt x="504" y="765" on="1"/>
        <pt x="476" y="765" on="0"/>
        <pt x="442" y="807" on="0"/>
        <pt x="447" y="835" on="1"/>
        <pt x="449" y="849" on="0"/>
        <pt x="465" y="874" on="0"/>
        <pt x="488" y="894" on="0"/>
        <pt x="515" y="905" on="0"/>
      </contour>
    </TTGlyph>
    <TTGlyph name="afii10024" xMin="0" yMin="-10" xMax="957" yMax="710">
      <contour>
        <pt x="426" y="405" on="1"/>
        <pt x="478" y="700" on="1"/>
        <pt x="618" y="700" on="1"/>
        <pt x="566" y="405" on="1"/>
        <pt x="586" y="405" on="1"/>
        <pt x="624" y="405" on="0"/>
        <pt x="663" y="437" on="0"/>
        <pt x="678" y="475" on="1"/>
        <pt x="732" y="610" on="1"/>
        <pt x="749" y="652" on="0"/>
        <pt x="822" y="710" on="0"/>
        <pt x="875" y="710" on="1"/>
        <pt x="894" y="710" on="0"/>
        <pt x="924" y="705" on="0"/>
        <pt x="935" y="702" on="1"/>
        <pt x="947" y="698" on="0"/>
        <pt x="957" y="695" on="1"/>
        <pt x="933" y="615" on="1"/>
        <pt x="928" y="615" on="1"/>
        <pt x="922" y="617" on="1"/>
        <pt x="919" y="618" on="0"/>
        <pt x="913" y="620" on="0"/>
        <pt x="909" y="620" on="1"/>
        <pt x="881" y="620" on="0"/>
        <pt x="868" y="585" on="1"/>
        <pt x="822" y="470" on="1"/>
        <pt x="808" y="435" on="0"/>
        <pt x="767" y="394" on="0"/>
        <pt x="747" y="383" on="1"/>
        <pt x="724" y="370" on="0"/>
        <pt x="699" y="365" on="1"/>
        <pt x="725" y="360" on="0"/>
        <pt x="745" y="346" on="1"/>
        <pt x="762" y="334" on="0"/>
        <pt x="792" y="290" on="0"/>
        <pt x="794" y="255" on="1"/>
        <pt x="800" y="115" on="1"/>
        <pt x="800" y="80" on="0"/>
        <pt x="830" y="80" on="1"/>
        <pt x="835" y="80" on="0"/>
        <pt x="843" y="82" on="1"/>
        <pt x="846" y="83" on="0"/>
        <pt x="849" y="85" on="1"/>
        <pt x="854" y="85" on="1"/>
        <pt x="850" y="5" on="1"/>
        <pt x="840" y="1" on="0"/>
        <pt x="827" y="-3" on="1"/>
        <pt x="816" y="-6" on="0"/>
        <pt x="783" y="-10" on="0"/>
        <pt x="763" y="-10" on="1"/>
        <pt x="710" y="-10" on="0"/>
        <pt x="657" y="48" on="0"/>
        <pt x="655" y="90" on="1"/>
        <pt x="649" y="250" on="1"/>
        <pt x="647" y="284" on="0"/>
        <pt x="619" y="315" on="0"/>
        <pt x="585" y="315" on="1"/>
        <pt x="550" y="315" on="1"/>
        <pt x="495" y="0" on="1"/>
        <pt x="355" y="0" on="1"/>
        <pt x="410" y="315" on="1"/>
        <pt x="375" y="315" on="1"/>
        <pt x="341" y="315" on="0"/>
        <pt x="303" y="284" on="0"/>
        <pt x="289" y="250" on="1"/>
        <pt x="225" y="90" on="1"/>
        <pt x="209" y="48" on="0"/>
        <pt x="136" y="-10" on="0"/>
        <pt x="83" y="-10" on="1"/>
        <pt x="62" y="-10" on="0"/>
        <pt x="32" y="-6" on="0"/>
        <pt x="21" y="-3" on="1"/>
        <pt x="9" y="1" on="0"/>
        <pt x="0" y="5" on="1"/>
        <pt x="24" y="85" on="1"/>
        <pt x="29" y="85" on="1"/>
        <pt x="31" y="83" on="0"/>
        <pt x="35" y="82" on="1"/>
        <pt x="41" y="80" on="0"/>
        <pt x="48" y="80" on="1"/>
        <pt x="64" y="80" on="0"/>
        <pt x="82" y="96" on="0"/>
        <pt x="90" y="115" on="1"/>
        <pt x="144" y="255" on="1"/>
        <pt x="158" y="290" on="0"/>
        <pt x="203" y="334" on="0"/>
        <pt x="225" y="346" on="1"/>
        <pt x="251" y="360" on="0"/>
        <pt x="279" y="365" on="1"/>
        <pt x="255" y="370" on="0"/>
        <pt x="237" y="383" on="1"/>
        <pt x="221" y="394" on="0"/>
        <pt x="194" y="435" on="0"/>
        <pt x="192" y="470" on="1"/>
        <pt x="188" y="585" on="1"/>
        <pt x="187" y="620" on="0"/>
        <pt x="159" y="620" on="1"/>
        <pt x="155" y="620" on="0"/>
        <pt x="148" y="618" on="0"/>
        <pt x="145" y="617" on="1"/>
        <pt x="141" y="616" on="0"/>
        <pt x="138" y="615" on="1"/>
        <pt x="133" y="615" on="1"/>
        <pt x="137" y="695" on="1"/>
        <pt x="148" y="698" on="0"/>
        <pt x="162" y="702" on="1"/>
        <pt x="174" y="705" on="0"/>
        <pt x="206" y="710" on="0"/>
        <pt x="225" y="710" on="1"/>
        <pt x="278" y="710" on="0"/>
        <pt x="330" y="652" on="0"/>
        <pt x="332" y="610" on="1"/>
        <pt x="338" y="475" on="1"/>
        <pt x="340" y="437" on="0"/>
        <pt x="368" y="405" on="0"/>
        <pt x="406" y="405" on="1"/>
      </contour>
    </TTGlyph>
    <TTGlyph name="afii10025" xMin="-3" yMin="-10" xMax="542" yMax="710">
      <contour>
        <pt x="325" y="710" on="1"/>
        <pt x="389" y="710" on="0"/>
        <pt x="478" y="682" on="0"/>
        <pt x="531" y="632" on="0"/>
        <pt x="549" y="564" on="0"/>
        <pt x="542" y="525" on="1"/>
        <pt x="533" y="474" on="0"/>
        <pt x="480" y="414" on="0"/>
        <pt x="452" y="397" on="1"/>
        <pt x="419" y="378" on="0"/>
        <pt x="380" y="370" on="1"/>
        <pt x="420" y="362" on="0"/>
        <pt x="449" y="340" on="1"/>
        <pt x="474" y="321" on="0"/>
        <pt x="508" y="250" on="0"/>
        <pt x="498" y="190" on="1"/>
        <pt x="490" y="145" on="0"/>
        <pt x="446" y="71" on="0"/>
        <pt x="371" y="19" on="0"/>
        <pt x="264" y="-10" on="0"/>
        <pt x="193" y="-10" on="1"/>
        <pt x="142" y="-10" on="0"/>
        <pt x="68" y="6" on="0"/>
        <pt x="44" y="17" on="1"/>
        <pt x="16" y="29" on="0"/>
        <pt x="-3" y="45" on="1"/>
        <pt x="57" y="125" on="1"/>
        <pt x="67" y="125" on="1"/>
        <pt x="79" y="112" on="0"/>
        <pt x="97" y="102" on="1"/>
        <pt x="113" y="94" on="0"/>
        <pt x="163" y="80" on="0"/>
        <pt x="199" y="80" on="1"/>
        <pt x="274" y="80" on="0"/>
        <pt x="349" y="140" on="0"/>
        <pt x="360" y="200" on="1"/>
        <pt x="371" y="260" on="0"/>
        <pt x="319" y="320" on="0"/>
        <pt x="251" y="320" on="1"/>
        <pt x="156" y="320" on="1"/>
        <pt x="172" y="410" on="1"/>
        <pt x="267" y="410" on="1"/>
        <pt x="324" y="410" on="0"/>
        <pt x="392" y="466" on="0"/>
        <pt x="400" y="515" on="1"/>
        <pt x="409" y="564" on="0"/>
        <pt x="363" y="620" on="0"/>
        <pt x="299" y="620" on="1"/>
        <pt x="267" y="620" on="0"/>
        <pt x="216" y="605" on="0"/>
        <pt x="198" y="597" on="1"/>
        <pt x="177" y="587" on="0"/>
        <pt x="161" y="575" on="1"/>
        <pt x="151" y="575" on="1"/>
        <pt x="120" y="655" on="1"/>
        <pt x="144" y="670" on="0"/>
        <pt x="176" y="682" on="1"/>
        <pt x="203" y="693" on="0"/>
        <pt x="277" y="710" on="0"/>
      </contour>
    </TTGlyph>
    <TTGlyph name="afii10026" xMin="60" yMin="0" xMax="673" yMax="700">
      <contour>
        <pt x="479" y="395" on="1"/>
        <pt x="481" y="406" on="0"/>
        <pt x="486" y="429" on="0"/>
        <pt x="489" y="439" on="1"/>
        <pt x="493" y="450" on="0"/>
        <pt x="496" y="461" on="1"/>
        <pt x="492" y="461" on="1"/>
        <pt x="486" y="450" on="0"/>
        <pt x="480" y="439" on="1"/>
        <pt x="475" y="429" on="0"/>
        <pt x="462" y="406" on="0"/>
        <pt x="454" y="395" on="1"/>
        <pt x="195" y="0" on="1"/>
        <pt x="60" y="0" on="1"/>
        <pt x="183" y="700" on="1"/>
        <pt x="323" y="700" on="1"/>
        <pt x="253" y="305" on="1"/>
        <pt x="251" y="294" on="0"/>
        <pt x="245" y="271" on="0"/>
        <pt x="243" y="261" on="1"/>
        <pt x="240" y="250" on="0"/>
        <pt x="237" y="239" on="1"/>
        <pt x="241" y="239" on="1"/>
        <pt x="246" y="250" on="0"/>
        <pt x="252" y="261" on="1"/>
        <pt x="257" y="271" on="0"/>
        <pt x="270" y="294" on="0"/>
        <pt x="278" y="305" on="1"/>
        <pt x="538" y="700" on="1"/>
        <pt x="673" y="700" on="1"/>
        <pt x="550" y="0" on="1"/>
        <pt x="410" y="0" on="1"/>
      </contour>
    </TTGlyph>
    <TTGlyph name="afii10027" xMin="60" yMin="0" xMax="673" yMax="890">
      <contour>
        <pt x="449" y="820" on="1"/>
        <pt x="472" y="820" on="0"/>
        <pt x="505" y="852" on="0"/>
        <pt x="511" y="890" on="1"/>
        <pt x="621" y="890" on="1"/>
        <pt x="610" y="822" on="0"/>
        <pt x="520" y="750" on="0"/>
        <pt x="437" y="750" on="1"/>
        <pt x="354" y="750" on="0"/>
        <pt x="290" y="822" on="0"/>
        <pt x="301" y="890" on="1"/>
        <pt x="411" y="890" on="1"/>
        <pt x="405" y="852" on="0"/>
        <pt x="426" y="820" on="0"/>
      </contour>
      <contour>
        <pt x="479" y="395" on="1"/>
        <pt x="481" y="406" on="0"/>
        <pt x="486" y="429" on="0"/>
        <pt x="489" y="439" on="1"/>
        <pt x="493" y="450" on="0"/>
        <pt x="496" y="461" on="1"/>
        <pt x="492" y="461" on="1"/>
        <pt x="486" y="450" on="0"/>
        <pt x="480" y="439" on="1"/>
        <pt x="475" y="429" on="0"/>
        <pt x="462" y="406" on="0"/>
        <pt x="454" y="395" on="1"/>
        <pt x="195" y="0" on="1"/>
        <pt x="60" y="0" on="1"/>
        <pt x="183" y="700" on="1"/>
        <pt x="323" y="700" on="1"/>
        <pt x="253" y="305" on="1"/>
        <pt x="251" y="294" on="0"/>
        <pt x="245" y="271" on="0"/>
        <pt x="243" y="261" on="1"/>
        <pt x="240" y="250" on="0"/>
        <pt x="237" y="239" on="1"/>
        <pt x="241" y="239" on="1"/>
        <pt x="246" y="250" on="0"/>
        <pt x="252" y="261" on="1"/>
        <pt x="257" y="271" on="0"/>
        <pt x="270" y="294" on="0"/>
        <pt x="278" y="305" on="1"/>
        <pt x="538" y="700" on="1"/>
        <pt x="673" y="700" on="1"/>
        <pt x="550" y="0" on="1"/>
        <pt x="410" y="0" on="1"/>
      </contour>
    </TTGlyph>
    <TTGlyph name="afii10028" xMin="60" yMin="-10" xMax="672" yMax="710">
      <contour>
        <pt x="414" y="365" on="1"/>
        <pt x="440" y="360" on="0"/>
        <pt x="460" y="346" on="1"/>
        <pt x="477" y="334" on="0"/>
        <pt x="507" y="290" on="0"/>
        <pt x="509" y="255" on="1"/>
        <pt x="515" y="115" on="1"/>
        <pt x="515" y="80" on="0"/>
        <pt x="545" y="80" on="1"/>
        <pt x="550" y="80" on="0"/>
        <pt x="558" y="82" on="1"/>
        <pt x="561" y="83" on="0"/>
        <pt x="564" y="85" on="1"/>
        <pt x="569" y="85" on="1"/>
        <pt x="565" y="5" on="1"/>
        <pt x="555" y="1" on="0"/>
        <pt x="542" y="-3" on="1"/>
        <pt x="531" y="-6" on="0"/>
        <pt x="498" y="-10" on="0"/>
        <pt x="478" y="-10" on="1"/>
        <pt x="425" y="-10" on="0"/>
        <pt x="372" y="48" on="0"/>
        <pt x="370" y="90" on="1"/>
        <pt x="364" y="250" on="1"/>
        <pt x="362" y="284" on="0"/>
        <pt x="334" y="315" on="0"/>
        <pt x="300" y="315" on="1"/>
        <pt x="255" y="315" on="1"/>
        <pt x="200" y="0" on="1"/>
        <pt x="60" y="0" on="1"/>
        <pt x="183" y="700" on="1"/>
        <pt x="323" y="700" on="1"/>
        <pt x="271" y="405" on="1"/>
        <pt x="301" y="405" on="1"/>
        <pt x="339" y="405" on="0"/>
        <pt x="378" y="437" on="0"/>
        <pt x="393" y="475" on="1"/>
        <pt x="447" y="610" on="1"/>
        <pt x="464" y="652" on="0"/>
        <pt x="537" y="710" on="0"/>
        <pt x="590" y="710" on="1"/>
        <pt x="609" y="710" on="0"/>
        <pt x="639" y="705" on="0"/>
        <pt x="650" y="702" on="1"/>
        <pt x="662" y="698" on="0"/>
        <pt x="672" y="695" on="1"/>
        <pt x="648" y="615" on="1"/>
        <pt x="643" y="615" on="1"/>
        <pt x="637" y="617" on="1"/>
        <pt x="634" y="618" on="0"/>
        <pt x="628" y="620" on="0"/>
        <pt x="624" y="620" on="1"/>
        <pt x="596" y="620" on="0"/>
        <pt x="583" y="585" on="1"/>
        <pt x="537" y="470" on="1"/>
        <pt x="523" y="435" on="0"/>
        <pt x="482" y="394" on="0"/>
        <pt x="462" y="383" on="1"/>
        <pt x="439" y="370" on="0"/>
      </contour>
    </TTGlyph>
    <TTGlyph name="afii10029" xMin="-20" yMin="-10" xMax="648" yMax="700">
      <contour>
        <pt x="39" y="80" on="1"/>
        <pt x="58" y="80" on="0"/>
        <pt x="87" y="115" on="0"/>
        <pt x="98" y="160" on="1"/>
        <pt x="223" y="700" on="1"/>
        <pt x="648" y="700" on="1"/>
        <pt x="525" y="0" on="1"/>
        <pt x="385" y="0" on="1"/>
        <pt x="492" y="610" on="1"/>
        <pt x="342" y="610" on="1"/>
        <pt x="238" y="160" on="1"/>
        <pt x="218" y="77" on="0"/>
        <pt x="123" y="-10" on="0"/>
        <pt x="48" y="-10" on="1"/>
        <pt x="34" y="-10" on="0"/>
        <pt x="11" y="-6" on="0"/>
        <pt x="1" y="-3" on="1"/>
        <pt x="-10" y="1" on="0"/>
        <pt x="-20" y="5" on="1"/>
        <pt x="4" y="85" on="1"/>
        <pt x="14" y="85" on="1"/>
        <pt x="19" y="83" on="0"/>
        <pt x="23" y="82" on="1"/>
        <pt x="33" y="80" on="0"/>
      </contour>
    </TTGlyph>
    <TTGlyph name="afii10030" xMin="60" yMin="0" xMax="883" yMax="700">
      <contour>
        <pt x="370" y="115" on="1"/>
        <pt x="289" y="365" on="1"/>
        <pt x="281" y="389" on="0"/>
        <pt x="278" y="409" on="1"/>
        <pt x="275" y="420" on="0"/>
        <pt x="274" y="431" on="1"/>
        <pt x="270" y="431" on="1"/>
        <pt x="270" y="420" on="0"/>
        <pt x="269" y="409" on="1"/>
        <pt x="268" y="399" on="0"/>
        <pt x="266" y="376" on="0"/>
        <pt x="264" y="365" on="1"/>
        <pt x="200" y="0" on="1"/>
        <pt x="60" y="0" on="1"/>
        <pt x="183" y="700" on="1"/>
        <pt x="318" y="700" on="1"/>
        <pt x="443" y="305" on="1"/>
        <pt x="445" y="297" on="0"/>
        <pt x="449" y="280" on="0"/>
        <pt x="450" y="272" on="1"/>
        <pt x="451" y="263" on="0"/>
        <pt x="452" y="255" on="1"/>
        <pt x="456" y="255" on="1"/>
        <pt x="461" y="263" on="0"/>
        <pt x="465" y="272" on="1"/>
        <pt x="469" y="280" on="0"/>
        <pt x="478" y="297" on="0"/>
        <pt x="483" y="305" on="1"/>
        <pt x="748" y="700" on="1"/>
        <pt x="883" y="700" on="1"/>
        <pt x="760" y="0" on="1"/>
        <pt x="620" y="0" on="1"/>
        <pt x="684" y="365" on="1"/>
        <pt x="686" y="376" on="0"/>
        <pt x="692" y="399" on="0"/>
        <pt x="694" y="409" on="1"/>
        <pt x="697" y="420" on="0"/>
        <pt x="700" y="431" on="1"/>
        <pt x="696" y="431" on="1"/>
        <pt x="691" y="420" on="0"/>
        <pt x="685" y="409" on="1"/>
        <pt x="680" y="399" on="0"/>
        <pt x="667" y="376" on="0"/>
        <pt x="659" y="365" on="1"/>
        <pt x="490" y="115" on="1"/>
      </contour>
    </TTGlyph>
    <TTGlyph name="afii10031" xMin="60" yMin="0" xMax="673" yMax="700">
      <contour>
        <pt x="673" y="700" on="1"/>
        <pt x="550" y="0" on="1"/>
        <pt x="410" y="0" on="1"/>
        <pt x="464" y="310" on="1"/>
        <pt x="254" y="310" on="1"/>
        <pt x="200" y="0" on="1"/>
        <pt x="60" y="0" on="1"/>
        <pt x="183" y="700" on="1"/>
        <pt x="323" y="700" on="1"/>
        <pt x="270" y="400" on="1"/>
        <pt x="480" y="400" on="1"/>
        <pt x="533" y="700" on="1"/>
      </contour>
    </TTGlyph>
    <TTGlyph name="afii10032" xMin="76" yMin="-10" xMax="626" yMax="710">
      <contour>
        <pt x="616" y="350" on="1"/>
        <pt x="599" y="254" on="0"/>
        <pt x="537" y="118" on="0"/>
        <pt x="453" y="31" on="0"/>
        <pt x="348" y="-10" on="0"/>
        <pt x="288" y="-10" on="1"/>
        <pt x="228" y="-10" on="0"/>
        <pt x="137" y="31" on="0"/>
        <pt x="83" y="118" on="0"/>
        <pt x="69" y="254" on="0"/>
        <pt x="86" y="350" on="1"/>
        <pt x="103" y="446" on="0"/>
        <pt x="165" y="582" on="0"/>
        <pt x="250" y="669" on="0"/>
        <pt x="355" y="710" on="0"/>
        <pt x="415" y="710" on="1"/>
        <pt x="475" y="710" on="0"/>
        <pt x="565" y="669" on="0"/>
        <pt x="619" y="582" on="0"/>
        <pt x="633" y="446" on="0"/>
      </contour>
      <contour>
        <pt x="476" y="350" on="1"/>
        <pt x="490" y="429" on="0"/>
        <pt x="488" y="533" on="0"/>
        <pt x="464" y="595" on="0"/>
        <pt x="423" y="620" on="0"/>
        <pt x="399" y="620" on="1"/>
        <pt x="375" y="620" on="0"/>
        <pt x="325" y="595" on="0"/>
        <pt x="279" y="533" on="0"/>
        <pt x="240" y="429" on="0"/>
        <pt x="226" y="350" on="1"/>
        <pt x="212" y="271" on="0"/>
        <pt x="215" y="167" on="0"/>
        <pt x="239" y="105" on="0"/>
        <pt x="280" y="80" on="0"/>
        <pt x="304" y="80" on="1"/>
        <pt x="328" y="80" on="0"/>
        <pt x="378" y="105" on="0"/>
        <pt x="423" y="167" on="0"/>
        <pt x="462" y="271" on="0"/>
      </contour>
    </TTGlyph>
    <TTGlyph name="afii10033" xMin="60" yMin="0" xMax="673" yMax="700">
      <contour>
        <pt x="673" y="700" on="1"/>
        <pt x="550" y="0" on="1"/>
        <pt x="410" y="0" on="1"/>
        <pt x="517" y="610" on="1"/>
        <pt x="307" y="610" on="1"/>
        <pt x="200" y="0" on="1"/>
        <pt x="60" y="0" on="1"/>
        <pt x="183" y="700" on="1"/>
      </contour>
    </TTGlyph>
    <TTGlyph name="afii10034" xMin="60" yMin="0" xMax="611" yMax="700">
      <contour>
        <pt x="316" y="320" on="1"/>
        <pt x="384" y="320" on="0"/>
        <pt x="457" y="386" on="0"/>
        <pt x="471" y="465" on="1"/>
        <pt x="485" y="544" on="0"/>
        <pt x="435" y="610" on="0"/>
        <pt x="367" y="610" on="1"/>
        <pt x="307" y="610" on="1"/>
        <pt x="256" y="320" on="1"/>
      </contour>
      <contour>
        <pt x="240" y="230" on="1"/>
        <pt x="200" y="0" on="1"/>
        <pt x="60" y="0" on="1"/>
        <pt x="183" y="700" on="1"/>
        <pt x="383" y="700" on="1"/>
        <pt x="526" y="700" on="0"/>
        <pt x="632" y="582" on="0"/>
        <pt x="611" y="465" on="1"/>
        <pt x="591" y="348" on="0"/>
        <pt x="443" y="230" on="0"/>
        <pt x="300" y="230" on="1"/>
      </contour>
    </TTGlyph>
    <TTGlyph name="afii10035" xMin="76" yMin="-10" xMax="595" yMax="710">
      <contour>
        <pt x="86" y="350" on="1"/>
        <pt x="103" y="446" on="0"/>
        <pt x="165" y="582" on="0"/>
        <pt x="251" y="669" on="0"/>
        <pt x="358" y="710" on="0"/>
        <pt x="420" y="710" on="1"/>
        <pt x="463" y="710" on="0"/>
        <pt x="529" y="693" on="0"/>
        <pt x="551" y="682" on="1"/>
        <pt x="577" y="670" on="0"/>
        <pt x="595" y="655" on="1"/>
        <pt x="536" y="575" on="1"/>
        <pt x="526" y="575" on="1"/>
        <pt x="515" y="587" on="0"/>
        <pt x="498" y="597" on="1"/>
        <pt x="484" y="605" on="0"/>
        <pt x="442" y="620" on="0"/>
        <pt x="414" y="620" on="1"/>
        <pt x="384" y="620" on="0"/>
        <pt x="328" y="595" on="0"/>
        <pt x="280" y="533" on="0"/>
        <pt x="240" y="429" on="0"/>
        <pt x="226" y="350" on="1"/>
        <pt x="212" y="271" on="0"/>
        <pt x="216" y="167" on="0"/>
        <pt x="244" y="105" on="0"/>
        <pt x="295" y="80" on="0"/>
        <pt x="329" y="80" on="1"/>
        <pt x="357" y="80" on="0"/>
        <pt x="404" y="94" on="0"/>
        <pt x="421" y="102" on="1"/>
        <pt x="441" y="112" on="0"/>
        <pt x="457" y="125" on="1"/>
        <pt x="467" y="125" on="1"/>
        <pt x="497" y="45" on="1"/>
        <pt x="473" y="29" on="0"/>
        <pt x="443" y="17" on="1"/>
        <pt x="417" y="6" on="0"/>
        <pt x="346" y="-10" on="0"/>
        <pt x="303" y="-10" on="1"/>
        <pt x="237" y="-10" on="0"/>
        <pt x="140" y="31" on="0"/>
        <pt x="83" y="118" on="0"/>
        <pt x="69" y="254" on="0"/>
      </contour>
    </TTGlyph>
    <TTGlyph name="afii10036" xMin="92" yMin="0" xMax="598" yMax="700">
      <contour>
        <pt x="160" y="0" on="1"/>
        <pt x="267" y="610" on="1"/>
        <pt x="92" y="610" on="1"/>
        <pt x="108" y="700" on="1"/>
        <pt x="598" y="700" on="1"/>
        <pt x="582" y="610" on="1"/>
        <pt x="407" y="610" on="1"/>
        <pt x="300" y="0" on="1"/>
      </contour>
    </TTGlyph>
    <TTGlyph name="afii10037" xMin="52" yMin="-15" xMax="663" yMax="700">
      <contour>
        <pt x="518" y="700" on="1"/>
        <pt x="663" y="700" on="1"/>
        <pt x="383" y="135" on="1"/>
        <pt x="367" y="103" on="0"/>
        <pt x="324" y="48" on="0"/>
        <pt x="268" y="8" on="0"/>
        <pt x="201" y="-15" on="0"/>
        <pt x="162" y="-15" on="1"/>
        <pt x="137" y="-15" on="0"/>
        <pt x="97" y="-6" on="0"/>
        <pt x="83" y="0" on="1"/>
        <pt x="66" y="6" on="0"/>
        <pt x="52" y="15" on="1"/>
        <pt x="102" y="100" on="1"/>
        <pt x="112" y="100" on="1"/>
        <pt x="118" y="92" on="0"/>
        <pt x="127" y="87" on="1"/>
        <pt x="135" y="82" on="0"/>
        <pt x="154" y="75" on="0"/>
        <pt x="168" y="75" on="1"/>
        <pt x="194" y="75" on="0"/>
        <pt x="236" y="109" on="0"/>
        <pt x="248" y="135" on="1"/>
        <pt x="272" y="185" on="1"/>
        <pt x="231" y="185" on="1"/>
        <pt x="108" y="700" on="1"/>
        <pt x="253" y="700" on="1"/>
        <pt x="324" y="365" on="1"/>
        <pt x="326" y="351" on="0"/>
        <pt x="329" y="325" on="0"/>
        <pt x="329" y="314" on="1"/>
        <pt x="329" y="290" on="1"/>
        <pt x="333" y="290" on="1"/>
        <pt x="336" y="302" on="0"/>
        <pt x="340" y="314" on="1"/>
        <pt x="343" y="325" on="0"/>
        <pt x="352" y="351" on="0"/>
        <pt x="359" y="365" on="1"/>
      </contour>
    </TTGlyph>
    <TTGlyph name="afii10038" xMin="69" yMin="-30" xMax="794" yMax="730">
      <contour>
        <pt x="462" y="130" on="1"/>
        <pt x="496" y="134" on="0"/>
        <pt x="557" y="161" on="0"/>
        <pt x="606" y="214" on="0"/>
        <pt x="641" y="294" on="0"/>
        <pt x="651" y="350" on="1"/>
        <pt x="661" y="406" on="0"/>
        <pt x="654" y="486" on="0"/>
        <pt x="624" y="539" on="0"/>
        <pt x="573" y="566" on="0"/>
        <pt x="540" y="570" on="1"/>
      </contour>
      <contour>
        <pt x="400" y="570" on="1"/>
        <pt x="365" y="566" on="0"/>
        <pt x="305" y="539" on="0"/>
        <pt x="257" y="486" on="0"/>
        <pt x="221" y="406" on="0"/>
        <pt x="211" y="350" on="1"/>
        <pt x="201" y="294" on="0"/>
        <pt x="209" y="214" on="0"/>
        <pt x="239" y="161" on="0"/>
        <pt x="289" y="134" on="0"/>
        <pt x="322" y="130" on="1"/>
      </contour>
      <contour>
        <pt x="428" y="730" on="1"/>
        <pt x="568" y="730" on="1"/>
        <pt x="556" y="660" on="1"/>
        <pt x="623" y="656" on="0"/>
        <pt x="722" y="612" on="0"/>
        <pt x="784" y="533" on="0"/>
        <pt x="804" y="421" on="0"/>
        <pt x="791" y="350" on="1"/>
        <pt x="779" y="279" on="0"/>
        <pt x="719" y="167" on="0"/>
        <pt x="630" y="88" on="0"/>
        <pt x="515" y="44" on="0"/>
        <pt x="447" y="40" on="1"/>
        <pt x="434" y="-30" on="1"/>
        <pt x="294" y="-30" on="1"/>
        <pt x="307" y="40" on="1"/>
        <pt x="240" y="44" on="0"/>
        <pt x="140" y="88" on="0"/>
        <pt x="79" y="167" on="0"/>
        <pt x="59" y="279" on="0"/>
        <pt x="71" y="350" on="1"/>
        <pt x="97" y="493" on="0"/>
        <pt x="279" y="652" on="0"/>
        <pt x="416" y="660" on="1"/>
      </contour>
    </TTGlyph>
    <TTGlyph name="afii10039" xMin="-15" yMin="0" xMax="643" yMax="700">
      <contour>
        <pt x="493" y="700" on="1"/>
        <pt x="643" y="700" on="1"/>
        <pt x="412" y="355" on="1"/>
        <pt x="525" y="0" on="1"/>
        <pt x="375" y="0" on="1"/>
        <pt x="309" y="225" on="1"/>
        <pt x="307" y="233" on="0"/>
        <pt x="306" y="248" on="0"/>
        <pt x="305" y="255" on="1"/>
        <pt x="304" y="263" on="0"/>
        <pt x="304" y="270" on="1"/>
        <pt x="300" y="270" on="1"/>
        <pt x="298" y="263" on="0"/>
        <pt x="294" y="255" on="1"/>
        <pt x="291" y="248" on="0"/>
        <pt x="284" y="233" on="0"/>
        <pt x="279" y="225" on="1"/>
        <pt x="135" y="0" on="1"/>
        <pt x="-15" y="0" on="1"/>
        <pt x="222" y="355" on="1"/>
        <pt x="113" y="700" on="1"/>
        <pt x="263" y="700" on="1"/>
        <pt x="325" y="485" on="1"/>
        <pt x="327" y="477" on="0"/>
        <pt x="328" y="462" on="0"/>
        <pt x="329" y="455" on="1"/>
        <pt x="330" y="447" on="0"/>
        <pt x="330" y="440" on="1"/>
        <pt x="334" y="440" on="1"/>
        <pt x="336" y="447" on="0"/>
        <pt x="340" y="455" on="1"/>
        <pt x="343" y="462" on="0"/>
        <pt x="350" y="477" on="0"/>
        <pt x="355" y="485" on="1"/>
      </contour>
    </TTGlyph>
    <TTGlyph name="afii10040" xMin="60" yMin="-150" xMax="663" yMax="700">
      <contour>
        <pt x="60" y="0" on="1"/>
        <pt x="183" y="700" on="1"/>
        <pt x="323" y="700" on="1"/>
        <pt x="215" y="90" on="1"/>
        <pt x="415" y="90" on="1"/>
        <pt x="523" y="700" on="1"/>
        <pt x="663" y="700" on="1"/>
        <pt x="555" y="90" on="1"/>
        <pt x="620" y="90" on="1"/>
        <pt x="578" y="-150" on="1"/>
        <pt x="473" y="-150" on="1"/>
        <pt x="480" y="0" on="1"/>
      </contour>
    </TTGlyph>
    <TTGlyph name="afii10041" xMin="108" yMin="0" xMax="643" yMax="700">
      <contour>
        <pt x="503" y="700" on="1"/>
        <pt x="643" y="700" on="1"/>
        <pt x="520" y="0" on="1"/>
        <pt x="380" y="0" on="1"/>
        <pt x="424" y="255" on="1"/>
        <pt x="408" y="251" on="0"/>
        <pt x="389" y="247" on="1"/>
        <pt x="372" y="244" on="0"/>
        <pt x="328" y="240" on="0"/>
        <pt x="302" y="240" on="1"/>
        <pt x="189" y="240" on="0"/>
        <pt x="91" y="351" on="0"/>
        <pt x="108" y="445" on="1"/>
        <pt x="153" y="700" on="1"/>
        <pt x="293" y="700" on="1"/>
        <pt x="248" y="445" on="1"/>
        <pt x="228" y="330" on="0"/>
        <pt x="343" y="330" on="1"/>
        <pt x="363" y="330" on="0"/>
        <pt x="399" y="334" on="0"/>
        <pt x="412" y="337" on="1"/>
        <pt x="427" y="341" on="0"/>
        <pt x="440" y="345" on="1"/>
      </contour>
    </TTGlyph>
    <TTGlyph name="afii10042" xMin="60" yMin="0" xMax="963" yMax="700">
      <contour>
        <pt x="840" y="0" on="1"/>
        <pt x="60" y="0" on="1"/>
        <pt x="183" y="700" on="1"/>
        <pt x="323" y="700" on="1"/>
        <pt x="215" y="90" on="1"/>
        <pt x="395" y="90" on="1"/>
        <pt x="503" y="700" on="1"/>
        <pt x="643" y="700" on="1"/>
        <pt x="535" y="90" on="1"/>
        <pt x="715" y="90" on="1"/>
        <pt x="823" y="700" on="1"/>
        <pt x="963" y="700" on="1"/>
      </contour>
    </TTGlyph>
    <TTGlyph name="afii10043" xMin="60" yMin="-150" xMax="963" yMax="700">
      <contour>
        <pt x="60" y="0" on="1"/>
        <pt x="183" y="700" on="1"/>
        <pt x="323" y="700" on="1"/>
        <pt x="215" y="90" on="1"/>
        <pt x="395" y="90" on="1"/>
        <pt x="503" y="700" on="1"/>
        <pt x="643" y="700" on="1"/>
        <pt x="535" y="90" on="1"/>
        <pt x="715" y="90" on="1"/>
        <pt x="823" y="700" on="1"/>
        <pt x="963" y="700" on="1"/>
        <pt x="855" y="90" on="1"/>
        <pt x="920" y="90" on="1"/>
        <pt x="878" y="-150" on="1"/>
        <pt x="773" y="-150" on="1"/>
        <pt x="780" y="0" on="1"/>
      </contour>
    </TTGlyph>
    <TTGlyph name="afii10044" xMin="92" yMin="0" xMax="631" yMax="700">
      <contour>
        <pt x="399" y="450" on="1"/>
        <pt x="470" y="450" on="0"/>
        <pt x="567" y="420" on="0"/>
        <pt x="623" y="363" on="0"/>
        <pt x="639" y="279" on="0"/>
        <pt x="629" y="225" on="1"/>
        <pt x="612" y="125" on="0"/>
        <pt x="486" y="11" on="0"/>
        <pt x="367" y="2" on="1"/>
        <pt x="359" y="1" on="0"/>
        <pt x="342" y="0" on="0"/>
        <pt x="334" y="0" on="1"/>
        <pt x="325" y="0" on="1"/>
        <pt x="115" y="0" on="1"/>
        <pt x="222" y="610" on="1"/>
        <pt x="92" y="610" on="1"/>
        <pt x="108" y="700" on="1"/>
        <pt x="378" y="700" on="1"/>
        <pt x="334" y="450" on="1"/>
      </contour>
      <contour>
        <pt x="318" y="360" on="1"/>
        <pt x="270" y="90" on="1"/>
        <pt x="335" y="90" on="1"/>
        <pt x="403" y="90" on="0"/>
        <pt x="476" y="153" on="0"/>
        <pt x="489" y="225" on="1"/>
        <pt x="502" y="297" on="0"/>
        <pt x="451" y="360" on="0"/>
        <pt x="383" y="360" on="1"/>
      </contour>
    </TTGlyph>
    <TTGlyph name="afii10045" xMin="60" yMin="0" xMax="868" yMax="700">
      <contour>
        <pt x="728" y="700" on="1"/>
        <pt x="868" y="700" on="1"/>
        <pt x="745" y="0" on="1"/>
        <pt x="605" y="0" on="1"/>
      </contour>
      <contour>
        <pt x="263" y="360" on="1"/>
        <pt x="215" y="90" on="1"/>
        <pt x="270" y="90" on="1"/>
        <pt x="338" y="90" on="0"/>
        <pt x="411" y="153" on="0"/>
        <pt x="424" y="225" on="1"/>
        <pt x="437" y="297" on="0"/>
        <pt x="386" y="360" on="0"/>
        <pt x="318" y="360" on="1"/>
      </contour>
      <contour>
        <pt x="334" y="450" on="1"/>
        <pt x="405" y="450" on="0"/>
        <pt x="502" y="420" on="0"/>
        <pt x="558" y="363" on="0"/>
        <pt x="574" y="279" on="0"/>
        <pt x="564" y="225" on="1"/>
        <pt x="545" y="116" on="0"/>
        <pt x="398" y="0" on="0"/>
        <pt x="255" y="0" on="1"/>
        <pt x="60" y="0" on="1"/>
        <pt x="183" y="700" on="1"/>
        <pt x="323" y="700" on="1"/>
        <pt x="279" y="450" on="1"/>
      </contour>
    </TTGlyph>
    <TTGlyph name="afii10046" xMin="60" yMin="0" xMax="576" yMax="700">
      <contour>
        <pt x="263" y="360" on="1"/>
        <pt x="215" y="90" on="1"/>
        <pt x="280" y="90" on="1"/>
        <pt x="348" y="90" on="0"/>
        <pt x="421" y="153" on="0"/>
        <pt x="434" y="225" on="1"/>
        <pt x="447" y="297" on="0"/>
        <pt x="396" y="360" on="0"/>
        <pt x="328" y="360" on="1"/>
      </contour>
      <contour>
        <pt x="344" y="450" on="1"/>
        <pt x="415" y="450" on="0"/>
        <pt x="512" y="420" on="0"/>
        <pt x="568" y="363" on="0"/>
        <pt x="584" y="279" on="0"/>
        <pt x="574" y="225" on="1"/>
        <pt x="555" y="116" on="0"/>
        <pt x="408" y="0" on="0"/>
        <pt x="265" y="0" on="1"/>
        <pt x="60" y="0" on="1"/>
        <pt x="183" y="700" on="1"/>
        <pt x="323" y="700" on="1"/>
        <pt x="279" y="450" on="1"/>
      </contour>
    </TTGlyph>
    <TTGlyph name="afii10047" xMin="2" yMin="-10" xMax="531" yMax="710">
      <contour>
        <pt x="165" y="400" on="1"/>
        <pt x="390" y="400" on="1"/>
        <pt x="397" y="464" on="0"/>
        <pt x="389" y="548" on="0"/>
        <pt x="361" y="599" on="0"/>
        <pt x="317" y="620" on="0"/>
        <pt x="289" y="620" on="1"/>
        <pt x="260" y="620" on="0"/>
        <pt x="214" y="605" on="0"/>
        <pt x="197" y="597" on="1"/>
        <pt x="177" y="587" on="0"/>
        <pt x="161" y="575" on="1"/>
        <pt x="151" y="575" on="1"/>
        <pt x="120" y="655" on="1"/>
        <pt x="144" y="670" on="0"/>
        <pt x="174" y="682" on="1"/>
        <pt x="200" y="693" on="0"/>
        <pt x="271" y="710" on="0"/>
        <pt x="315" y="710" on="1"/>
        <pt x="377" y="710" on="0"/>
        <pt x="469" y="669" on="0"/>
        <pt x="524" y="582" on="0"/>
        <pt x="538" y="446" on="0"/>
        <pt x="521" y="350" on="1"/>
        <pt x="504" y="254" on="0"/>
        <pt x="442" y="118" on="0"/>
        <pt x="355" y="31" on="0"/>
        <pt x="244" y="-10" on="0"/>
        <pt x="178" y="-10" on="1"/>
        <pt x="134" y="-10" on="0"/>
        <pt x="70" y="6" on="0"/>
        <pt x="47" y="17" on="1"/>
        <pt x="21" y="29" on="0"/>
        <pt x="2" y="45" on="1"/>
        <pt x="62" y="125" on="1"/>
        <pt x="72" y="125" on="1"/>
        <pt x="83" y="112" on="0"/>
        <pt x="100" y="102" on="1"/>
        <pt x="114" y="94" on="0"/>
        <pt x="155" y="80" on="0"/>
        <pt x="184" y="80" on="1"/>
        <pt x="216" y="80" on="0"/>
        <pt x="271" y="101" on="0"/>
        <pt x="319" y="154" on="0"/>
        <pt x="358" y="242" on="0"/>
        <pt x="374" y="310" on="1"/>
        <pt x="149" y="310" on="1"/>
      </contour>
    </TTGlyph>
    <TTGlyph name="afii10048" xMin="60" yMin="-10" xMax="857" yMax="710">
      <contour>
        <pt x="544" y="80" on="1"/>
        <pt x="565" y="80" on="0"/>
        <pt x="610" y="105" on="0"/>
        <pt x="653" y="167" on="0"/>
        <pt x="692" y="271" on="0"/>
        <pt x="706" y="350" on="1"/>
        <pt x="720" y="429" on="0"/>
        <pt x="718" y="533" on="0"/>
        <pt x="696" y="595" on="0"/>
        <pt x="660" y="620" on="0"/>
        <pt x="639" y="620" on="1"/>
        <pt x="618" y="620" on="0"/>
        <pt x="573" y="595" on="0"/>
        <pt x="529" y="533" on="0"/>
        <pt x="490" y="429" on="0"/>
        <pt x="476" y="350" on="1"/>
        <pt x="462" y="271" on="0"/>
        <pt x="464" y="167" on="0"/>
        <pt x="487" y="105" on="0"/>
        <pt x="523" y="80" on="0"/>
      </contour>
      <contour>
        <pt x="846" y="350" on="1"/>
        <pt x="829" y="254" on="0"/>
        <pt x="768" y="118" on="0"/>
        <pt x="685" y="31" on="0"/>
        <pt x="584" y="-10" on="0"/>
        <pt x="528" y="-10" on="1"/>
        <pt x="474" y="-10" on="0"/>
        <pt x="390" y="28" on="0"/>
        <pt x="337" y="107" on="0"/>
        <pt x="318" y="227" on="0"/>
        <pt x="329" y="310" on="1"/>
        <pt x="254" y="310" on="1"/>
        <pt x="200" y="0" on="1"/>
        <pt x="60" y="0" on="1"/>
        <pt x="183" y="700" on="1"/>
        <pt x="323" y="700" on="1"/>
        <pt x="270" y="400" on="1"/>
        <pt x="345" y="400" on="1"/>
        <pt x="363" y="479" on="0"/>
        <pt x="423" y="595" on="0"/>
        <pt x="503" y="672" on="0"/>
        <pt x="601" y="710" on="0"/>
        <pt x="655" y="710" on="1"/>
        <pt x="711" y="710" on="0"/>
        <pt x="798" y="669" on="0"/>
        <pt x="850" y="582" on="0"/>
        <pt x="863" y="446" on="0"/>
      </contour>
    </TTGlyph>
    <TTGlyph name="afii10049" xMin="0" yMin="-10" xMax="623" yMax="700">
      <contour>
        <pt x="360" y="260" on="1"/>
        <pt x="327" y="260" on="0"/>
        <pt x="289" y="229" on="0"/>
        <pt x="274" y="195" on="1"/>
        <pt x="226" y="90" on="1"/>
        <pt x="217" y="69" on="0"/>
        <pt x="188" y="33" on="0"/>
        <pt x="152" y="6" on="0"/>
        <pt x="110" y="-10" on="0"/>
        <pt x="88" y="-10" on="1"/>
        <pt x="65" y="-10" on="0"/>
        <pt x="32" y="-6" on="0"/>
        <pt x="21" y="-3" on="1"/>
        <pt x="8" y="1" on="0"/>
        <pt x="0" y="5" on="1"/>
        <pt x="24" y="85" on="1"/>
        <pt x="29" y="85" on="1"/>
        <pt x="31" y="83" on="0"/>
        <pt x="35" y="82" on="1"/>
        <pt x="41" y="80" on="0"/>
        <pt x="48" y="80" on="1"/>
        <pt x="64" y="80" on="0"/>
        <pt x="81" y="96" on="0"/>
        <pt x="90" y="115" on="1"/>
        <pt x="130" y="200" on="1"/>
        <pt x="144" y="230" on="0"/>
        <pt x="181" y="266" on="0"/>
        <pt x="198" y="277" on="1"/>
        <pt x="217" y="289" on="0"/>
        <pt x="237" y="295" on="1"/>
        <pt x="195" y="302" on="0"/>
        <pt x="166" y="324" on="1"/>
        <pt x="140" y="343" on="0"/>
        <pt x="107" y="415" on="0"/>
        <pt x="118" y="479" on="1"/>
        <pt x="137" y="585" on="0"/>
        <pt x="284" y="700" on="0"/>
        <pt x="427" y="700" on="1"/>
        <pt x="623" y="700" on="1"/>
        <pt x="500" y="0" on="1"/>
        <pt x="360" y="0" on="1"/>
        <pt x="405" y="260" on="1"/>
      </contour>
      <contour>
        <pt x="421" y="350" on="1"/>
        <pt x="467" y="610" on="1"/>
        <pt x="411" y="610" on="1"/>
        <pt x="343" y="610" on="0"/>
        <pt x="270" y="548" on="0"/>
        <pt x="258" y="480" on="1"/>
        <pt x="246" y="412" on="0"/>
        <pt x="297" y="350" on="0"/>
        <pt x="365" y="350" on="1"/>
      </contour>
    </TTGlyph>
    <TTGlyph name="afii10050" xMin="60" yMin="0" xMax="622" yMax="810">
      <contour>
        <pt x="307" y="610" on="1"/>
        <pt x="200" y="0" on="1"/>
        <pt x="60" y="0" on="1"/>
        <pt x="183" y="700" on="1"/>
        <pt x="493" y="700" on="1"/>
        <pt x="527" y="810" on="1"/>
        <pt x="622" y="810" on="1"/>
        <pt x="587" y="610" on="1"/>
      </contour>
    </TTGlyph>
    <TTGlyph name="afii10051" xMin="82" yMin="-30" xMax="639" yMax="700">
      <contour>
        <pt x="499" y="255" on="1"/>
        <pt x="520" y="370" on="0"/>
        <pt x="405" y="370" on="1"/>
        <pt x="384" y="370" on="0"/>
        <pt x="349" y="365" on="0"/>
        <pt x="335" y="362" on="1"/>
        <pt x="319" y="358" on="0"/>
        <pt x="307" y="355" on="1"/>
        <pt x="245" y="0" on="1"/>
        <pt x="105" y="0" on="1"/>
        <pt x="212" y="610" on="1"/>
        <pt x="82" y="610" on="1"/>
        <pt x="98" y="700" on="1"/>
        <pt x="538" y="700" on="1"/>
        <pt x="522" y="610" on="1"/>
        <pt x="352" y="610" on="1"/>
        <pt x="323" y="445" on="1"/>
        <pt x="339" y="448" on="0"/>
        <pt x="358" y="452" on="1"/>
        <pt x="375" y="455" on="0"/>
        <pt x="420" y="460" on="0"/>
        <pt x="446" y="460" on="1"/>
        <pt x="559" y="460" on="0"/>
        <pt x="656" y="349" on="0"/>
        <pt x="639" y="255" on="1"/>
        <pt x="619" y="140" on="1"/>
        <pt x="613" y="102" on="0"/>
        <pt x="576" y="40" on="0"/>
        <pt x="520" y="-5" on="0"/>
        <pt x="447" y="-30" on="0"/>
        <pt x="404" y="-30" on="1"/>
        <pt x="385" y="-30" on="0"/>
        <pt x="356" y="-24" on="0"/>
        <pt x="345" y="-20" on="1"/>
        <pt x="333" y="-16" on="0"/>
        <pt x="323" y="-10" on="1"/>
        <pt x="352" y="70" on="1"/>
        <pt x="362" y="70" on="1"/>
        <pt x="368" y="67" on="0"/>
        <pt x="375" y="65" on="1"/>
        <pt x="388" y="60" on="0"/>
        <pt x="410" y="60" on="1"/>
        <pt x="433" y="60" on="0"/>
        <pt x="471" y="98" on="0"/>
        <pt x="479" y="140" on="1"/>
      </contour>
    </TTGlyph>
    <TTGlyph name="afii10052" xMin="60" yMin="0" xMax="603" yMax="900">
      <contour>
        <pt x="60" y="0" on="1"/>
        <pt x="183" y="700" on="1"/>
        <pt x="603" y="700" on="1"/>
        <pt x="587" y="610" on="1"/>
        <pt x="307" y="610" on="1"/>
        <pt x="200" y="0" on="1"/>
      </contour>
      <contour>
        <pt x="558" y="900" on="1"/>
        <pt x="432" y="750" on="1"/>
        <pt x="352" y="750" on="1"/>
        <pt x="423" y="900" on="1"/>
      </contour>
    </TTGlyph>
    <TTGlyph name="afii10053" xMin="76" yMin="-10" xMax="595" yMax="710">
      <contour>
        <pt x="444" y="310" on="1"/>
        <pt x="219" y="310" on="1"/>
        <pt x="211" y="242" on="0"/>
        <pt x="219" y="154" on="0"/>
        <pt x="249" y="101" on="0"/>
        <pt x="297" y="80" on="0"/>
        <pt x="329" y="80" on="1"/>
        <pt x="357" y="80" on="0"/>
        <pt x="404" y="94" on="0"/>
        <pt x="421" y="102" on="1"/>
        <pt x="441" y="112" on="0"/>
        <pt x="457" y="125" on="1"/>
        <pt x="467" y="125" on="1"/>
        <pt x="497" y="45" on="1"/>
        <pt x="473" y="29" on="0"/>
        <pt x="443" y="17" on="1"/>
        <pt x="417" y="6" on="0"/>
        <pt x="346" y="-10" on="0"/>
        <pt x="303" y="-10" on="1"/>
        <pt x="237" y="-10" on="0"/>
        <pt x="140" y="31" on="0"/>
        <pt x="83" y="118" on="0"/>
        <pt x="69" y="254" on="0"/>
        <pt x="86" y="350" on="1"/>
        <pt x="103" y="446" on="0"/>
        <pt x="165" y="582" on="0"/>
        <pt x="251" y="669" on="0"/>
        <pt x="358" y="710" on="0"/>
        <pt x="420" y="710" on="1"/>
        <pt x="463" y="710" on="0"/>
        <pt x="529" y="693" on="0"/>
        <pt x="551" y="682" on="1"/>
        <pt x="577" y="670" on="0"/>
        <pt x="595" y="655" on="1"/>
        <pt x="536" y="575" on="1"/>
        <pt x="526" y="575" on="1"/>
        <pt x="515" y="587" on="0"/>
        <pt x="498" y="597" on="1"/>
        <pt x="484" y="605" on="0"/>
        <pt x="442" y="620" on="0"/>
        <pt x="414" y="620" on="1"/>
        <pt x="386" y="620" on="0"/>
        <pt x="334" y="599" on="0"/>
        <pt x="289" y="548" on="0"/>
        <pt x="250" y="464" on="0"/>
        <pt x="235" y="400" on="1"/>
        <pt x="460" y="400" on="1"/>
      </contour>
    </TTGlyph>
    <TTGlyph name="afii10054" xMin="17" yMin="-10" xMax="570" yMax="710">
      <contour>
        <pt x="375" y="710" on="1"/>
        <pt x="426" y="710" on="0"/>
        <pt x="499" y="693" on="0"/>
        <pt x="523" y="682" on="1"/>
        <pt x="551" y="670" on="0"/>
        <pt x="570" y="655" on="1"/>
        <pt x="511" y="575" on="1"/>
        <pt x="501" y="575" on="1"/>
        <pt x="489" y="587" on="0"/>
        <pt x="471" y="597" on="1"/>
        <pt x="455" y="605" on="0"/>
        <pt x="404" y="620" on="0"/>
        <pt x="369" y="620" on="1"/>
        <pt x="346" y="620" on="0"/>
        <pt x="305" y="605" on="0"/>
        <pt x="273" y="579" on="0"/>
        <pt x="251" y="547" on="0"/>
        <pt x="248" y="530" on="1"/>
        <pt x="242" y="495" on="0"/>
        <pt x="281" y="449" on="0"/>
        <pt x="345" y="411" on="0"/>
        <pt x="422" y="373" on="0"/>
        <pt x="484" y="321" on="0"/>
        <pt x="518" y="246" on="0"/>
        <pt x="508" y="190" on="1"/>
        <pt x="500" y="147" on="0"/>
        <pt x="456" y="74" on="0"/>
        <pt x="384" y="20" on="0"/>
        <pt x="285" y="-10" on="0"/>
        <pt x="223" y="-10" on="1"/>
        <pt x="168" y="-10" on="0"/>
        <pt x="91" y="6" on="0"/>
        <pt x="66" y="17" on="1"/>
        <pt x="37" y="29" on="0"/>
        <pt x="17" y="45" on="1"/>
        <pt x="77" y="125" on="1"/>
        <pt x="87" y="125" on="1"/>
        <pt x="100" y="112" on="0"/>
        <pt x="119" y="102" on="1"/>
        <pt x="136" y="94" on="0"/>
        <pt x="189" y="80" on="0"/>
        <pt x="229" y="80" on="1"/>
        <pt x="289" y="80" on="0"/>
        <pt x="358" y="135" on="0"/>
        <pt x="366" y="180" on="1"/>
        <pt x="372" y="215" on="0"/>
        <pt x="333" y="261" on="0"/>
        <pt x="269" y="299" on="0"/>
        <pt x="193" y="337" on="0"/>
        <pt x="131" y="389" on="0"/>
        <pt x="96" y="464" on="0"/>
        <pt x="106" y="520" on="1"/>
        <pt x="113" y="559" on="0"/>
        <pt x="157" y="629" on="0"/>
        <pt x="226" y="680" on="0"/>
        <pt x="319" y="710" on="0"/>
      </contour>
    </TTGlyph>
    <TTGlyph name="afii10055" xMin="50" yMin="0" xMax="313" yMax="700">
      <contour>
        <pt x="173" y="700" on="1"/>
        <pt x="313" y="700" on="1"/>
        <pt x="190" y="0" on="1"/>
        <pt x="50" y="0" on="1"/>
      </contour>
    </TTGlyph>
    <TTGlyph name="afii10056" xMin="60" yMin="0" xMax="448" yMax="915">
      <contour>
        <pt x="183" y="700" on="1"/>
        <pt x="323" y="700" on="1"/>
        <pt x="200" y="0" on="1"/>
        <pt x="60" y="0" on="1"/>
      </contour>
      <contour>
        <pt x="186" y="915" on="1"/>
        <pt x="216" y="915" on="0"/>
        <pt x="253" y="870" on="0"/>
        <pt x="248" y="840" on="1"/>
        <pt x="245" y="825" on="0"/>
        <pt x="228" y="798" on="0"/>
        <pt x="204" y="777" on="0"/>
        <pt x="174" y="765" on="0"/>
        <pt x="159" y="765" on="1"/>
        <pt x="129" y="765" on="0"/>
        <pt x="93" y="810" on="0"/>
        <pt x="98" y="840" on="1"/>
        <pt x="101" y="855" on="0"/>
        <pt x="118" y="882" on="0"/>
        <pt x="142" y="903" on="0"/>
        <pt x="171" y="915" on="0"/>
      </contour>
      <contour>
        <pt x="386" y="915" on="1"/>
        <pt x="416" y="915" on="0"/>
        <pt x="453" y="870" on="0"/>
        <pt x="448" y="840" on="1"/>
        <pt x="445" y="825" on="0"/>
        <pt x="428" y="798" on="0"/>
        <pt x="404" y="777" on="0"/>
        <pt x="374" y="765" on="0"/>
        <pt x="359" y="765" on="1"/>
        <pt x="329" y="765" on="0"/>
        <pt x="293" y="810" on="0"/>
        <pt x="298" y="840" on="1"/>
        <pt x="301" y="855" on="0"/>
        <pt x="318" y="882" on="0"/>
        <pt x="342" y="903" on="0"/>
        <pt x="371" y="915" on="0"/>
      </contour>
    </TTGlyph>
    <TTGlyph name="afii10057" xMin="-19" yMin="-10" xMax="473" yMax="700">
      <contour>
        <pt x="129" y="80" on="1"/>
        <pt x="174" y="80" on="0"/>
        <pt x="233" y="133" on="0"/>
        <pt x="243" y="190" on="1"/>
        <pt x="333" y="700" on="1"/>
        <pt x="473" y="700" on="1"/>
        <pt x="383" y="190" on="1"/>
        <pt x="367" y="100" on="0"/>
        <pt x="232" y="-10" on="0"/>
        <pt x="123" y="-10" on="1"/>
        <pt x="93" y="-10" on="0"/>
        <pt x="41" y="4" on="0"/>
        <pt x="22" y="12" on="1"/>
        <pt x="-1" y="22" on="0"/>
        <pt x="-19" y="35" on="1"/>
        <pt x="36" y="120" on="1"/>
        <pt x="46" y="120" on="1"/>
        <pt x="58" y="109" on="0"/>
        <pt x="71" y="100" on="1"/>
        <pt x="82" y="92" on="0"/>
        <pt x="112" y="80" on="0"/>
      </contour>
    </TTGlyph>
    <TTGlyph name="afii10058" xMin="-20" yMin="-10" xMax="906" yMax="700">
      <contour>
        <pt x="39" y="80" on="1"/>
        <pt x="57" y="80" on="0"/>
        <pt x="87" y="115" on="0"/>
        <pt x="98" y="160" on="1"/>
        <pt x="223" y="700" on="1"/>
        <pt x="648" y="700" on="1"/>
        <pt x="604" y="450" on="1"/>
        <pt x="674" y="450" on="1"/>
        <pt x="745" y="450" on="0"/>
        <pt x="842" y="420" on="0"/>
        <pt x="898" y="363" on="0"/>
        <pt x="914" y="279" on="0"/>
        <pt x="904" y="225" on="1"/>
        <pt x="885" y="116" on="0"/>
        <pt x="738" y="0" on="0"/>
        <pt x="595" y="0" on="1"/>
        <pt x="385" y="0" on="1"/>
        <pt x="492" y="610" on="1"/>
        <pt x="342" y="610" on="1"/>
        <pt x="238" y="160" on="1"/>
        <pt x="218" y="77" on="0"/>
        <pt x="123" y="-10" on="0"/>
        <pt x="48" y="-10" on="1"/>
        <pt x="34" y="-10" on="0"/>
        <pt x="11" y="-6" on="0"/>
        <pt x="1" y="-3" on="1"/>
        <pt x="-10" y="1" on="0"/>
        <pt x="-20" y="5" on="1"/>
        <pt x="4" y="85" on="1"/>
        <pt x="14" y="85" on="1"/>
        <pt x="19" y="83" on="0"/>
        <pt x="23" y="82" on="1"/>
        <pt x="33" y="80" on="0"/>
      </contour>
      <contour>
        <pt x="588" y="360" on="1"/>
        <pt x="540" y="90" on="1"/>
        <pt x="610" y="90" on="1"/>
        <pt x="678" y="90" on="0"/>
        <pt x="751" y="153" on="0"/>
        <pt x="764" y="225" on="1"/>
        <pt x="777" y="297" on="0"/>
        <pt x="726" y="360" on="0"/>
        <pt x="658" y="360" on="1"/>
      </contour>
    </TTGlyph>
    <TTGlyph name="afii10059" xMin="60" yMin="0" xMax="913" yMax="700">
      <contour>
        <pt x="680" y="430" on="1"/>
        <pt x="751" y="430" on="0"/>
        <pt x="848" y="401" on="0"/>
        <pt x="904" y="345" on="0"/>
        <pt x="921" y="266" on="0"/>
        <pt x="912" y="215" on="1"/>
        <pt x="895" y="114" on="0"/>
        <pt x="747" y="0" on="0"/>
        <pt x="605" y="0" on="1"/>
        <pt x="395" y="0" on="1"/>
        <pt x="454" y="340" on="1"/>
        <pt x="259" y="340" on="1"/>
        <pt x="200" y="0" on="1"/>
        <pt x="60" y="0" on="1"/>
        <pt x="183" y="700" on="1"/>
        <pt x="323" y="700" on="1"/>
        <pt x="275" y="430" on="1"/>
        <pt x="470" y="430" on="1"/>
        <pt x="518" y="700" on="1"/>
        <pt x="658" y="700" on="1"/>
        <pt x="610" y="430" on="1"/>
      </contour>
      <contour>
        <pt x="594" y="340" on="1"/>
        <pt x="550" y="90" on="1"/>
        <pt x="620" y="90" on="1"/>
        <pt x="688" y="90" on="0"/>
        <pt x="761" y="151" on="0"/>
        <pt x="772" y="215" on="1"/>
        <pt x="783" y="279" on="0"/>
        <pt x="732" y="340" on="0"/>
        <pt x="664" y="340" on="1"/>
      </contour>
    </TTGlyph>
    <TTGlyph name="afii10060" xMin="82" yMin="0" xMax="639" yMax="700">
      <contour>
        <pt x="245" y="0" on="1"/>
        <pt x="105" y="0" on="1"/>
        <pt x="212" y="610" on="1"/>
        <pt x="82" y="610" on="1"/>
        <pt x="98" y="700" on="1"/>
        <pt x="538" y="700" on="1"/>
        <pt x="522" y="610" on="1"/>
        <pt x="352" y="610" on="1"/>
        <pt x="323" y="445" on="1"/>
        <pt x="339" y="448" on="0"/>
        <pt x="358" y="452" on="1"/>
        <pt x="375" y="455" on="0"/>
        <pt x="420" y="460" on="0"/>
        <pt x="446" y="460" on="1"/>
        <pt x="559" y="460" on="0"/>
        <pt x="656" y="349" on="0"/>
        <pt x="639" y="255" on="1"/>
        <pt x="595" y="0" on="1"/>
        <pt x="455" y="0" on="1"/>
        <pt x="499" y="255" on="1"/>
        <pt x="520" y="370" on="0"/>
        <pt x="405" y="370" on="1"/>
        <pt x="384" y="370" on="0"/>
        <pt x="349" y="365" on="0"/>
        <pt x="335" y="362" on="1"/>
        <pt x="319" y="358" on="0"/>
        <pt x="307" y="355" on="1"/>
      </contour>
    </TTGlyph>
    <TTGlyph name="afii10061" xMin="60" yMin="-10" xMax="672" yMax="890">
      <contour>
        <pt x="566" y="890" on="1"/>
        <pt x="440" y="740" on="1"/>
        <pt x="360" y="740" on="1"/>
        <pt x="431" y="890" on="1"/>
      </contour>
      <contour>
        <pt x="424" y="365" on="1"/>
        <pt x="447" y="360" on="0"/>
        <pt x="465" y="346" on="1"/>
        <pt x="481" y="334" on="0"/>
        <pt x="507" y="290" on="0"/>
        <pt x="509" y="255" on="1"/>
        <pt x="515" y="115" on="1"/>
        <pt x="515" y="80" on="0"/>
        <pt x="545" y="80" on="1"/>
        <pt x="550" y="80" on="0"/>
        <pt x="558" y="82" on="1"/>
        <pt x="561" y="83" on="0"/>
        <pt x="564" y="85" on="1"/>
        <pt x="569" y="85" on="1"/>
        <pt x="565" y="5" on="1"/>
        <pt x="555" y="1" on="0"/>
        <pt x="542" y="-3" on="1"/>
        <pt x="531" y="-6" on="0"/>
        <pt x="498" y="-10" on="0"/>
        <pt x="478" y="-10" on="1"/>
        <pt x="425" y="-10" on="0"/>
        <pt x="372" y="48" on="0"/>
        <pt x="370" y="90" on="1"/>
        <pt x="364" y="250" on="1"/>
        <pt x="362" y="284" on="0"/>
        <pt x="334" y="315" on="0"/>
        <pt x="300" y="315" on="1"/>
        <pt x="255" y="315" on="1"/>
        <pt x="200" y="0" on="1"/>
        <pt x="60" y="0" on="1"/>
        <pt x="183" y="700" on="1"/>
        <pt x="323" y="700" on="1"/>
        <pt x="271" y="405" on="1"/>
        <pt x="301" y="405" on="1"/>
        <pt x="339" y="405" on="0"/>
        <pt x="378" y="437" on="0"/>
        <pt x="393" y="475" on="1"/>
        <pt x="447" y="610" on="1"/>
        <pt x="464" y="652" on="0"/>
        <pt x="537" y="710" on="0"/>
        <pt x="590" y="710" on="1"/>
        <pt x="609" y="710" on="0"/>
        <pt x="639" y="705" on="0"/>
        <pt x="650" y="702" on="1"/>
        <pt x="662" y="698" on="0"/>
        <pt x="672" y="695" on="1"/>
        <pt x="648" y="615" on="1"/>
        <pt x="643" y="615" on="1"/>
        <pt x="637" y="617" on="1"/>
        <pt x="634" y="618" on="0"/>
        <pt x="628" y="620" on="0"/>
        <pt x="624" y="620" on="1"/>
        <pt x="596" y="620" on="0"/>
        <pt x="583" y="585" on="1"/>
        <pt x="537" y="470" on="1"/>
        <pt x="523" y="435" on="0"/>
        <pt x="485" y="394" on="0"/>
        <pt x="467" y="383" on="1"/>
        <pt x="446" y="370" on="0"/>
      </contour>
    </TTGlyph>
    <TTGlyph name="afii10062" xMin="52" yMin="-15" xMax="663" yMax="875">
      <contour>
        <pt x="406" y="805" on="1"/>
        <pt x="429" y="805" on="0"/>
        <pt x="462" y="837" on="0"/>
        <pt x="469" y="875" on="1"/>
        <pt x="579" y="875" on="1"/>
        <pt x="567" y="807" on="0"/>
        <pt x="477" y="735" on="0"/>
        <pt x="394" y="735" on="1"/>
        <pt x="311" y="735" on="0"/>
        <pt x="247" y="807" on="0"/>
        <pt x="259" y="875" on="1"/>
        <pt x="369" y="875" on="1"/>
        <pt x="362" y="837" on="0"/>
        <pt x="383" y="805" on="0"/>
      </contour>
      <contour>
        <pt x="518" y="700" on="1"/>
        <pt x="663" y="700" on="1"/>
        <pt x="383" y="135" on="1"/>
        <pt x="367" y="103" on="0"/>
        <pt x="324" y="48" on="0"/>
        <pt x="268" y="8" on="0"/>
        <pt x="201" y="-15" on="0"/>
        <pt x="162" y="-15" on="1"/>
        <pt x="137" y="-15" on="0"/>
        <pt x="97" y="-6" on="0"/>
        <pt x="83" y="0" on="1"/>
        <pt x="66" y="6" on="0"/>
        <pt x="52" y="15" on="1"/>
        <pt x="102" y="100" on="1"/>
        <pt x="112" y="100" on="1"/>
        <pt x="118" y="92" on="0"/>
        <pt x="127" y="87" on="1"/>
        <pt x="135" y="82" on="0"/>
        <pt x="154" y="75" on="0"/>
        <pt x="168" y="75" on="1"/>
        <pt x="194" y="75" on="0"/>
        <pt x="236" y="109" on="0"/>
        <pt x="248" y="135" on="1"/>
        <pt x="272" y="185" on="1"/>
        <pt x="231" y="185" on="1"/>
        <pt x="108" y="700" on="1"/>
        <pt x="253" y="700" on="1"/>
        <pt x="324" y="365" on="1"/>
        <pt x="326" y="351" on="0"/>
        <pt x="329" y="325" on="0"/>
        <pt x="329" y="314" on="1"/>
        <pt x="329" y="290" on="1"/>
        <pt x="333" y="290" on="1"/>
        <pt x="336" y="302" on="0"/>
        <pt x="340" y="314" on="1"/>
        <pt x="343" y="325" on="0"/>
        <pt x="352" y="351" on="0"/>
        <pt x="359" y="365" on="1"/>
      </contour>
    </TTGlyph>
    <TTGlyph name="afii10065" xMin="40" yMin="-10" xMax="506" yMax="510">
      <contour>
        <pt x="366" y="320" on="1"/>
        <pt x="375" y="373" on="0"/>
        <pt x="338" y="420" on="0"/>
        <pt x="289" y="420" on="1"/>
        <pt x="264" y="420" on="0"/>
        <pt x="224" y="408" on="0"/>
        <pt x="209" y="400" on="1"/>
        <pt x="191" y="391" on="0"/>
        <pt x="177" y="380" on="1"/>
        <pt x="167" y="380" on="1"/>
        <pt x="136" y="460" on="1"/>
        <pt x="159" y="474" on="0"/>
        <pt x="187" y="485" on="1"/>
        <pt x="211" y="494" on="0"/>
        <pt x="276" y="510" on="0"/>
        <pt x="314" y="510" on="1"/>
        <pt x="368" y="510" on="0"/>
        <pt x="447" y="482" on="0"/>
        <pt x="496" y="431" on="0"/>
        <pt x="513" y="361" on="0"/>
        <pt x="506" y="320" on="1"/>
        <pt x="450" y="0" on="1"/>
        <pt x="350" y="0" on="1"/>
        <pt x="350" y="60" on="1"/>
        <pt x="345" y="60" on="1"/>
        <pt x="327" y="40" on="0"/>
        <pt x="305" y="25" on="1"/>
        <pt x="285" y="11" on="0"/>
        <pt x="232" y="-10" on="0"/>
        <pt x="198" y="-10" on="1"/>
        <pt x="108" y="-10" on="0"/>
        <pt x="28" y="77" on="0"/>
        <pt x="40" y="145" on="1"/>
        <pt x="46" y="181" on="0"/>
        <pt x="82" y="240" on="0"/>
        <pt x="144" y="282" on="0"/>
        <pt x="233" y="305" on="0"/>
        <pt x="293" y="305" on="1"/>
        <pt x="363" y="305" on="1"/>
      </contour>
      <contour>
        <pt x="347" y="215" on="1"/>
        <pt x="277" y="215" on="1"/>
        <pt x="232" y="215" on="0"/>
        <pt x="186" y="179" on="0"/>
        <pt x="180" y="145" on="1"/>
        <pt x="175" y="119" on="0"/>
        <pt x="205" y="85" on="0"/>
        <pt x="239" y="85" on="1"/>
        <pt x="258" y="85" on="0"/>
        <pt x="292" y="104" on="0"/>
        <pt x="306" y="115" on="1"/>
        <pt x="322" y="128" on="0"/>
        <pt x="335" y="145" on="1"/>
      </contour>
    </TTGlyph>
    <TTGlyph name="afii10066" xMin="65" yMin="-10" xMax="582" yMax="715">
      <contour>
        <pt x="428" y="585" on="1"/>
        <pt x="374" y="576" on="0"/>
        <pt x="296" y="547" on="0"/>
        <pt x="242" y="500" on="0"/>
        <pt x="210" y="432" on="0"/>
        <pt x="202" y="385" on="1"/>
        <pt x="232" y="427" on="0"/>
        <pt x="313" y="470" on="0"/>
        <pt x="362" y="470" on="1"/>
        <pt x="407" y="470" on="0"/>
        <pt x="477" y="439" on="0"/>
        <pt x="520" y="378" on="0"/>
        <pt x="535" y="288" on="0"/>
        <pt x="525" y="230" on="1"/>
        <pt x="505" y="113" on="0"/>
        <pt x="362" y="-10" on="0"/>
        <pt x="253" y="-10" on="1"/>
        <pt x="144" y="-10" on="0"/>
        <pt x="45" y="113" on="0"/>
        <pt x="65" y="230" on="1"/>
        <pt x="82" y="325" on="1"/>
        <pt x="98" y="417" on="0"/>
        <pt x="155" y="545" on="0"/>
        <pt x="239" y="630" on="0"/>
        <pt x="353" y="678" on="0"/>
        <pt x="426" y="690" on="1"/>
        <pt x="581" y="715" on="1"/>
        <pt x="582" y="610" on="1"/>
      </contour>
      <contour>
        <pt x="321" y="375" on="1"/>
        <pt x="302" y="375" on="0"/>
        <pt x="267" y="359" on="0"/>
        <pt x="236" y="325" on="0"/>
        <pt x="212" y="269" on="0"/>
        <pt x="205" y="230" on="1"/>
        <pt x="198" y="189" on="0"/>
        <pt x="202" y="132" on="0"/>
        <pt x="220" y="96" on="0"/>
        <pt x="250" y="80" on="0"/>
        <pt x="269" y="80" on="1"/>
        <pt x="288" y="80" on="0"/>
        <pt x="323" y="96" on="0"/>
        <pt x="354" y="132" on="0"/>
        <pt x="378" y="189" on="0"/>
        <pt x="385" y="230" on="1"/>
        <pt x="392" y="269" on="0"/>
        <pt x="388" y="325" on="0"/>
        <pt x="370" y="359" on="0"/>
        <pt x="340" y="375" on="0"/>
      </contour>
    </TTGlyph>
    <TTGlyph name="afii10067" xMin="45" yMin="0" xMax="515" yMax="500">
      <contour>
        <pt x="390" y="260" on="1"/>
        <pt x="424" y="254" on="0"/>
        <pt x="449" y="239" on="1"/>
        <pt x="459" y="232" on="0"/>
        <pt x="479" y="214" on="0"/>
        <pt x="492" y="188" on="0"/>
        <pt x="497" y="156" on="0"/>
        <pt x="493" y="135" on="1"/>
        <pt x="488" y="107" on="0"/>
        <pt x="456" y="58" on="0"/>
        <pt x="396" y="21" on="0"/>
        <pt x="307" y="0" on="0"/>
        <pt x="245" y="0" on="1"/>
        <pt x="45" y="0" on="1"/>
        <pt x="133" y="500" on="1"/>
        <pt x="333" y="500" on="1"/>
        <pt x="387" y="500" on="0"/>
        <pt x="461" y="479" on="0"/>
        <pt x="505" y="443" on="0"/>
        <pt x="519" y="396" on="0"/>
        <pt x="515" y="370" on="1"/>
        <pt x="509" y="336" on="0"/>
        <pt x="468" y="293" on="0"/>
        <pt x="446" y="281" on="1"/>
        <pt x="420" y="267" on="0"/>
      </contour>
      <contour>
        <pt x="257" y="410" on="1"/>
        <pt x="237" y="300" on="1"/>
        <pt x="297" y="300" on="1"/>
        <pt x="327" y="300" on="0"/>
        <pt x="368" y="332" on="0"/>
        <pt x="372" y="355" on="1"/>
        <pt x="377" y="378" on="0"/>
        <pt x="347" y="410" on="0"/>
        <pt x="317" y="410" on="1"/>
      </contour>
      <contour>
        <pt x="222" y="210" on="1"/>
        <pt x="200" y="90" on="1"/>
        <pt x="260" y="90" on="1"/>
        <pt x="305" y="90" on="0"/>
        <pt x="351" y="124" on="0"/>
        <pt x="356" y="150" on="1"/>
        <pt x="361" y="176" on="0"/>
        <pt x="327" y="210" on="0"/>
        <pt x="282" y="210" on="1"/>
      </contour>
    </TTGlyph>
    <TTGlyph name="afii10068" xMin="45" yMin="0" xMax="483" yMax="500">
      <contour>
        <pt x="467" y="410" on="1"/>
        <pt x="257" y="410" on="1"/>
        <pt x="185" y="0" on="1"/>
        <pt x="45" y="0" on="1"/>
        <pt x="133" y="500" on="1"/>
        <pt x="483" y="500" on="1"/>
      </contour>
    </TTGlyph>
    <TTGlyph name="afii10069" xMin="-44" yMin="-140" xMax="563" yMax="500">
      <contour>
        <pt x="563" y="500" on="1"/>
        <pt x="490" y="90" on="1"/>
        <pt x="555" y="90" on="1"/>
        <pt x="515" y="-140" on="1"/>
        <pt x="410" y="-140" on="1"/>
        <pt x="415" y="0" on="1"/>
        <pt x="110" y="0" on="1"/>
        <pt x="65" y="-140" on="1"/>
        <pt x="-44" y="-140" on="1"/>
        <pt x="-5" y="90" on="1"/>
        <pt x="45" y="90" on="1"/>
        <pt x="60" y="101" on="0"/>
        <pt x="73" y="118" on="1"/>
        <pt x="84" y="132" on="0"/>
        <pt x="109" y="178" on="0"/>
        <pt x="117" y="210" on="1"/>
        <pt x="188" y="500" on="1"/>
      </contour>
      <contour>
        <pt x="350" y="90" on="1"/>
        <pt x="407" y="410" on="1"/>
        <pt x="302" y="410" on="1"/>
        <pt x="253" y="210" on="1"/>
        <pt x="245" y="178" on="0"/>
        <pt x="220" y="132" on="0"/>
        <pt x="209" y="118" on="1"/>
        <pt x="196" y="101" on="0"/>
        <pt x="181" y="90" on="1"/>
      </contour>
    </TTGlyph>
    <TTGlyph name="afii10070" xMin="59" yMin="-10" xMax="500" yMax="510">
      <contour>
        <pt x="309" y="420" on="1"/>
        <pt x="294" y="420" on="0"/>
        <pt x="263" y="405" on="0"/>
        <pt x="235" y="374" on="0"/>
        <pt x="213" y="327" on="0"/>
        <pt x="207" y="295" on="1"/>
        <pt x="367" y="295" on="1"/>
        <pt x="378" y="359" on="0"/>
        <pt x="339" y="420" on="0"/>
      </contour>
      <contour>
        <pt x="263" y="-10" on="1"/>
        <pt x="13" y="-10" on="0"/>
        <pt x="59" y="250" on="1"/>
        <pt x="82" y="382" on="0"/>
        <pt x="222" y="510" on="0"/>
        <pt x="324" y="510" on="1"/>
        <pt x="425" y="510" on="0"/>
        <pt x="522" y="384" on="0"/>
        <pt x="500" y="260" on="1"/>
        <pt x="496" y="235" on="1"/>
        <pt x="461" y="205" on="1"/>
        <pt x="191" y="205" on="1"/>
        <pt x="169" y="80" on="0"/>
        <pt x="289" y="80" on="1"/>
        <pt x="313" y="80" on="0"/>
        <pt x="354" y="92" on="0"/>
        <pt x="369" y="100" on="1"/>
        <pt x="387" y="109" on="0"/>
        <pt x="401" y="120" on="1"/>
        <pt x="411" y="120" on="1"/>
        <pt x="442" y="40" on="1"/>
        <pt x="418" y="26" on="0"/>
        <pt x="390" y="15" on="1"/>
        <pt x="366" y="5" on="0"/>
        <pt x="301" y="-10" on="0"/>
      </contour>
    </TTGlyph>
    <TTGlyph name="afii10071" xMin="59" yMin="-10" xMax="506" yMax="705">
      <contour>
        <pt x="309" y="420" on="1"/>
        <pt x="294" y="420" on="0"/>
        <pt x="263" y="405" on="0"/>
        <pt x="235" y="374" on="0"/>
        <pt x="213" y="327" on="0"/>
        <pt x="207" y="295" on="1"/>
        <pt x="367" y="295" on="1"/>
        <pt x="378" y="359" on="0"/>
        <pt x="339" y="420" on="0"/>
      </contour>
      <contour>
        <pt x="263" y="-10" on="1"/>
        <pt x="13" y="-10" on="0"/>
        <pt x="59" y="250" on="1"/>
        <pt x="82" y="382" on="0"/>
        <pt x="222" y="510" on="0"/>
        <pt x="324" y="510" on="1"/>
        <pt x="425" y="510" on="0"/>
        <pt x="522" y="384" on="0"/>
        <pt x="500" y="260" on="1"/>
        <pt x="496" y="235" on="1"/>
        <pt x="461" y="205" on="1"/>
        <pt x="191" y="205" on="1"/>
        <pt x="169" y="80" on="0"/>
        <pt x="289" y="80" on="1"/>
        <pt x="313" y="80" on="0"/>
        <pt x="354" y="92" on="0"/>
        <pt x="369" y="100" on="1"/>
        <pt x="387" y="109" on="0"/>
        <pt x="401" y="120" on="1"/>
        <pt x="411" y="120" on="1"/>
        <pt x="442" y="40" on="1"/>
        <pt x="418" y="26" on="0"/>
        <pt x="390" y="15" on="1"/>
        <pt x="366" y="5" on="0"/>
        <pt x="301" y="-10" on="0"/>
      </contour>
      <contour>
        <pt x="254" y="705" on="1"/>
        <pt x="282" y="705" on="0"/>
        <pt x="316" y="663" on="0"/>
        <pt x="311" y="635" on="1"/>
        <pt x="309" y="621" on="0"/>
        <pt x="293" y="596" on="0"/>
        <pt x="270" y="576" on="0"/>
        <pt x="243" y="565" on="0"/>
        <pt x="229" y="565" on="1"/>
        <pt x="201" y="565" on="0"/>
        <pt x="166" y="607" on="0"/>
        <pt x="171" y="635" on="1"/>
        <pt x="174" y="649" on="0"/>
        <pt x="190" y="674" on="0"/>
        <pt x="213" y="694" on="0"/>
        <pt x="240" y="705" on="0"/>
      </contour>
      <contour>
        <pt x="449" y="705" on="1"/>
        <pt x="477" y="705" on="0"/>
        <pt x="511" y="663" on="0"/>
        <pt x="506" y="635" on="1"/>
        <pt x="504" y="621" on="0"/>
        <pt x="488" y="596" on="0"/>
        <pt x="465" y="576" on="0"/>
        <pt x="438" y="565" on="0"/>
        <pt x="424" y="565" on="1"/>
        <pt x="396" y="565" on="0"/>
        <pt x="361" y="607" on="0"/>
        <pt x="366" y="635" on="1"/>
        <pt x="369" y="649" on="0"/>
        <pt x="385" y="674" on="0"/>
        <pt x="408" y="694" on="0"/>
        <pt x="435" y="705" on="0"/>
      </contour>
    </TTGlyph>
    <TTGlyph name="afii10072" xMin="-5" yMin="-10" xMax="802" yMax="510">
      <contour>
        <pt x="302" y="210" on="1"/>
        <pt x="279" y="210" on="0"/>
        <pt x="252" y="189" on="0"/>
        <pt x="244" y="170" on="1"/>
        <pt x="202" y="70" on="1"/>
        <pt x="188" y="36" on="0"/>
        <pt x="126" y="-10" on="0"/>
        <pt x="73" y="-10" on="1"/>
        <pt x="56" y="-10" on="0"/>
        <pt x="28" y="-6" on="0"/>
        <pt x="17" y="-3" on="1"/>
        <pt x="5" y="1" on="0"/>
        <pt x="-5" y="5" on="1"/>
        <pt x="24" y="85" on="1"/>
        <pt x="29" y="85" on="1"/>
        <pt x="31" y="83" on="0"/>
        <pt x="35" y="82" on="1"/>
        <pt x="43" y="80" on="0"/>
        <pt x="49" y="80" on="1"/>
        <pt x="57" y="80" on="0"/>
        <pt x="73" y="94" on="0"/>
        <pt x="78" y="105" on="1"/>
        <pt x="112" y="185" on="1"/>
        <pt x="123" y="209" on="0"/>
        <pt x="160" y="239" on="0"/>
        <pt x="179" y="247" on="1"/>
        <pt x="201" y="257" on="0"/>
        <pt x="225" y="260" on="1"/>
        <pt x="205" y="264" on="0"/>
        <pt x="188" y="272" on="1"/>
        <pt x="174" y="279" on="0"/>
        <pt x="149" y="304" on="0"/>
        <pt x="147" y="325" on="1"/>
        <pt x="139" y="395" on="1"/>
        <pt x="138" y="406" on="0"/>
        <pt x="127" y="420" on="0"/>
        <pt x="119" y="420" on="1"/>
        <pt x="115" y="420" on="0"/>
        <pt x="108" y="418" on="0"/>
        <pt x="105" y="417" on="1"/>
        <pt x="101" y="416" on="0"/>
        <pt x="98" y="415" on="1"/>
        <pt x="93" y="415" on="1"/>
        <pt x="92" y="495" on="1"/>
        <pt x="103" y="498" on="0"/>
        <pt x="116" y="502" on="1"/>
        <pt x="127" y="505" on="0"/>
        <pt x="157" y="510" on="0"/>
        <pt x="174" y="510" on="1"/>
        <pt x="227" y="510" on="0"/>
        <pt x="272" y="464" on="0"/>
        <pt x="275" y="430" on="1"/>
        <pt x="284" y="340" on="1"/>
        <pt x="286" y="321" on="0"/>
        <pt x="304" y="300" on="0"/>
        <pt x="327" y="300" on="1"/>
        <pt x="342" y="300" on="1"/>
        <pt x="378" y="500" on="1"/>
        <pt x="518" y="500" on="1"/>
        <pt x="482" y="300" on="1"/>
        <pt x="497" y="300" on="1"/>
        <pt x="520" y="300" on="0"/>
        <pt x="546" y="321" on="0"/>
        <pt x="554" y="340" on="1"/>
        <pt x="595" y="430" on="1"/>
        <pt x="610" y="464" on="0"/>
        <pt x="671" y="510" on="0"/>
        <pt x="724" y="510" on="1"/>
        <pt x="741" y="510" on="0"/>
        <pt x="769" y="505" on="0"/>
        <pt x="780" y="502" on="1"/>
        <pt x="792" y="498" on="0"/>
        <pt x="802" y="495" on="1"/>
        <pt x="773" y="415" on="1"/>
        <pt x="768" y="415" on="1"/>
        <pt x="762" y="417" on="1"/>
        <pt x="759" y="418" on="0"/>
        <pt x="753" y="420" on="0"/>
        <pt x="749" y="420" on="1"/>
        <pt x="741" y="420" on="0"/>
        <pt x="724" y="406" on="0"/>
        <pt x="719" y="395" on="1"/>
        <pt x="687" y="325" on="1"/>
        <pt x="677" y="304" on="0"/>
        <pt x="643" y="279" on="0"/>
        <pt x="626" y="272" on="1"/>
        <pt x="607" y="264" on="0"/>
        <pt x="585" y="260" on="1"/>
        <pt x="609" y="257" on="0"/>
        <pt x="627" y="247" on="1"/>
        <pt x="643" y="239" on="0"/>
        <pt x="670" y="209" on="0"/>
        <pt x="672" y="185" on="1"/>
        <pt x="678" y="105" on="1"/>
        <pt x="679" y="94" on="0"/>
        <pt x="691" y="80" on="0"/>
        <pt x="699" y="80" on="1"/>
        <pt x="705" y="80" on="0"/>
        <pt x="713" y="82" on="1"/>
        <pt x="717" y="83" on="0"/>
        <pt x="719" y="85" on="1"/>
        <pt x="724" y="85" on="1"/>
        <pt x="725" y="5" on="1"/>
        <pt x="714" y="1" on="0"/>
        <pt x="701" y="-3" on="1"/>
        <pt x="690" y="-6" on="0"/>
        <pt x="660" y="-10" on="0"/>
        <pt x="643" y="-10" on="1"/>
        <pt x="590" y="-10" on="0"/>
        <pt x="544" y="36" on="0"/>
        <pt x="542" y="70" on="1"/>
        <pt x="534" y="170" on="1"/>
        <pt x="533" y="189" on="0"/>
        <pt x="515" y="210" on="0"/>
        <pt x="492" y="210" on="1"/>
        <pt x="467" y="210" on="1"/>
        <pt x="430" y="0" on="1"/>
        <pt x="290" y="0" on="1"/>
        <pt x="327" y="210" on="1"/>
      </contour>
    </TTGlyph>
    <TTGlyph name="afii10073" xMin="-3" yMin="-10" xMax="461" yMax="510">
      <contour>
        <pt x="189" y="80" on="1"/>
        <pt x="238" y="80" on="0"/>
        <pt x="285" y="115" on="0"/>
        <pt x="290" y="145" on="1"/>
        <pt x="295" y="175" on="0"/>
        <pt x="262" y="210" on="0"/>
        <pt x="217" y="210" on="1"/>
        <pt x="132" y="210" on="1"/>
        <pt x="147" y="300" on="1"/>
        <pt x="232" y="300" on="1"/>
        <pt x="270" y="300" on="0"/>
        <pt x="314" y="335" on="0"/>
        <pt x="319" y="365" on="1"/>
        <pt x="323" y="388" on="0"/>
        <pt x="289" y="420" on="0"/>
        <pt x="244" y="420" on="1"/>
        <pt x="215" y="420" on="0"/>
        <pt x="171" y="408" on="0"/>
        <pt x="155" y="400" on="1"/>
        <pt x="137" y="391" on="0"/>
        <pt x="122" y="380" on="1"/>
        <pt x="112" y="380" on="1"/>
        <pt x="81" y="460" on="1"/>
        <pt x="105" y="474" on="0"/>
        <pt x="134" y="485" on="1"/>
        <pt x="159" y="494" on="0"/>
        <pt x="227" y="510" on="0"/>
        <pt x="269" y="510" on="1"/>
        <pt x="327" y="510" on="0"/>
        <pt x="405" y="489" on="0"/>
        <pt x="451" y="452" on="0"/>
        <pt x="466" y="403" on="0"/>
        <pt x="461" y="375" on="1"/>
        <pt x="454" y="337" on="0"/>
        <pt x="410" y="292" on="0"/>
        <pt x="386" y="280" on="1"/>
        <pt x="358" y="266" on="0"/>
        <pt x="325" y="260" on="1"/>
        <pt x="359" y="254" on="0"/>
        <pt x="384" y="238" on="1"/>
        <pt x="405" y="224" on="0"/>
        <pt x="434" y="173" on="0"/>
        <pt x="427" y="130" on="1"/>
        <pt x="422" y="100" on="0"/>
        <pt x="389" y="49" on="0"/>
        <pt x="330" y="11" on="0"/>
        <pt x="243" y="-10" on="0"/>
        <pt x="183" y="-10" on="1"/>
        <pt x="135" y="-10" on="0"/>
        <pt x="66" y="5" on="0"/>
        <pt x="43" y="15" on="1"/>
        <pt x="16" y="26" on="0"/>
        <pt x="-3" y="40" on="1"/>
        <pt x="56" y="120" on="1"/>
        <pt x="66" y="120" on="1"/>
        <pt x="76" y="109" on="0"/>
        <pt x="94" y="100" on="1"/>
        <pt x="108" y="92" on="0"/>
        <pt x="155" y="80" on="0"/>
      </contour>
    </TTGlyph>
    <TTGlyph name="afii10074" xMin="45" yMin="0" xMax="573" yMax="500">
      <contour>
        <pt x="573" y="500" on="1"/>
        <pt x="485" y="0" on="1"/>
        <pt x="345" y="0" on="1"/>
        <pt x="388" y="245" on="1"/>
        <pt x="390" y="256" on="0"/>
        <pt x="395" y="278" on="0"/>
        <pt x="397" y="286" on="1"/>
        <pt x="400" y="296" on="0"/>
        <pt x="402" y="305" on="1"/>
        <pt x="398" y="305" on="1"/>
        <pt x="394" y="296" on="0"/>
        <pt x="389" y="286" on="1"/>
        <pt x="384" y="278" on="0"/>
        <pt x="371" y="256" on="0"/>
        <pt x="363" y="245" on="1"/>
        <pt x="180" y="0" on="1"/>
        <pt x="45" y="0" on="1"/>
        <pt x="133" y="500" on="1"/>
        <pt x="273" y="500" on="1"/>
        <pt x="229" y="255" on="1"/>
        <pt x="227" y="244" on="0"/>
        <pt x="222" y="222" on="0"/>
        <pt x="220" y="214" on="1"/>
        <pt x="217" y="204" on="0"/>
        <pt x="215" y="195" on="1"/>
        <pt x="219" y="195" on="1"/>
        <pt x="223" y="204" on="0"/>
        <pt x="228" y="214" on="1"/>
        <pt x="233" y="222" on="0"/>
        <pt x="246" y="244" on="0"/>
        <pt x="254" y="255" on="1"/>
        <pt x="438" y="500" on="1"/>
      </contour>
    </TTGlyph>
    <TTGlyph name="afii10075" xMin="45" yMin="0" xMax="573" yMax="690">
      <contour>
        <pt x="573" y="500" on="1"/>
        <pt x="485" y="0" on="1"/>
        <pt x="345" y="0" on="1"/>
        <pt x="388" y="245" on="1"/>
        <pt x="390" y="256" on="0"/>
        <pt x="395" y="278" on="0"/>
        <pt x="397" y="286" on="1"/>
        <pt x="400" y="296" on="0"/>
        <pt x="402" y="305" on="1"/>
        <pt x="398" y="305" on="1"/>
        <pt x="394" y="296" on="0"/>
        <pt x="389" y="286" on="1"/>
        <pt x="384" y="278" on="0"/>
        <pt x="371" y="256" on="0"/>
        <pt x="363" y="245" on="1"/>
        <pt x="180" y="0" on="1"/>
        <pt x="45" y="0" on="1"/>
        <pt x="133" y="500" on="1"/>
        <pt x="273" y="500" on="1"/>
        <pt x="229" y="255" on="1"/>
        <pt x="227" y="244" on="0"/>
        <pt x="222" y="222" on="0"/>
        <pt x="220" y="214" on="1"/>
        <pt x="217" y="204" on="0"/>
        <pt x="215" y="195" on="1"/>
        <pt x="219" y="195" on="1"/>
        <pt x="223" y="204" on="0"/>
        <pt x="228" y="214" on="1"/>
        <pt x="233" y="222" on="0"/>
        <pt x="246" y="244" on="0"/>
        <pt x="254" y="255" on="1"/>
        <pt x="438" y="500" on="1"/>
      </contour>
      <contour>
        <pt x="374" y="620" on="1"/>
        <pt x="397" y="620" on="0"/>
        <pt x="429" y="652" on="0"/>
        <pt x="436" y="690" on="1"/>
        <pt x="546" y="690" on="1"/>
        <pt x="534" y="622" on="0"/>
        <pt x="444" y="550" on="0"/>
        <pt x="361" y="550" on="1"/>
        <pt x="278" y="550" on="0"/>
        <pt x="214" y="622" on="0"/>
        <pt x="226" y="690" on="1"/>
        <pt x="336" y="690" on="1"/>
        <pt x="329" y="652" on="0"/>
        <pt x="351" y="620" on="0"/>
      </contour>
    </TTGlyph>
    <TTGlyph name="afii10076" xMin="45" yMin="-10" xMax="572" yMax="510">
      <contour>
        <pt x="457" y="325" on="1"/>
        <pt x="447" y="304" on="0"/>
        <pt x="413" y="279" on="0"/>
        <pt x="396" y="272" on="1"/>
        <pt x="377" y="264" on="0"/>
        <pt x="355" y="260" on="1"/>
        <pt x="379" y="257" on="0"/>
        <pt x="397" y="247" on="1"/>
        <pt x="413" y="239" on="0"/>
        <pt x="440" y="209" on="0"/>
        <pt x="442" y="185" on="1"/>
        <pt x="448" y="105" on="1"/>
        <pt x="449" y="94" on="0"/>
        <pt x="461" y="80" on="0"/>
        <pt x="469" y="80" on="1"/>
        <pt x="475" y="80" on="0"/>
        <pt x="483" y="82" on="1"/>
        <pt x="487" y="83" on="0"/>
        <pt x="489" y="85" on="1"/>
        <pt x="494" y="85" on="1"/>
        <pt x="495" y="5" on="1"/>
        <pt x="484" y="1" on="0"/>
        <pt x="471" y="-3" on="1"/>
        <pt x="460" y="-6" on="0"/>
        <pt x="430" y="-10" on="0"/>
        <pt x="413" y="-10" on="1"/>
        <pt x="360" y="-10" on="0"/>
        <pt x="314" y="36" on="0"/>
        <pt x="312" y="70" on="1"/>
        <pt x="304" y="170" on="1"/>
        <pt x="303" y="189" on="0"/>
        <pt x="285" y="210" on="0"/>
        <pt x="262" y="210" on="1"/>
        <pt x="222" y="210" on="1"/>
        <pt x="185" y="0" on="1"/>
        <pt x="45" y="0" on="1"/>
        <pt x="133" y="500" on="1"/>
        <pt x="273" y="500" on="1"/>
        <pt x="237" y="300" on="1"/>
        <pt x="267" y="300" on="1"/>
        <pt x="290" y="300" on="0"/>
        <pt x="316" y="321" on="0"/>
        <pt x="324" y="340" on="1"/>
        <pt x="365" y="430" on="1"/>
        <pt x="380" y="464" on="0"/>
        <pt x="441" y="510" on="0"/>
        <pt x="494" y="510" on="1"/>
        <pt x="511" y="510" on="0"/>
        <pt x="539" y="505" on="0"/>
        <pt x="550" y="502" on="1"/>
        <pt x="562" y="498" on="0"/>
        <pt x="572" y="495" on="1"/>
        <pt x="543" y="415" on="1"/>
        <pt x="538" y="415" on="1"/>
        <pt x="532" y="417" on="1"/>
        <pt x="529" y="418" on="0"/>
        <pt x="523" y="420" on="0"/>
        <pt x="519" y="420" on="1"/>
        <pt x="511" y="420" on="0"/>
        <pt x="494" y="406" on="0"/>
        <pt x="489" y="395" on="1"/>
      </contour>
    </TTGlyph>
    <TTGlyph name="afii10077" xMin="-20" yMin="-10" xMax="558" yMax="500">
      <contour>
        <pt x="34" y="80" on="1"/>
        <pt x="49" y="80" on="0"/>
        <pt x="82" y="115" on="0"/>
        <pt x="93" y="160" on="1"/>
        <pt x="173" y="500" on="1"/>
        <pt x="558" y="500" on="1"/>
        <pt x="470" y="0" on="1"/>
        <pt x="330" y="0" on="1"/>
        <pt x="402" y="410" on="1"/>
        <pt x="287" y="410" on="1"/>
        <pt x="228" y="160" on="1"/>
        <pt x="207" y="73" on="0"/>
        <pt x="116" y="-10" on="0"/>
        <pt x="48" y="-10" on="1"/>
        <pt x="34" y="-10" on="0"/>
        <pt x="11" y="-6" on="0"/>
        <pt x="1" y="-3" on="1"/>
        <pt x="-10" y="1" on="0"/>
        <pt x="-20" y="5" on="1"/>
        <pt x="4" y="85" on="1"/>
        <pt x="14" y="85" on="1"/>
        <pt x="16" y="83" on="0"/>
        <pt x="20" y="82" on="1"/>
        <pt x="28" y="80" on="0"/>
      </contour>
    </TTGlyph>
    <TTGlyph name="afii10078" xMin="45" yMin="0" xMax="723" yMax="500">
      <contour>
        <pt x="185" y="0" on="1"/>
        <pt x="45" y="0" on="1"/>
        <pt x="133" y="500" on="1"/>
        <pt x="273" y="500" on="1"/>
        <pt x="364" y="250" on="1"/>
        <pt x="366" y="242" on="0"/>
        <pt x="370" y="225" on="0"/>
        <pt x="371" y="217" on="1"/>
        <pt x="372" y="208" on="0"/>
        <pt x="373" y="200" on="1"/>
        <pt x="377" y="200" on="1"/>
        <pt x="381" y="208" on="0"/>
        <pt x="385" y="217" on="1"/>
        <pt x="389" y="225" on="0"/>
        <pt x="398" y="242" on="0"/>
        <pt x="404" y="250" on="1"/>
        <pt x="583" y="500" on="1"/>
        <pt x="723" y="500" on="1"/>
        <pt x="635" y="0" on="1"/>
        <pt x="495" y="0" on="1"/>
        <pt x="533" y="220" on="1"/>
        <pt x="535" y="231" on="0"/>
        <pt x="541" y="253" on="0"/>
        <pt x="543" y="261" on="1"/>
        <pt x="546" y="271" on="0"/>
        <pt x="548" y="280" on="1"/>
        <pt x="544" y="280" on="1"/>
        <pt x="539" y="271" on="0"/>
        <pt x="534" y="261" on="1"/>
        <pt x="529" y="253" on="0"/>
        <pt x="516" y="231" on="0"/>
        <pt x="508" y="220" on="1"/>
        <pt x="409" y="80" on="1"/>
        <pt x="299" y="80" on="1"/>
        <pt x="248" y="220" on="1"/>
        <pt x="240" y="243" on="0"/>
        <pt x="237" y="261" on="1"/>
        <pt x="235" y="271" on="0"/>
        <pt x="234" y="280" on="1"/>
        <pt x="230" y="280" on="1"/>
        <pt x="230" y="271" on="0"/>
        <pt x="229" y="261" on="1"/>
        <pt x="228" y="253" on="0"/>
        <pt x="225" y="231" on="0"/>
        <pt x="223" y="220" on="1"/>
      </contour>
    </TTGlyph>
    <TTGlyph name="afii10079" xMin="45" yMin="0" xMax="573" yMax="500">
      <contour>
        <pt x="485" y="0" on="1"/>
        <pt x="345" y="0" on="1"/>
        <pt x="382" y="210" on="1"/>
        <pt x="222" y="210" on="1"/>
        <pt x="185" y="0" on="1"/>
        <pt x="45" y="0" on="1"/>
        <pt x="133" y="500" on="1"/>
        <pt x="273" y="500" on="1"/>
        <pt x="237" y="300" on="1"/>
        <pt x="397" y="300" on="1"/>
        <pt x="433" y="500" on="1"/>
        <pt x="573" y="500" on="1"/>
      </contour>
    </TTGlyph>
    <TTGlyph name="afii10080" xMin="59" yMin="-10" xMax="519" yMax="510">
      <contour>
        <pt x="379" y="250" on="1"/>
        <pt x="388" y="299" on="0"/>
        <pt x="385" y="364" on="0"/>
        <pt x="368" y="403" on="0"/>
        <pt x="338" y="420" on="0"/>
        <pt x="319" y="420" on="1"/>
        <pt x="300" y="420" on="0"/>
        <pt x="265" y="403" on="0"/>
        <pt x="233" y="364" on="0"/>
        <pt x="208" y="299" on="0"/>
        <pt x="199" y="250" on="1"/>
        <pt x="190" y="201" on="0"/>
        <pt x="193" y="136" on="0"/>
        <pt x="210" y="97" on="0"/>
        <pt x="240" y="80" on="0"/>
        <pt x="259" y="80" on="1"/>
        <pt x="278" y="80" on="0"/>
        <pt x="313" y="97" on="0"/>
        <pt x="345" y="136" on="0"/>
        <pt x="370" y="201" on="0"/>
      </contour>
      <contour>
        <pt x="519" y="250" on="1"/>
        <pt x="496" y="118" on="0"/>
        <pt x="352" y="-10" on="0"/>
        <pt x="243" y="-10" on="1"/>
        <pt x="134" y="-10" on="0"/>
        <pt x="36" y="118" on="0"/>
        <pt x="59" y="250" on="1"/>
        <pt x="82" y="382" on="0"/>
        <pt x="225" y="510" on="0"/>
        <pt x="334" y="510" on="1"/>
        <pt x="443" y="510" on="0"/>
        <pt x="541" y="381" on="0"/>
      </contour>
    </TTGlyph>
    <TTGlyph name="afii10081" xMin="45" yMin="0" xMax="573" yMax="500">
      <contour>
        <pt x="485" y="0" on="1"/>
        <pt x="345" y="0" on="1"/>
        <pt x="417" y="410" on="1"/>
        <pt x="257" y="410" on="1"/>
        <pt x="185" y="0" on="1"/>
        <pt x="45" y="0" on="1"/>
        <pt x="133" y="500" on="1"/>
        <pt x="573" y="500" on="1"/>
      </contour>
    </TTGlyph>
    <TTGlyph name="afii10082" xMin="9" yMin="-200" xMax="544" yMax="510">
      <contour>
        <pt x="204" y="110" on="1"/>
        <pt x="211" y="101" on="0"/>
        <pt x="222" y="95" on="1"/>
        <pt x="231" y="89" on="0"/>
        <pt x="257" y="80" on="0"/>
        <pt x="274" y="80" on="1"/>
        <pt x="295" y="80" on="0"/>
        <pt x="332" y="97" on="0"/>
        <pt x="365" y="136" on="0"/>
        <pt x="390" y="201" on="0"/>
        <pt x="399" y="250" on="1"/>
        <pt x="407" y="297" on="0"/>
        <pt x="404" y="360" on="0"/>
        <pt x="388" y="399" on="0"/>
        <pt x="360" y="415" on="0"/>
        <pt x="343" y="415" on="1"/>
        <pt x="322" y="415" on="0"/>
        <pt x="287" y="396" on="0"/>
        <pt x="274" y="385" on="1"/>
        <pt x="259" y="372" on="0"/>
        <pt x="247" y="355" on="1"/>
      </contour>
      <contour>
        <pt x="133" y="500" on="1"/>
        <pt x="233" y="500" on="1"/>
        <pt x="232" y="440" on="1"/>
        <pt x="237" y="440" on="1"/>
        <pt x="254" y="459" on="0"/>
        <pt x="277" y="475" on="1"/>
        <pt x="296" y="488" on="0"/>
        <pt x="350" y="510" on="0"/>
        <pt x="384" y="510" on="1"/>
        <pt x="427" y="510" on="0"/>
        <pt x="495" y="478" on="0"/>
        <pt x="537" y="413" on="0"/>
        <pt x="550" y="316" on="0"/>
        <pt x="539" y="250" on="1"/>
        <pt x="527" y="184" on="0"/>
        <pt x="480" y="87" on="0"/>
        <pt x="413" y="22" on="0"/>
        <pt x="330" y="-10" on="0"/>
        <pt x="283" y="-10" on="1"/>
        <pt x="260" y="-10" on="0"/>
        <pt x="225" y="-1" on="0"/>
        <pt x="213" y="5" on="1"/>
        <pt x="199" y="11" on="0"/>
        <pt x="188" y="20" on="1"/>
        <pt x="156" y="-160" on="1"/>
        <pt x="109" y="-200" on="1"/>
        <pt x="9" y="-200" on="1"/>
      </contour>
    </TTGlyph>
    <TTGlyph name="afii10083" xMin="59" yMin="-10" xMax="501" yMax="510">
      <contour>
        <pt x="334" y="420" on="1"/>
        <pt x="310" y="420" on="0"/>
        <pt x="268" y="403" on="0"/>
        <pt x="234" y="364" on="0"/>
        <pt x="208" y="299" on="0"/>
        <pt x="199" y="250" on="1"/>
        <pt x="190" y="201" on="0"/>
        <pt x="194" y="136" on="0"/>
        <pt x="216" y="97" on="0"/>
        <pt x="256" y="80" on="0"/>
        <pt x="284" y="80" on="1"/>
        <pt x="308" y="80" on="0"/>
        <pt x="349" y="92" on="0"/>
        <pt x="364" y="100" on="1"/>
        <pt x="382" y="109" on="0"/>
        <pt x="396" y="120" on="1"/>
        <pt x="406" y="120" on="1"/>
        <pt x="437" y="40" on="1"/>
        <pt x="413" y="26" on="0"/>
        <pt x="385" y="15" on="1"/>
        <pt x="361" y="5" on="0"/>
        <pt x="296" y="-10" on="0"/>
        <pt x="258" y="-10" on="1"/>
        <pt x="137" y="-10" on="0"/>
        <pt x="36" y="118" on="0"/>
        <pt x="59" y="250" on="1"/>
        <pt x="82" y="382" on="0"/>
        <pt x="226" y="510" on="0"/>
        <pt x="339" y="510" on="1"/>
        <pt x="377" y="510" on="0"/>
        <pt x="436" y="494" on="0"/>
        <pt x="457" y="485" on="1"/>
        <pt x="482" y="474" on="0"/>
        <pt x="501" y="460" on="1"/>
        <pt x="442" y="380" on="1"/>
        <pt x="432" y="380" on="1"/>
        <pt x="421" y="391" on="0"/>
        <pt x="407" y="400" on="1"/>
        <pt x="395" y="408" on="0"/>
        <pt x="358" y="420" on="0"/>
      </contour>
    </TTGlyph>
    <TTGlyph name="afii10084" xMin="57" yMin="0" xMax="503" yMax="500">
      <contour>
        <pt x="487" y="410" on="1"/>
        <pt x="342" y="410" on="1"/>
        <pt x="270" y="0" on="1"/>
        <pt x="130" y="0" on="1"/>
        <pt x="202" y="410" on="1"/>
        <pt x="57" y="410" on="1"/>
        <pt x="73" y="500" on="1"/>
        <pt x="503" y="500" on="1"/>
      </contour>
    </TTGlyph>
    <TTGlyph name="afii10085" xMin="-22" yMin="-210" xMax="558" yMax="500">
      <contour>
        <pt x="418" y="500" on="1"/>
        <pt x="558" y="500" on="1"/>
        <pt x="296" y="-50" on="1"/>
        <pt x="260" y="-125" on="0"/>
        <pt x="154" y="-210" on="0"/>
        <pt x="82" y="-210" on="1"/>
        <pt x="59" y="-210" on="0"/>
        <pt x="21" y="-201" on="0"/>
        <pt x="7" y="-195" on="1"/>
        <pt x="-10" y="-189" on="0"/>
        <pt x="-22" y="-180" on="1"/>
        <pt x="28" y="-95" on="1"/>
        <pt x="38" y="-95" on="1"/>
        <pt x="44" y="-103" on="0"/>
        <pt x="52" y="-108" on="1"/>
        <pt x="59" y="-113" on="0"/>
        <pt x="77" y="-120" on="0"/>
        <pt x="88" y="-120" on="1"/>
        <pt x="111" y="-120" on="0"/>
        <pt x="152" y="-84" on="0"/>
        <pt x="167" y="-50" on="1"/>
        <pt x="190" y="0" on="1"/>
        <pt x="150" y="0" on="1"/>
        <pt x="73" y="500" on="1"/>
        <pt x="213" y="500" on="1"/>
        <pt x="255" y="175" on="1"/>
        <pt x="256" y="167" on="0"/>
        <pt x="257" y="148" on="0"/>
        <pt x="256" y="140" on="1"/>
        <pt x="255" y="130" on="0"/>
        <pt x="254" y="120" on="1"/>
        <pt x="258" y="120" on="1"/>
        <pt x="260" y="130" on="0"/>
        <pt x="263" y="140" on="1"/>
        <pt x="265" y="148" on="0"/>
        <pt x="272" y="167" on="0"/>
        <pt x="275" y="175" on="1"/>
      </contour>
    </TTGlyph>
    <TTGlyph name="afii10086" xMin="59" yMin="-200" xMax="689" yMax="700">
      <contour>
        <pt x="258" y="-10" on="1"/>
        <pt x="138" y="-6" on="0"/>
        <pt x="36" y="122" on="0"/>
        <pt x="59" y="250" on="1"/>
        <pt x="82" y="378" on="0"/>
        <pt x="228" y="506" on="0"/>
        <pt x="349" y="510" on="1"/>
        <pt x="376" y="660" on="1"/>
        <pt x="423" y="700" on="1"/>
        <pt x="523" y="700" on="1"/>
        <pt x="489" y="510" on="1"/>
        <pt x="610" y="506" on="0"/>
        <pt x="712" y="378" on="0"/>
        <pt x="689" y="250" on="1"/>
        <pt x="666" y="122" on="0"/>
        <pt x="519" y="-6" on="0"/>
        <pt x="398" y="-10" on="1"/>
        <pt x="364" y="-200" on="1"/>
        <pt x="224" y="-200" on="1"/>
      </contour>
      <contour>
        <pt x="414" y="80" on="1"/>
        <pt x="438" y="82" on="0"/>
        <pt x="480" y="100" on="0"/>
        <pt x="515" y="140" on="0"/>
        <pt x="541" y="203" on="0"/>
        <pt x="549" y="250" on="1"/>
        <pt x="557" y="297" on="0"/>
        <pt x="554" y="360" on="0"/>
        <pt x="534" y="400" on="0"/>
        <pt x="498" y="418" on="0"/>
        <pt x="474" y="420" on="1"/>
      </contour>
      <contour>
        <pt x="334" y="420" on="1"/>
        <pt x="309" y="418" on="0"/>
        <pt x="267" y="400" on="0"/>
        <pt x="233" y="360" on="0"/>
        <pt x="207" y="297" on="0"/>
        <pt x="199" y="250" on="1"/>
        <pt x="191" y="203" on="0"/>
        <pt x="194" y="140" on="0"/>
        <pt x="214" y="100" on="0"/>
        <pt x="250" y="82" on="0"/>
        <pt x="274" y="80" on="1"/>
      </contour>
    </TTGlyph>
    <TTGlyph name="afii10087" xMin="-15" yMin="0" xMax="538" yMax="500">
      <contour>
        <pt x="130" y="0" on="1"/>
        <pt x="-15" y="0" on="1"/>
        <pt x="179" y="255" on="1"/>
        <pt x="78" y="500" on="1"/>
        <pt x="223" y="500" on="1"/>
        <pt x="270" y="370" on="1"/>
        <pt x="272" y="362" on="0"/>
        <pt x="275" y="347" on="0"/>
        <pt x="276" y="342" on="1"/>
        <pt x="277" y="335" on="0"/>
        <pt x="276" y="330" on="1"/>
        <pt x="280" y="330" on="1"/>
        <pt x="281" y="335" on="0"/>
        <pt x="284" y="342" on="1"/>
        <pt x="286" y="347" on="0"/>
        <pt x="294" y="362" on="0"/>
        <pt x="300" y="370" on="1"/>
        <pt x="393" y="500" on="1"/>
        <pt x="538" y="500" on="1"/>
        <pt x="349" y="255" on="1"/>
        <pt x="455" y="0" on="1"/>
        <pt x="310" y="0" on="1"/>
        <pt x="258" y="135" on="1"/>
        <pt x="255" y="143" on="0"/>
        <pt x="253" y="156" on="0"/>
        <pt x="252" y="162" on="1"/>
        <pt x="251" y="168" on="0"/>
        <pt x="252" y="175" on="1"/>
        <pt x="248" y="175" on="1"/>
        <pt x="247" y="168" on="0"/>
        <pt x="244" y="162" on="1"/>
        <pt x="242" y="156" on="0"/>
        <pt x="233" y="143" on="0"/>
        <pt x="228" y="135" on="1"/>
      </contour>
    </TTGlyph>
    <TTGlyph name="afii10088" xMin="45" yMin="-140" xMax="563" yMax="500">
      <contour>
        <pt x="45" y="0" on="1"/>
        <pt x="133" y="500" on="1"/>
        <pt x="273" y="500" on="1"/>
        <pt x="200" y="90" on="1"/>
        <pt x="350" y="90" on="1"/>
        <pt x="423" y="500" on="1"/>
        <pt x="563" y="500" on="1"/>
        <pt x="490" y="90" on="1"/>
        <pt x="555" y="90" on="1"/>
        <pt x="515" y="-140" on="1"/>
        <pt x="410" y="-140" on="1"/>
        <pt x="415" y="0" on="1"/>
      </contour>
    </TTGlyph>
    <TTGlyph name="afii10089" xMin="84" yMin="0" xMax="543" yMax="500">
      <contour>
        <pt x="248" y="160" on="1"/>
        <pt x="150" y="160" on="0"/>
        <pt x="69" y="252" on="0"/>
        <pt x="84" y="335" on="1"/>
        <pt x="113" y="500" on="1"/>
        <pt x="253" y="500" on="1"/>
        <pt x="224" y="335" on="1"/>
        <pt x="216" y="293" on="0"/>
        <pt x="251" y="250" on="0"/>
        <pt x="289" y="250" on="1"/>
        <pt x="306" y="250" on="0"/>
        <pt x="333" y="254" on="0"/>
        <pt x="342" y="257" on="1"/>
        <pt x="353" y="261" on="0"/>
        <pt x="361" y="265" on="1"/>
        <pt x="403" y="500" on="1"/>
        <pt x="543" y="500" on="1"/>
        <pt x="455" y="0" on="1"/>
        <pt x="315" y="0" on="1"/>
        <pt x="345" y="175" on="1"/>
        <pt x="335" y="171" on="0"/>
        <pt x="321" y="167" on="1"/>
        <pt x="309" y="164" on="0"/>
        <pt x="272" y="160" on="0"/>
      </contour>
    </TTGlyph>
    <TTGlyph name="afii10090" xMin="45" yMin="0" xMax="813" yMax="500">
      <contour>
        <pt x="725" y="0" on="1"/>
        <pt x="45" y="0" on="1"/>
        <pt x="133" y="500" on="1"/>
        <pt x="273" y="500" on="1"/>
        <pt x="200" y="90" on="1"/>
        <pt x="330" y="90" on="1"/>
        <pt x="403" y="500" on="1"/>
        <pt x="543" y="500" on="1"/>
        <pt x="470" y="90" on="1"/>
        <pt x="600" y="90" on="1"/>
        <pt x="673" y="500" on="1"/>
        <pt x="813" y="500" on="1"/>
      </contour>
    </TTGlyph>
    <TTGlyph name="afii10091" xMin="45" yMin="-140" xMax="813" yMax="500">
      <contour>
        <pt x="45" y="0" on="1"/>
        <pt x="133" y="500" on="1"/>
        <pt x="273" y="500" on="1"/>
        <pt x="200" y="90" on="1"/>
        <pt x="330" y="90" on="1"/>
        <pt x="403" y="500" on="1"/>
        <pt x="543" y="500" on="1"/>
        <pt x="470" y="90" on="1"/>
        <pt x="600" y="90" on="1"/>
        <pt x="673" y="500" on="1"/>
        <pt x="813" y="500" on="1"/>
        <pt x="740" y="90" on="1"/>
        <pt x="805" y="90" on="1"/>
        <pt x="765" y="-140" on="1"/>
        <pt x="660" y="-140" on="1"/>
        <pt x="665" y="0" on="1"/>
      </contour>
    </TTGlyph>
    <TTGlyph name="afii10092" xMin="57" yMin="0" xMax="565" yMax="500">
      <contour>
        <pt x="369" y="340" on="1"/>
        <pt x="431" y="340" on="0"/>
        <pt x="513" y="318" on="0"/>
        <pt x="559" y="275" on="0"/>
        <pt x="571" y="211" on="0"/>
        <pt x="564" y="170" on="1"/>
        <pt x="557" y="132" on="0"/>
        <pt x="526" y="72" on="0"/>
        <pt x="474" y="29" on="0"/>
        <pt x="397" y="4" on="0"/>
        <pt x="345" y="1" on="1"/>
        <pt x="337" y="0" on="0"/>
        <pt x="323" y="0" on="0"/>
        <pt x="315" y="0" on="1"/>
        <pt x="310" y="0" on="1"/>
        <pt x="105" y="0" on="1"/>
        <pt x="177" y="410" on="1"/>
        <pt x="57" y="410" on="1"/>
        <pt x="73" y="500" on="1"/>
        <pt x="333" y="500" on="1"/>
        <pt x="304" y="340" on="1"/>
      </contour>
      <contour>
        <pt x="289" y="250" on="1"/>
        <pt x="260" y="90" on="1"/>
        <pt x="325" y="90" on="1"/>
        <pt x="367" y="90" on="0"/>
        <pt x="418" y="132" on="0"/>
        <pt x="424" y="170" on="1"/>
        <pt x="431" y="208" on="0"/>
        <pt x="396" y="250" on="0"/>
        <pt x="354" y="250" on="1"/>
      </contour>
    </TTGlyph>
    <TTGlyph name="afii10093" xMin="45" yMin="0" xMax="768" yMax="500">
      <contour>
        <pt x="680" y="0" on="1"/>
        <pt x="540" y="0" on="1"/>
        <pt x="628" y="500" on="1"/>
        <pt x="768" y="500" on="1"/>
      </contour>
      <contour>
        <pt x="299" y="340" on="1"/>
        <pt x="361" y="340" on="0"/>
        <pt x="443" y="318" on="0"/>
        <pt x="489" y="275" on="0"/>
        <pt x="501" y="211" on="0"/>
        <pt x="494" y="170" on="1"/>
        <pt x="487" y="129" on="0"/>
        <pt x="452" y="65" on="0"/>
        <pt x="391" y="22" on="0"/>
        <pt x="302" y="0" on="0"/>
        <pt x="240" y="0" on="1"/>
        <pt x="45" y="0" on="1"/>
        <pt x="133" y="500" on="1"/>
        <pt x="273" y="500" on="1"/>
        <pt x="244" y="340" on="1"/>
      </contour>
      <contour>
        <pt x="229" y="250" on="1"/>
        <pt x="200" y="90" on="1"/>
        <pt x="255" y="90" on="1"/>
        <pt x="297" y="90" on="0"/>
        <pt x="348" y="132" on="0"/>
        <pt x="354" y="170" on="1"/>
        <pt x="361" y="208" on="0"/>
        <pt x="326" y="250" on="0"/>
        <pt x="284" y="250" on="1"/>
      </contour>
    </TTGlyph>
    <TTGlyph name="afii10094" xMin="45" yMin="0" xMax="505" yMax="500">
      <contour>
        <pt x="309" y="340" on="1"/>
        <pt x="371" y="340" on="0"/>
        <pt x="453" y="318" on="0"/>
        <pt x="499" y="275" on="0"/>
        <pt x="511" y="211" on="0"/>
        <pt x="504" y="170" on="1"/>
        <pt x="497" y="129" on="0"/>
        <pt x="462" y="65" on="0"/>
        <pt x="401" y="22" on="0"/>
        <pt x="312" y="0" on="0"/>
        <pt x="250" y="0" on="1"/>
        <pt x="45" y="0" on="1"/>
        <pt x="133" y="500" on="1"/>
        <pt x="273" y="500" on="1"/>
        <pt x="244" y="340" on="1"/>
      </contour>
      <contour>
        <pt x="229" y="250" on="1"/>
        <pt x="200" y="90" on="1"/>
        <pt x="265" y="90" on="1"/>
        <pt x="307" y="90" on="0"/>
        <pt x="358" y="132" on="0"/>
        <pt x="364" y="170" on="1"/>
        <pt x="371" y="208" on="0"/>
        <pt x="336" y="250" on="0"/>
        <pt x="294" y="250" on="1"/>
      </contour>
    </TTGlyph>
    <TTGlyph name="afii10095" xMin="2" yMin="-10" xMax="454" yMax="510">
      <contour>
        <pt x="147" y="300" on="1"/>
        <pt x="317" y="300" on="1"/>
        <pt x="321" y="367" on="0"/>
        <pt x="280" y="420" on="0"/>
        <pt x="239" y="420" on="1"/>
        <pt x="214" y="420" on="0"/>
        <pt x="174" y="408" on="0"/>
        <pt x="159" y="400" on="1"/>
        <pt x="141" y="391" on="0"/>
        <pt x="127" y="380" on="1"/>
        <pt x="117" y="380" on="1"/>
        <pt x="86" y="460" on="1"/>
        <pt x="109" y="474" on="0"/>
        <pt x="137" y="485" on="1"/>
        <pt x="161" y="494" on="0"/>
        <pt x="226" y="510" on="0"/>
        <pt x="264" y="510" on="1"/>
        <pt x="377" y="510" on="0"/>
        <pt x="477" y="382" on="0"/>
        <pt x="454" y="250" on="1"/>
        <pt x="431" y="118" on="0"/>
        <pt x="284" y="-10" on="0"/>
        <pt x="163" y="-10" on="1"/>
        <pt x="125" y="-10" on="0"/>
        <pt x="66" y="5" on="0"/>
        <pt x="45" y="15" on="1"/>
        <pt x="20" y="26" on="0"/>
        <pt x="2" y="40" on="1"/>
        <pt x="61" y="120" on="1"/>
        <pt x="71" y="120" on="1"/>
        <pt x="82" y="109" on="0"/>
        <pt x="96" y="100" on="1"/>
        <pt x="108" y="92" on="0"/>
        <pt x="144" y="80" on="0"/>
        <pt x="169" y="80" on="1"/>
        <pt x="218" y="80" on="0"/>
        <pt x="286" y="135" on="0"/>
        <pt x="307" y="210" on="1"/>
        <pt x="132" y="210" on="1"/>
      </contour>
    </TTGlyph>
    <TTGlyph name="afii10096" xMin="45" yMin="-10" xMax="733" yMax="510">
      <contour>
        <pt x="479" y="80" on="1"/>
        <pt x="496" y="80" on="0"/>
        <pt x="528" y="95" on="0"/>
        <pt x="556" y="134" on="0"/>
        <pt x="580" y="199" on="0"/>
        <pt x="589" y="250" on="1"/>
        <pt x="598" y="301" on="0"/>
        <pt x="597" y="366" on="0"/>
        <pt x="582" y="405" on="0"/>
        <pt x="556" y="420" on="0"/>
        <pt x="539" y="420" on="1"/>
        <pt x="522" y="420" on="0"/>
        <pt x="490" y="405" on="0"/>
        <pt x="461" y="366" on="0"/>
        <pt x="438" y="301" on="0"/>
        <pt x="429" y="250" on="1"/>
        <pt x="420" y="199" on="0"/>
        <pt x="421" y="134" on="0"/>
        <pt x="436" y="95" on="0"/>
        <pt x="462" y="80" on="0"/>
      </contour>
      <contour>
        <pt x="463" y="-10" on="1"/>
        <pt x="362" y="-10" on="0"/>
        <pt x="275" y="109" on="0"/>
        <pt x="282" y="210" on="1"/>
        <pt x="222" y="210" on="1"/>
        <pt x="185" y="0" on="1"/>
        <pt x="45" y="0" on="1"/>
        <pt x="133" y="500" on="1"/>
        <pt x="273" y="500" on="1"/>
        <pt x="237" y="300" on="1"/>
        <pt x="297" y="300" on="1"/>
        <pt x="326" y="398" on="0"/>
        <pt x="452" y="510" on="0"/>
        <pt x="554" y="510" on="1"/>
        <pt x="605" y="510" on="0"/>
        <pt x="680" y="478" on="0"/>
        <pt x="726" y="413" on="0"/>
        <pt x="740" y="316" on="0"/>
        <pt x="729" y="250" on="1"/>
        <pt x="706" y="119" on="0"/>
        <pt x="564" y="-10" on="0"/>
      </contour>
    </TTGlyph>
    <TTGlyph name="afii10097" xMin="0" yMin="-10" xMax="538" yMax="500">
      <contour>
        <pt x="357" y="270" on="1"/>
        <pt x="382" y="410" on="1"/>
        <pt x="322" y="410" on="1"/>
        <pt x="241" y="410" on="0"/>
        <pt x="229" y="340" on="1"/>
        <pt x="224" y="306" on="0"/>
        <pt x="255" y="270" on="0"/>
        <pt x="297" y="270" on="1"/>
      </contour>
      <contour>
        <pt x="197" y="215" on="1"/>
        <pt x="162" y="221" on="0"/>
        <pt x="136" y="237" on="1"/>
        <pt x="125" y="244" on="0"/>
        <pt x="105" y="263" on="0"/>
        <pt x="92" y="289" on="0"/>
        <pt x="86" y="323" on="0"/>
        <pt x="90" y="345" on="1"/>
        <pt x="96" y="379" on="0"/>
        <pt x="131" y="436" on="0"/>
        <pt x="192" y="477" on="0"/>
        <pt x="280" y="500" on="0"/>
        <pt x="338" y="500" on="1"/>
        <pt x="538" y="500" on="1"/>
        <pt x="450" y="0" on="1"/>
        <pt x="310" y="0" on="1"/>
        <pt x="341" y="180" on="1"/>
        <pt x="296" y="180" on="1"/>
        <pt x="258" y="180" on="0"/>
        <pt x="239" y="140" on="1"/>
        <pt x="207" y="70" on="1"/>
        <pt x="191" y="36" on="0"/>
        <pt x="131" y="-10" on="0"/>
        <pt x="78" y="-10" on="1"/>
        <pt x="61" y="-10" on="0"/>
        <pt x="33" y="-6" on="0"/>
        <pt x="22" y="-3" on="1"/>
        <pt x="10" y="1" on="0"/>
        <pt x="0" y="5" on="1"/>
        <pt x="29" y="85" on="1"/>
        <pt x="34" y="85" on="1"/>
        <pt x="36" y="83" on="0"/>
        <pt x="40" y="82" on="1"/>
        <pt x="48" y="80" on="0"/>
        <pt x="54" y="80" on="1"/>
        <pt x="62" y="80" on="0"/>
        <pt x="78" y="94" on="0"/>
        <pt x="83" y="105" on="1"/>
        <pt x="108" y="160" on="1"/>
        <pt x="116" y="179" on="0"/>
        <pt x="147" y="200" on="0"/>
        <pt x="161" y="206" on="1"/>
        <pt x="178" y="212" on="0"/>
      </contour>
    </TTGlyph>
    <TTGlyph name="afii10098" xMin="45" yMin="0" xMax="500" yMax="600">
      <contour>
        <pt x="257" y="410" on="1"/>
        <pt x="185" y="0" on="1"/>
        <pt x="45" y="0" on="1"/>
        <pt x="133" y="500" on="1"/>
        <pt x="373" y="500" on="1"/>
        <pt x="405" y="600" on="1"/>
        <pt x="500" y="600" on="1"/>
        <pt x="467" y="410" on="1"/>
      </contour>
    </TTGlyph>
    <TTGlyph name="afii10099" xMin="55" yMin="-140" xMax="540" yMax="700">
      <contour>
        <pt x="291" y="-50" on="1"/>
        <pt x="314" y="-50" on="0"/>
        <pt x="352" y="-12" on="0"/>
        <pt x="360" y="30" on="1"/>
        <pt x="400" y="260" on="1"/>
        <pt x="409" y="309" on="0"/>
        <pt x="376" y="355" on="0"/>
        <pt x="342" y="355" on="1"/>
        <pt x="321" y="355" on="0"/>
        <pt x="287" y="336" on="0"/>
        <pt x="274" y="325" on="1"/>
        <pt x="259" y="312" on="0"/>
        <pt x="247" y="295" on="1"/>
        <pt x="195" y="0" on="1"/>
        <pt x="55" y="0" on="1"/>
        <pt x="143" y="500" on="1"/>
        <pt x="88" y="500" on="1"/>
        <pt x="104" y="590" on="1"/>
        <pt x="159" y="590" on="1"/>
        <pt x="171" y="660" on="1"/>
        <pt x="218" y="700" on="1"/>
        <pt x="318" y="700" on="1"/>
        <pt x="299" y="590" on="1"/>
        <pt x="424" y="590" on="1"/>
        <pt x="408" y="500" on="1"/>
        <pt x="283" y="500" on="1"/>
        <pt x="266" y="405" on="1"/>
        <pt x="281" y="417" on="0"/>
        <pt x="299" y="427" on="1"/>
        <pt x="315" y="435" on="0"/>
        <pt x="358" y="450" on="0"/>
        <pt x="384" y="450" on="1"/>
        <pt x="475" y="450" on="0"/>
        <pt x="557" y="351" on="0"/>
        <pt x="540" y="260" on="1"/>
        <pt x="500" y="30" on="1"/>
        <pt x="493" y="-8" on="0"/>
        <pt x="457" y="-70" on="0"/>
        <pt x="401" y="-115" on="0"/>
        <pt x="328" y="-140" on="0"/>
        <pt x="285" y="-140" on="1"/>
        <pt x="266" y="-140" on="0"/>
        <pt x="236" y="-134" on="0"/>
        <pt x="225" y="-130" on="1"/>
        <pt x="213" y="-126" on="0"/>
        <pt x="203" y="-120" on="1"/>
        <pt x="232" y="-40" on="1"/>
        <pt x="242" y="-40" on="1"/>
        <pt x="247" y="-43" on="0"/>
        <pt x="255" y="-45" on="1"/>
        <pt x="268" y="-50" on="0"/>
      </contour>
    </TTGlyph>
    <TTGlyph name="afii10100" xMin="45" yMin="0" xMax="483" yMax="700">
      <contour>
        <pt x="467" y="410" on="1"/>
        <pt x="257" y="410" on="1"/>
        <pt x="185" y="0" on="1"/>
        <pt x="45" y="0" on="1"/>
        <pt x="133" y="500" on="1"/>
        <pt x="483" y="500" on="1"/>
      </contour>
      <contour>
        <pt x="468" y="700" on="1"/>
        <pt x="341" y="550" on="1"/>
        <pt x="261" y="550" on="1"/>
        <pt x="333" y="700" on="1"/>
      </contour>
    </TTGlyph>
    <TTGlyph name="afii10101" xMin="59" yMin="-10" xMax="501" yMax="510">
      <contour>
        <pt x="367" y="210" on="1"/>
        <pt x="192" y="210" on="1"/>
        <pt x="186" y="135" on="0"/>
        <pt x="235" y="80" on="0"/>
        <pt x="284" y="80" on="1"/>
        <pt x="308" y="80" on="0"/>
        <pt x="349" y="92" on="0"/>
        <pt x="364" y="100" on="1"/>
        <pt x="382" y="109" on="0"/>
        <pt x="396" y="120" on="1"/>
        <pt x="406" y="120" on="1"/>
        <pt x="437" y="40" on="1"/>
        <pt x="413" y="26" on="0"/>
        <pt x="385" y="15" on="1"/>
        <pt x="361" y="5" on="0"/>
        <pt x="296" y="-10" on="0"/>
        <pt x="258" y="-10" on="1"/>
        <pt x="137" y="-10" on="0"/>
        <pt x="36" y="118" on="0"/>
        <pt x="59" y="250" on="1"/>
        <pt x="82" y="382" on="0"/>
        <pt x="226" y="510" on="0"/>
        <pt x="339" y="510" on="1"/>
        <pt x="377" y="510" on="0"/>
        <pt x="436" y="494" on="0"/>
        <pt x="457" y="485" on="1"/>
        <pt x="482" y="474" on="0"/>
        <pt x="501" y="460" on="1"/>
        <pt x="442" y="380" on="1"/>
        <pt x="432" y="380" on="1"/>
        <pt x="421" y="391" on="0"/>
        <pt x="407" y="400" on="1"/>
        <pt x="395" y="408" on="0"/>
        <pt x="358" y="420" on="0"/>
        <pt x="334" y="420" on="1"/>
        <pt x="292" y="420" on="0"/>
        <pt x="232" y="368" on="0"/>
        <pt x="212" y="300" on="1"/>
        <pt x="382" y="300" on="1"/>
      </contour>
    </TTGlyph>
    <TTGlyph name="afii10102" xMin="12" yMin="-10" xMax="496" yMax="510">
      <contour>
        <pt x="314" y="510" on="1"/>
        <pt x="356" y="510" on="0"/>
        <pt x="422" y="494" on="0"/>
        <pt x="446" y="485" on="1"/>
        <pt x="474" y="474" on="0"/>
        <pt x="496" y="460" on="1"/>
        <pt x="437" y="380" on="1"/>
        <pt x="427" y="380" on="1"/>
        <pt x="414" y="391" on="0"/>
        <pt x="396" y="400" on="1"/>
        <pt x="381" y="408" on="0"/>
        <pt x="337" y="420" on="0"/>
        <pt x="309" y="420" on="1"/>
        <pt x="267" y="420" on="0"/>
        <pt x="223" y="389" on="0"/>
        <pt x="220" y="370" on="1"/>
        <pt x="216" y="349" on="0"/>
        <pt x="252" y="323" on="0"/>
        <pt x="310" y="301" on="0"/>
        <pt x="377" y="279" on="0"/>
        <pt x="431" y="243" on="0"/>
        <pt x="462" y="188" on="0"/>
        <pt x="455" y="146" on="1"/>
        <pt x="449" y="112" on="0"/>
        <pt x="414" y="55" on="0"/>
        <pt x="353" y="13" on="0"/>
        <pt x="266" y="-10" on="0"/>
        <pt x="208" y="-10" on="1"/>
        <pt x="163" y="-10" on="0"/>
        <pt x="91" y="5" on="0"/>
        <pt x="65" y="15" on="1"/>
        <pt x="35" y="26" on="0"/>
        <pt x="12" y="40" on="1"/>
        <pt x="71" y="120" on="1"/>
        <pt x="81" y="120" on="1"/>
        <pt x="95" y="109" on="0"/>
        <pt x="113" y="100" on="1"/>
        <pt x="129" y="92" on="0"/>
        <pt x="177" y="80" on="0"/>
        <pt x="209" y="80" on="1"/>
        <pt x="262" y="80" on="0"/>
        <pt x="309" y="113" on="0"/>
        <pt x="313" y="136" on="1"/>
        <pt x="317" y="157" on="0"/>
        <pt x="281" y="183" on="0"/>
        <pt x="223" y="205" on="0"/>
        <pt x="156" y="227" on="0"/>
        <pt x="102" y="263" on="0"/>
        <pt x="70" y="317" on="0"/>
        <pt x="78" y="360" on="1"/>
        <pt x="84" y="392" on="0"/>
        <pt x="118" y="447" on="0"/>
        <pt x="176" y="487" on="0"/>
        <pt x="260" y="510" on="0"/>
      </contour>
    </TTGlyph>
    <TTGlyph name="afii10103" xMin="45" yMin="0" xMax="302" yMax="715">
      <contour>
        <pt x="273" y="500" on="1"/>
        <pt x="185" y="0" on="1"/>
        <pt x="45" y="0" on="1"/>
        <pt x="133" y="500" on="1"/>
      </contour>
      <contour>
        <pt x="241" y="715" on="1"/>
        <pt x="271" y="715" on="0"/>
        <pt x="307" y="670" on="0"/>
        <pt x="302" y="640" on="1"/>
        <pt x="299" y="625" on="0"/>
        <pt x="282" y="598" on="0"/>
        <pt x="258" y="577" on="0"/>
        <pt x="229" y="565" on="0"/>
        <pt x="214" y="565" on="1"/>
        <pt x="184" y="565" on="0"/>
        <pt x="147" y="610" on="0"/>
        <pt x="152" y="640" on="1"/>
        <pt x="155" y="655" on="0"/>
        <pt x="172" y="682" on="0"/>
        <pt x="196" y="703" on="0"/>
        <pt x="226" y="715" on="0"/>
      </contour>
    </TTGlyph>
    <TTGlyph name="afii10104" xMin="55" yMin="0" xMax="412" yMax="715">
      <contour>
        <pt x="283" y="500" on="1"/>
        <pt x="195" y="0" on="1"/>
        <pt x="55" y="0" on="1"/>
        <pt x="143" y="500" on="1"/>
      </contour>
      <contour>
        <pt x="151" y="715" on="1"/>
        <pt x="181" y="715" on="0"/>
        <pt x="217" y="670" on="0"/>
        <pt x="212" y="640" on="1"/>
        <pt x="209" y="625" on="0"/>
        <pt x="192" y="598" on="0"/>
        <pt x="168" y="577" on="0"/>
        <pt x="139" y="565" on="0"/>
        <pt x="124" y="565" on="1"/>
        <pt x="94" y="565" on="0"/>
        <pt x="57" y="610" on="0"/>
        <pt x="62" y="640" on="1"/>
        <pt x="65" y="655" on="0"/>
        <pt x="82" y="682" on="0"/>
        <pt x="106" y="703" on="0"/>
        <pt x="136" y="715" on="0"/>
      </contour>
      <contour>
        <pt x="351" y="715" on="1"/>
        <pt x="381" y="715" on="0"/>
        <pt x="417" y="670" on="0"/>
        <pt x="412" y="640" on="1"/>
        <pt x="409" y="625" on="0"/>
        <pt x="392" y="598" on="0"/>
        <pt x="368" y="577" on="0"/>
        <pt x="339" y="565" on="0"/>
        <pt x="324" y="565" on="1"/>
        <pt x="294" y="565" on="0"/>
        <pt x="257" y="610" on="0"/>
        <pt x="262" y="640" on="1"/>
        <pt x="265" y="655" on="0"/>
        <pt x="282" y="682" on="0"/>
        <pt x="306" y="703" on="0"/>
        <pt x="336" y="715" on="0"/>
      </contour>
      <contour>
        <pt x="283" y="500" on="1"/>
        <pt x="195" y="0" on="1"/>
        <pt x="55" y="0" on="1"/>
        <pt x="143" y="500" on="1"/>
      </contour>
    </TTGlyph>
    <TTGlyph name="afii10105" xMin="-129" yMin="-200" xMax="322" yMax="715">
      <contour>
        <pt x="-20" y="-110" on="1"/>
        <pt x="10" y="-110" on="0"/>
        <pt x="52" y="-72" on="0"/>
        <pt x="59" y="-30" on="1"/>
        <pt x="153" y="500" on="1"/>
        <pt x="293" y="500" on="1"/>
        <pt x="199" y="-30" on="1"/>
        <pt x="193" y="-68" on="0"/>
        <pt x="156" y="-130" on="0"/>
        <pt x="98" y="-175" on="0"/>
        <pt x="21" y="-200" on="0"/>
        <pt x="-25" y="-200" on="1"/>
        <pt x="-48" y="-200" on="0"/>
        <pt x="-86" y="-191" on="0"/>
        <pt x="-100" y="-185" on="1"/>
        <pt x="-117" y="-179" on="0"/>
        <pt x="-129" y="-170" on="1"/>
        <pt x="-79" y="-85" on="1"/>
        <pt x="-69" y="-85" on="1"/>
        <pt x="-63" y="-93" on="0"/>
        <pt x="-55" y="-98" on="1"/>
        <pt x="-48" y="-103" on="0"/>
        <pt x="-31" y="-110" on="0"/>
      </contour>
      <contour>
        <pt x="261" y="715" on="1"/>
        <pt x="291" y="715" on="0"/>
        <pt x="327" y="670" on="0"/>
        <pt x="322" y="640" on="1"/>
        <pt x="319" y="625" on="0"/>
        <pt x="302" y="598" on="0"/>
        <pt x="278" y="577" on="0"/>
        <pt x="249" y="565" on="0"/>
        <pt x="234" y="565" on="1"/>
        <pt x="204" y="565" on="0"/>
        <pt x="167" y="610" on="0"/>
        <pt x="172" y="640" on="1"/>
        <pt x="175" y="655" on="0"/>
        <pt x="192" y="682" on="0"/>
        <pt x="216" y="703" on="0"/>
        <pt x="246" y="715" on="0"/>
      </contour>
    </TTGlyph>
    <TTGlyph name="afii10106" xMin="-20" yMin="-10" xMax="785" yMax="500">
      <contour>
        <pt x="589" y="340" on="1"/>
        <pt x="651" y="340" on="0"/>
        <pt x="733" y="318" on="0"/>
        <pt x="779" y="275" on="0"/>
        <pt x="791" y="211" on="0"/>
        <pt x="784" y="170" on="1"/>
        <pt x="777" y="129" on="0"/>
        <pt x="742" y="65" on="0"/>
        <pt x="681" y="22" on="0"/>
        <pt x="592" y="0" on="0"/>
        <pt x="530" y="0" on="1"/>
        <pt x="325" y="0" on="1"/>
        <pt x="397" y="410" on="1"/>
        <pt x="287" y="410" on="1"/>
        <pt x="228" y="160" on="1"/>
        <pt x="207" y="73" on="0"/>
        <pt x="116" y="-10" on="0"/>
        <pt x="48" y="-10" on="1"/>
        <pt x="34" y="-10" on="0"/>
        <pt x="11" y="-6" on="0"/>
        <pt x="1" y="-3" on="1"/>
        <pt x="-10" y="1" on="0"/>
        <pt x="-20" y="5" on="1"/>
        <pt x="4" y="85" on="1"/>
        <pt x="14" y="85" on="1"/>
        <pt x="16" y="83" on="0"/>
        <pt x="20" y="82" on="1"/>
        <pt x="28" y="80" on="0"/>
        <pt x="34" y="80" on="1"/>
        <pt x="49" y="80" on="0"/>
        <pt x="82" y="115" on="0"/>
        <pt x="93" y="160" on="1"/>
        <pt x="173" y="500" on="1"/>
        <pt x="553" y="500" on="1"/>
        <pt x="524" y="340" on="1"/>
      </contour>
      <contour>
        <pt x="509" y="250" on="1"/>
        <pt x="480" y="90" on="1"/>
        <pt x="545" y="90" on="1"/>
        <pt x="587" y="90" on="0"/>
        <pt x="638" y="132" on="0"/>
        <pt x="644" y="170" on="1"/>
        <pt x="651" y="208" on="0"/>
        <pt x="616" y="250" on="0"/>
        <pt x="574" y="250" on="1"/>
      </contour>
    </TTGlyph>
    <TTGlyph name="afii10107" xMin="45" yMin="0" xMax="793" yMax="500">
      <contour>
        <pt x="596" y="320" on="1"/>
        <pt x="658" y="320" on="0"/>
        <pt x="740" y="298" on="0"/>
        <pt x="786" y="257" on="0"/>
        <pt x="799" y="197" on="0"/>
        <pt x="793" y="160" on="1"/>
        <pt x="786" y="122" on="0"/>
        <pt x="752" y="63" on="0"/>
        <pt x="691" y="22" on="0"/>
        <pt x="602" y="0" on="0"/>
        <pt x="540" y="0" on="1"/>
        <pt x="335" y="0" on="1"/>
        <pt x="375" y="230" on="1"/>
        <pt x="225" y="230" on="1"/>
        <pt x="185" y="0" on="1"/>
        <pt x="45" y="0" on="1"/>
        <pt x="133" y="500" on="1"/>
        <pt x="273" y="500" on="1"/>
        <pt x="241" y="320" on="1"/>
        <pt x="391" y="320" on="1"/>
        <pt x="423" y="500" on="1"/>
        <pt x="563" y="500" on="1"/>
        <pt x="531" y="320" on="1"/>
      </contour>
      <contour>
        <pt x="515" y="230" on="1"/>
        <pt x="490" y="90" on="1"/>
        <pt x="555" y="90" on="1"/>
        <pt x="597" y="90" on="0"/>
        <pt x="648" y="130" on="0"/>
        <pt x="653" y="160" on="1"/>
        <pt x="658" y="190" on="0"/>
        <pt x="622" y="230" on="0"/>
        <pt x="580" y="230" on="1"/>
      </contour>
    </TTGlyph>
    <TTGlyph name="afii10108" xMin="55" yMin="0" xMax="540" yMax="700">
      <contour>
        <pt x="104" y="590" on="1"/>
        <pt x="159" y="590" on="1"/>
        <pt x="171" y="660" on="1"/>
        <pt x="218" y="700" on="1"/>
        <pt x="318" y="700" on="1"/>
        <pt x="299" y="590" on="1"/>
        <pt x="424" y="590" on="1"/>
        <pt x="408" y="500" on="1"/>
        <pt x="283" y="500" on="1"/>
        <pt x="266" y="405" on="1"/>
        <pt x="281" y="417" on="0"/>
        <pt x="299" y="427" on="1"/>
        <pt x="315" y="435" on="0"/>
        <pt x="358" y="450" on="0"/>
        <pt x="384" y="450" on="1"/>
        <pt x="475" y="450" on="0"/>
        <pt x="557" y="351" on="0"/>
        <pt x="540" y="260" on="1"/>
        <pt x="495" y="0" on="1"/>
        <pt x="355" y="0" on="1"/>
        <pt x="400" y="260" on="1"/>
        <pt x="409" y="309" on="0"/>
        <pt x="376" y="355" on="0"/>
        <pt x="342" y="355" on="1"/>
        <pt x="321" y="355" on="0"/>
        <pt x="287" y="336" on="0"/>
        <pt x="274" y="325" on="1"/>
        <pt x="259" y="312" on="0"/>
        <pt x="247" y="295" on="1"/>
        <pt x="195" y="0" on="1"/>
        <pt x="55" y="0" on="1"/>
        <pt x="143" y="500" on="1"/>
        <pt x="88" y="500" on="1"/>
      </contour>
    </TTGlyph>
    <TTGlyph name="afii10109" xMin="45" yMin="-10" xMax="572" yMax="690">
      <contour>
        <pt x="496" y="690" on="1"/>
        <pt x="370" y="540" on="1"/>
        <pt x="290" y="540" on="1"/>
        <pt x="361" y="690" on="1"/>
      </contour>
      <contour>
        <pt x="457" y="325" on="1"/>
        <pt x="447" y="304" on="0"/>
        <pt x="416" y="279" on="0"/>
        <pt x="401" y="272" on="1"/>
        <pt x="383" y="264" on="0"/>
        <pt x="365" y="260" on="1"/>
        <pt x="385" y="257" on="0"/>
        <pt x="402" y="247" on="1"/>
        <pt x="416" y="239" on="0"/>
        <pt x="440" y="209" on="0"/>
        <pt x="442" y="185" on="1"/>
        <pt x="448" y="105" on="1"/>
        <pt x="449" y="94" on="0"/>
        <pt x="461" y="80" on="0"/>
        <pt x="469" y="80" on="1"/>
        <pt x="475" y="80" on="0"/>
        <pt x="483" y="82" on="1"/>
        <pt x="487" y="83" on="0"/>
        <pt x="489" y="85" on="1"/>
        <pt x="494" y="85" on="1"/>
        <pt x="495" y="5" on="1"/>
        <pt x="484" y="1" on="0"/>
        <pt x="471" y="-3" on="1"/>
        <pt x="460" y="-6" on="0"/>
        <pt x="430" y="-10" on="0"/>
        <pt x="413" y="-10" on="1"/>
        <pt x="360" y="-10" on="0"/>
        <pt x="314" y="36" on="0"/>
        <pt x="312" y="70" on="1"/>
        <pt x="304" y="170" on="1"/>
        <pt x="303" y="189" on="0"/>
        <pt x="285" y="210" on="0"/>
        <pt x="262" y="210" on="1"/>
        <pt x="222" y="210" on="1"/>
        <pt x="185" y="0" on="1"/>
        <pt x="45" y="0" on="1"/>
        <pt x="133" y="500" on="1"/>
        <pt x="273" y="500" on="1"/>
        <pt x="237" y="300" on="1"/>
        <pt x="267" y="300" on="1"/>
        <pt x="290" y="300" on="0"/>
        <pt x="316" y="321" on="0"/>
        <pt x="324" y="340" on="1"/>
        <pt x="365" y="430" on="1"/>
        <pt x="380" y="464" on="0"/>
        <pt x="441" y="510" on="0"/>
        <pt x="494" y="510" on="1"/>
        <pt x="511" y="510" on="0"/>
        <pt x="539" y="505" on="0"/>
        <pt x="550" y="502" on="1"/>
        <pt x="562" y="498" on="0"/>
        <pt x="572" y="495" on="1"/>
        <pt x="543" y="415" on="1"/>
        <pt x="538" y="415" on="1"/>
        <pt x="532" y="417" on="1"/>
        <pt x="529" y="418" on="0"/>
        <pt x="523" y="420" on="0"/>
        <pt x="519" y="420" on="1"/>
        <pt x="511" y="420" on="0"/>
        <pt x="494" y="406" on="0"/>
        <pt x="489" y="395" on="1"/>
      </contour>
    </TTGlyph>
    <TTGlyph name="afii10110" xMin="-22" yMin="-210" xMax="558" yMax="675">
      <contour>
        <pt x="418" y="500" on="1"/>
        <pt x="558" y="500" on="1"/>
        <pt x="296" y="-50" on="1"/>
        <pt x="260" y="-125" on="0"/>
        <pt x="154" y="-210" on="0"/>
        <pt x="82" y="-210" on="1"/>
        <pt x="59" y="-210" on="0"/>
        <pt x="21" y="-201" on="0"/>
        <pt x="7" y="-195" on="1"/>
        <pt x="-10" y="-189" on="0"/>
        <pt x="-22" y="-180" on="1"/>
        <pt x="28" y="-95" on="1"/>
        <pt x="38" y="-95" on="1"/>
        <pt x="44" y="-103" on="0"/>
        <pt x="52" y="-108" on="1"/>
        <pt x="59" y="-113" on="0"/>
        <pt x="77" y="-120" on="0"/>
        <pt x="88" y="-120" on="1"/>
        <pt x="111" y="-120" on="0"/>
        <pt x="152" y="-84" on="0"/>
        <pt x="167" y="-50" on="1"/>
        <pt x="190" y="0" on="1"/>
        <pt x="150" y="0" on="1"/>
        <pt x="73" y="500" on="1"/>
        <pt x="213" y="500" on="1"/>
        <pt x="255" y="175" on="1"/>
        <pt x="256" y="167" on="0"/>
        <pt x="257" y="148" on="0"/>
        <pt x="256" y="140" on="1"/>
        <pt x="255" y="130" on="0"/>
        <pt x="254" y="120" on="1"/>
        <pt x="258" y="120" on="1"/>
        <pt x="260" y="130" on="0"/>
        <pt x="263" y="140" on="1"/>
        <pt x="265" y="148" on="0"/>
        <pt x="272" y="167" on="0"/>
        <pt x="275" y="175" on="1"/>
      </contour>
      <contour>
        <pt x="336" y="605" on="1"/>
        <pt x="359" y="605" on="0"/>
        <pt x="392" y="637" on="0"/>
        <pt x="399" y="675" on="1"/>
        <pt x="509" y="675" on="1"/>
        <pt x="497" y="607" on="0"/>
        <pt x="407" y="535" on="0"/>
        <pt x="324" y="535" on="1"/>
        <pt x="241" y="535" on="0"/>
        <pt x="177" y="607" on="0"/>
        <pt x="189" y="675" on="1"/>
        <pt x="299" y="675" on="1"/>
        <pt x="292" y="637" on="0"/>
        <pt x="313" y="605" on="0"/>
      </contour>
    </TTGlyph>
    <TTGlyph name="afii10145" xMin="60" yMin="-150" xMax="673" yMax="700">
      <contour>
        <pt x="60" y="0" on="1"/>
        <pt x="183" y="700" on="1"/>
        <pt x="323" y="700" on="1"/>
        <pt x="215" y="90" on="1"/>
        <pt x="425" y="90" on="1"/>
        <pt x="533" y="700" on="1"/>
        <pt x="673" y="700" on="1"/>
        <pt x="550" y="0" on="1"/>
        <pt x="370" y="0" on="1"/>
        <pt x="328" y="-150" on="1"/>
        <pt x="228" y="-150" on="1"/>
        <pt x="240" y="0" on="1"/>
      </contour>
    </TTGlyph>
    <TTGlyph name="afii10193" xMin="45" yMin="-140" xMax="573" yMax="500">
      <contour>
        <pt x="45" y="0" on="1"/>
        <pt x="133" y="500" on="1"/>
        <pt x="273" y="500" on="1"/>
        <pt x="200" y="90" on="1"/>
        <pt x="360" y="90" on="1"/>
        <pt x="433" y="500" on="1"/>
        <pt x="573" y="500" on="1"/>
        <pt x="485" y="0" on="1"/>
        <pt x="330" y="0" on="1"/>
        <pt x="290" y="-140" on="1"/>
        <pt x="190" y="-140" on="1"/>
        <pt x="200" y="0" on="1"/>
      </contour>
    </TTGlyph>
</ttFont>
